<?xml version="1.0" standalone="no"?>
<!DOCTYPE svg PUBLIC "-//W3C//DTD SVG 20010904//EN"
 "http://www.w3.org/TR/2001/REC-SVG-20010904/DTD/svg10.dtd">
<svg version="1.0" xmlns="http://www.w3.org/2000/svg"
 width="2000.000000pt" height="438.000000pt" viewBox="0 0 2000.000000 438.000000"
 preserveAspectRatio="xMidYMid meet">
<metadata>
Created by potrace 1.16, written by Peter Selinger 2001-2019
</metadata>
<g transform="translate(0.000000,438.000000) scale(0.100000,-0.100000)"
fill="#000000" stroke="none">
<path d="M0 2190 l0 -2190 970 0 c640 0 970 3 970 10 0 6 -27 10 -60 10 -33 0
-60 4 -60 10 0 6 -22 10 -50 10 -27 0 -50 5 -50 10 0 6 -18 10 -40 10 -22 0
-40 5 -40 10 0 6 -13 10 -30 10 -16 0 -30 5 -30 10 0 6 -13 10 -30 10 -16 0
-30 5 -30 10 0 6 -13 10 -30 10 -16 0 -30 5 -30 10 0 6 -13 10 -30 10 -16 0
-30 5 -30 10 0 6 -9 10 -20 10 -11 0 -20 5 -20 10 0 6 -13 10 -30 10 -16 0
-30 5 -30 10 0 6 -9 10 -20 10 -11 0 -20 5 -20 10 0 6 -9 10 -20 10 -11 0 -20
5 -20 10 0 6 -9 10 -20 10 -11 0 -20 5 -20 10 0 6 -9 10 -20 10 -11 0 -20 5
-20 10 0 6 -9 10 -20 10 -11 0 -25 9 -32 20 -7 11 -20 20 -28 20 -9 0 -22 9
-30 20 -8 11 -21 20 -30 20 -9 0 -22 9 -30 20 -8 11 -21 20 -28 20 -8 0 -27
14 -42 30 -15 17 -33 30 -40 30 -6 0 -38 27 -70 60 -32 33 -65 60 -72 60 -17
0 -98 83 -98 99 0 7 -27 39 -60 70 -33 32 -60 63 -60 69 0 7 -13 26 -30 44
-16 17 -30 36 -30 42 0 6 -9 18 -20 26 -11 8 -20 20 -20 28 0 7 -9 22 -20 34
-11 12 -20 28 -20 35 0 7 -4 13 -10 13 -5 0 -10 9 -10 20 0 11 -4 20 -10 20
-5 0 -10 7 -10 15 0 9 -8 25 -18 35 -28 30 -62 99 -62 126 0 13 -4 24 -10 24
-5 0 -10 9 -10 20 0 11 -3 20 -7 20 -12 0 -33 51 -33 77 0 13 -4 23 -10 23 -5
0 -10 14 -10 30 0 17 -4 30 -10 30 -5 0 -10 14 -10 30 0 17 -4 30 -10 30 -5 0
-10 18 -10 40 0 22 -4 40 -10 40 -5 0 -10 18 -10 40 0 22 -4 40 -10 40 -5 0
-10 23 -10 50 0 28 -4 50 -10 50 -6 0 -10 27 -10 60 0 33 -4 60 -10 60 -6 0
-10 98 -10 275 0 177 4 275 10 275 6 0 10 27 10 60 0 33 4 60 10 60 6 0 10 23
10 50 0 28 5 50 10 50 6 0 10 18 10 40 0 22 5 40 10 40 6 0 10 14 10 30 0 17
5 30 10 30 6 0 10 14 10 30 0 17 5 30 10 30 6 0 10 14 10 30 0 17 5 30 10 30
6 0 10 10 10 23 0 26 21 77 33 77 4 0 7 9 7 20 0 11 5 20 10 20 6 0 10 9 10
20 0 11 5 20 10 20 6 0 10 9 10 20 0 11 5 20 10 20 6 0 10 9 10 20 0 11 5 20
10 20 6 0 10 9 10 20 0 11 5 20 10 20 6 0 10 9 10 20 0 11 5 20 10 20 6 0 10
9 10 20 0 11 9 25 20 32 11 7 20 20 20 28 0 9 9 22 20 30 11 8 20 21 20 30 0
9 9 22 20 30 11 8 20 22 20 30 0 9 18 32 40 51 22 19 40 40 40 46 0 16 285
303 300 303 7 0 25 14 40 30 15 17 34 30 42 30 7 0 24 14 37 30 13 17 31 30
40 30 9 0 22 9 29 20 7 11 21 20 32 20 11 0 20 5 20 10 0 6 8 10 18 10 9 0 23
9 30 20 7 11 21 20 32 20 11 0 20 5 20 10 0 6 9 10 20 10 11 0 20 5 20 10 0 6
9 10 20 10 11 0 20 5 20 10 0 6 9 10 20 10 11 0 20 5 20 10 0 6 14 10 30 10
17 0 30 5 30 10 0 6 9 10 20 10 11 0 20 3 20 8 0 11 51 32 76 32 13 0 26 5 29
10 3 6 17 10 31 10 13 0 24 5 24 10 0 6 18 10 40 10 22 0 40 5 40 10 0 6 18
10 40 10 22 0 40 5 40 10 0 6 18 10 40 10 22 0 40 5 40 10 0 6 27 10 60 10 47
0 60 3 60 15 0 13 -113 15 -960 15 l-960 0 0 -2190z"/>
<path d="M2550 4365 c0 -12 13 -15 59 -15 33 0 63 -4 66 -10 3 -5 22 -10 41
-10 19 0 34 -4 34 -10 0 -5 18 -10 40 -10 22 0 40 -4 40 -10 0 -5 14 -10 30
-10 17 0 30 -4 30 -10 0 -5 14 -10 30 -10 17 0 30 -4 30 -10 0 -5 14 -10 30
-10 17 0 30 -4 30 -10 0 -5 14 -10 30 -10 17 0 30 -4 30 -10 0 -5 9 -10 20
-10 11 0 20 -4 20 -10 0 -5 9 -10 20 -10 11 0 20 -4 20 -10 0 -5 14 -10 30
-10 17 0 30 -4 30 -10 0 -5 9 -10 20 -10 11 0 20 -4 20 -10 0 -5 9 -10 20 -10
11 0 20 -5 20 -10 0 -6 -289 -300 -643 -653 l-643 -644 -97 99 c-53 54 -102
98 -109 98 -8 0 -20 9 -28 20 -8 11 -24 20 -37 20 -12 0 -25 5 -28 10 -3 6
-19 10 -36 10 -16 0 -29 5 -29 10 0 6 -58 10 -155 10 -97 0 -155 -4 -155 -10
0 -5 -13 -10 -30 -10 -16 0 -30 -4 -30 -10 0 -5 -9 -10 -20 -10 -11 0 -20 -4
-20 -10 0 -5 -9 -10 -20 -10 -11 0 -20 -4 -20 -10 0 -5 -7 -10 -15 -10 -20 0
-185 -165 -185 -185 0 -8 -4 -15 -10 -15 -5 0 -10 -9 -10 -20 0 -11 -4 -20
-10 -20 -5 0 -10 -9 -10 -20 0 -11 -4 -20 -10 -20 -5 0 -10 -11 -10 -24 0 -14
-4 -28 -10 -31 -5 -3 -10 -24 -10 -46 0 -21 -4 -39 -10 -39 -6 0 -10 -38 -10
-95 0 -57 4 -95 10 -95 6 0 10 -18 10 -40 0 -22 5 -40 10 -40 6 0 10 -12 10
-28 0 -16 8 -32 20 -40 11 -7 20 -21 20 -32 0 -11 5 -20 10 -20 6 0 10 -7 10
-15 0 -18 145 -165 163 -165 7 0 19 -9 27 -20 8 -11 22 -20 32 -20 10 0 18 -4
18 -10 0 -5 14 -10 30 -10 17 0 30 -4 30 -10 0 -5 14 -10 30 -10 17 0 30 -4
30 -10 0 -6 53 -10 139 -10 83 0 142 4 146 10 3 6 24 10 46 10 21 0 39 5 39
10 0 6 9 10 20 10 11 0 20 5 20 10 0 6 9 10 20 10 11 0 20 5 20 10 0 6 8 10
18 10 10 0 24 9 32 20 8 11 20 20 27 20 18 0 843 826 843 844 0 7 70 81 155
163 l155 150 23 -28 c12 -16 28 -29 35 -29 11 0 762 -744 762 -755 0 -12 -650
-655 -662 -655 -8 0 -20 -9 -28 -20 -8 -11 -18 -20 -23 -20 -12 0 -37 27 -37
40 0 16 -107 120 -125 120 -8 0 -15 5 -15 10 0 6 -6 10 -13 10 -18 0 -67 24
-67 33 0 4 -9 7 -20 7 -11 0 -20 5 -20 10 0 6 -18 10 -40 10 -22 0 -40 5 -40
10 0 6 -52 10 -135 10 -83 0 -135 -4 -135 -10 0 -5 -18 -10 -40 -10 -22 0 -40
-4 -40 -10 0 -5 -9 -10 -20 -10 -11 0 -20 -4 -20 -10 0 -5 -9 -10 -20 -10 -11
0 -20 -4 -20 -10 0 -5 -7 -10 -15 -10 -8 0 -29 -13 -47 -30 -17 -16 -35 -30
-40 -30 -14 0 -58 -48 -58 -63 0 -8 -13 -25 -30 -38 -16 -13 -30 -32 -30 -41
0 -10 -4 -18 -10 -18 -5 0 -10 -9 -10 -20 0 -11 -4 -20 -10 -20 -5 0 -10 -13
-10 -30 0 -16 -4 -30 -10 -30 -5 0 -10 -18 -10 -40 0 -22 -4 -40 -10 -40 -6 0
-10 -40 -10 -99 0 -56 4 -103 10 -106 6 -3 10 -24 10 -45 0 -21 5 -42 10 -45
6 -3 10 -17 10 -31 0 -13 5 -24 10 -24 6 0 10 -9 10 -20 0 -11 5 -20 10 -20 6
0 10 -8 10 -18 0 -10 9 -24 20 -32 11 -8 20 -20 20 -27 0 -17 106 -123 123
-123 7 0 19 -9 27 -20 8 -11 22 -20 32 -20 10 0 18 -4 18 -10 0 -5 9 -10 20
-10 11 0 20 -4 20 -10 0 -5 14 -10 30 -10 17 0 30 -4 30 -10 0 -5 23 -10 50
-10 28 0 50 -4 50 -10 0 -6 32 -10 75 -10 43 0 75 4 75 10 0 6 23 10 50 10 28
0 50 5 50 10 0 6 14 10 30 10 17 0 30 5 30 10 0 6 9 10 20 10 11 0 20 5 20 10
0 6 9 10 20 10 11 0 20 5 20 10 0 6 8 10 18 10 10 0 24 9 32 20 8 11 20 20 27
20 15 0 243 225 243 240 0 14 927 940 940 940 6 0 60 50 121 111 l109 111 0
-146 c0 -91 -4 -146 -10 -146 -6 0 -10 -36 -10 -89 0 -50 -4 -93 -10 -96 -5
-3 -10 -26 -10 -51 0 -24 -4 -44 -10 -44 -5 0 -10 -22 -10 -50 0 -27 -4 -50
-10 -50 -5 0 -10 -18 -10 -40 0 -22 -4 -40 -10 -40 -5 0 -10 -13 -10 -30 0
-16 -4 -30 -10 -30 -5 0 -10 -13 -10 -30 0 -16 -4 -30 -10 -30 -5 0 -10 -13
-10 -30 0 -16 -4 -30 -10 -30 -5 0 -10 -9 -10 -20 0 -11 -4 -20 -10 -20 -5 0
-10 -13 -10 -30 0 -16 -4 -30 -10 -30 -5 0 -10 -9 -10 -20 0 -11 -4 -20 -10
-20 -5 0 -10 -9 -10 -20 0 -11 -4 -20 -10 -20 -5 0 -10 -9 -10 -20 0 -11 -4
-20 -10 -20 -5 0 -10 -9 -10 -20 0 -11 -4 -20 -10 -20 -5 0 -10 -6 -10 -13 0
-7 -9 -23 -20 -35 -11 -12 -20 -28 -20 -37 0 -8 -4 -15 -10 -15 -5 0 -10 -8
-10 -19 0 -10 -13 -29 -30 -42 -16 -13 -30 -30 -30 -37 0 -8 -13 -27 -30 -42
-17 -15 -30 -33 -30 -40 0 -6 -27 -38 -60 -70 -33 -32 -60 -65 -60 -72 0 -17
-61 -78 -78 -78 -7 0 -44 -31 -82 -70 -38 -38 -74 -70 -80 -70 -5 0 -29 -18
-51 -40 -23 -22 -47 -40 -53 -40 -6 0 -18 -9 -26 -20 -8 -11 -21 -20 -30 -20
-9 0 -22 -9 -30 -20 -8 -11 -20 -20 -28 -20 -7 0 -22 -9 -34 -20 -12 -11 -28
-20 -35 -20 -7 0 -13 -4 -13 -10 0 -5 -9 -10 -20 -10 -11 0 -20 -4 -20 -10 0
-5 -9 -10 -20 -10 -11 0 -20 -4 -20 -10 0 -5 -9 -10 -20 -10 -11 0 -20 -4 -20
-10 0 -5 -9 -10 -20 -10 -11 0 -20 -4 -20 -10 0 -5 -9 -10 -20 -10 -11 0 -20
-4 -20 -10 0 -5 -9 -10 -20 -10 -11 0 -20 -4 -20 -10 0 -5 -13 -10 -30 -10
-16 0 -30 -4 -30 -10 0 -5 -13 -10 -30 -10 -16 0 -30 -3 -30 -7 0 -13 -53 -33
-87 -33 -18 0 -33 -4 -33 -10 0 -5 -18 -10 -40 -10 -22 0 -40 -4 -40 -10 0 -5
-18 -10 -40 -10 -22 0 -40 -4 -40 -10 0 -5 -22 -10 -50 -10 -27 0 -50 -4 -50
-10 0 -7 2912 -10 8715 -10 l8715 0 0 2190 0 2190 -8725 0 c-7749 0 -8725 -2
-8725 -15z m5740 -1065 c0 -5 9 -10 20 -10 13 0 20 -7 20 -20 0 -11 3 -20 8
-20 11 0 32 -51 32 -77 0 -13 5 -23 10 -23 6 0 10 -13 10 -30 0 -16 5 -30 10
-30 6 0 10 -9 10 -20 0 -11 5 -20 10 -20 6 0 10 -13 10 -30 0 -16 3 -30 8 -30
11 0 32 -51 32 -77 0 -13 5 -23 10 -23 6 0 10 -13 10 -30 0 -16 5 -30 10 -30
6 0 10 -13 10 -30 0 -16 3 -30 8 -30 11 0 32 -51 32 -77 0 -13 5 -23 10 -23 6
0 10 -11 10 -24 0 -14 5 -28 10 -31 6 -3 10 -24 10 -46 0 -21 5 -39 10 -39 6
0 10 -13 10 -30 0 -16 5 -30 10 -30 6 0 10 -13 10 -30 0 -16 5 -30 10 -30 6 0
10 -13 10 -30 0 -16 5 -30 10 -30 6 0 10 -11 10 -24 0 -14 5 -28 10 -31 6 -3
10 -24 10 -46 0 -21 5 -39 10 -39 6 0 10 -13 10 -30 0 -16 5 -30 10 -30 6 0
10 -13 10 -30 0 -16 5 -30 10 -30 6 0 10 -13 10 -30 0 -16 5 -30 10 -30 6 0
10 -13 10 -30 0 -16 5 -30 10 -30 6 0 10 -13 10 -30 0 -16 5 -30 10 -30 6 0
10 -13 10 -30 0 -16 5 -30 10 -30 6 0 10 -13 10 -30 0 -16 5 -30 10 -30 6 0
10 -13 10 -30 0 -16 5 -30 10 -30 6 0 10 -13 10 -30 0 -16 5 -30 10 -30 6 0
10 -13 10 -30 0 -16 5 -30 10 -30 6 0 10 -13 10 -30 0 -16 5 -30 10 -30 6 0
10 -13 10 -30 0 -16 3 -30 8 -30 12 0 32 -53 32 -87 0 -18 5 -33 10 -33 6 0
10 -8 10 -18 0 -9 9 -23 20 -30 14 -8 20 -23 20 -47 0 -31 -3 -35 -25 -35 -24
0 -33 -3 -82 -28 -13 -7 -39 -12 -58 -12 -19 0 -35 -4 -35 -10 0 -5 -13 -10
-30 -10 -16 0 -30 -4 -30 -10 0 -5 -13 -10 -30 -10 -16 0 -30 -3 -30 -7 0 -12
-51 -33 -77 -33 -13 0 -23 -4 -23 -10 0 -5 -13 -10 -30 -10 -16 0 -30 -4 -30
-10 0 -6 -28 -10 -65 -10 -58 0 -65 2 -65 20 0 11 -4 20 -10 20 -5 0 -10 14
-10 30 0 17 -4 30 -10 30 -5 0 -10 14 -10 30 0 17 -4 30 -10 30 -5 0 -10 14
-10 30 0 17 -4 30 -10 30 -5 0 -10 14 -10 30 0 17 -4 30 -10 30 -5 0 -10 11
-10 24 0 14 -4 28 -10 31 -5 3 -10 13 -10 21 0 42 -16 44 -315 44 -300 0 -315
-2 -315 -44 0 -9 -4 -16 -10 -16 -5 0 -10 -13 -10 -30 0 -16 -4 -30 -10 -30
-5 0 -10 -9 -10 -20 0 -11 -4 -20 -10 -20 -5 0 -10 -13 -10 -30 0 -16 -4 -30
-10 -30 -5 0 -10 -9 -10 -20 0 -11 -4 -20 -10 -20 -5 0 -10 -10 -10 -23 0 -26
-21 -77 -32 -77 -5 0 -8 -9 -8 -20 0 -17 -7 -20 -45 -20 -25 0 -45 5 -45 10 0
6 -13 10 -30 10 -16 0 -30 5 -30 10 0 6 -9 10 -20 10 -11 0 -20 5 -20 10 0 6
-10 10 -23 10 -26 0 -77 21 -77 33 0 4 -9 7 -20 7 -11 0 -25 9 -32 20 -7 11
-21 20 -30 20 -10 0 -18 5 -18 10 0 6 -7 10 -16 10 -8 0 -22 6 -30 14 -16 17
-19 56 -4 56 6 0 10 9 10 20 0 11 5 20 10 20 6 0 10 14 10 30 0 17 5 30 10 30
6 0 10 10 10 23 0 26 21 77 33 77 4 0 7 16 7 35 0 19 -4 35 -10 35 -5 0 -10 8
-10 18 0 10 -9 24 -20 32 -11 8 -20 22 -20 32 0 10 -4 18 -10 18 -5 0 -10 9
-10 20 0 11 -4 20 -10 20 -5 0 -10 14 -10 30 0 17 -4 30 -10 30 -5 0 -10 14
-10 30 0 17 -4 30 -10 30 -5 0 -10 20 -10 45 l0 45 146 0 c158 0 174 5 174 54
0 14 5 26 10 26 6 0 10 9 10 20 0 11 5 20 10 20 6 0 10 14 10 30 0 17 5 30 10
30 6 0 10 9 10 20 0 11 5 20 10 20 6 0 10 14 10 30 0 17 5 30 10 30 6 0 10 9
10 20 0 11 5 20 10 20 6 0 10 14 10 30 0 17 5 30 10 30 6 0 10 9 10 20 0 11 5
20 10 20 6 0 10 14 10 30 0 17 5 30 10 30 6 0 10 10 10 23 0 26 21 77 33 77 4
0 7 14 7 30 0 17 5 30 10 30 6 0 10 14 10 30 0 17 5 30 10 30 6 0 10 14 10 30
0 17 5 30 10 30 6 0 10 11 10 24 0 14 5 28 10 31 6 3 10 15 10 26 0 10 5 19
10 19 6 0 10 14 10 30 0 17 5 30 10 30 6 0 10 9 10 20 0 11 5 20 10 20 6 0 10
11 10 24 0 14 5 28 10 31 6 3 10 15 10 26 0 10 5 19 10 19 6 0 10 9 10 20 0
11 5 20 10 20 6 0 10 14 10 30 0 17 5 30 10 30 6 0 10 9 10 20 0 11 5 20 10
20 6 0 10 7 10 15 0 20 45 65 65 65 8 0 15 5 15 10 0 6 9 10 20 10 11 0 20 5
20 10 0 6 18 10 40 10 22 0 40 5 40 10 0 6 11 10 24 10 14 0 28 5 31 10 3 6
28 10 56 10 27 0 49 5 49 10 0 6 25 10 55 10 30 0 55 -4 55 -10z m3357 -12
c13 -13 23 -33 23 -50 0 -15 5 -28 10 -28 6 0 10 -13 10 -30 0 -16 5 -30 10
-30 6 0 10 -9 10 -20 0 -11 5 -20 10 -20 6 0 10 -13 10 -30 0 -16 5 -30 10
-30 6 0 10 -13 10 -30 0 -16 5 -30 10 -30 6 0 10 -9 10 -20 0 -11 5 -20 10
-20 6 0 10 -13 10 -30 0 -16 3 -30 8 -30 11 0 32 -51 32 -77 0 -13 5 -23 10
-23 6 0 10 -13 10 -30 0 -16 5 -30 10 -30 6 0 10 -13 10 -30 0 -16 5 -30 10
-30 6 0 10 -13 10 -30 0 -16 5 -30 10 -30 6 0 10 -13 10 -30 0 -16 5 -30 10
-30 6 0 10 -11 10 -24 0 -14 5 -28 10 -31 6 -3 10 -24 10 -46 0 -21 5 -39 10
-39 6 0 10 -13 10 -30 0 -16 5 -30 10 -30 6 0 10 -13 10 -30 0 -16 5 -30 10
-30 6 0 10 -13 10 -30 0 -16 5 -30 10 -30 6 0 10 -18 10 -40 0 -22 5 -40 10
-40 6 0 10 -13 10 -30 0 -16 5 -30 10 -30 6 0 10 -13 10 -30 0 -16 5 -30 10
-30 6 0 10 -13 10 -30 0 -16 5 -30 10 -30 6 0 10 -13 10 -30 0 -16 5 -30 10
-30 6 0 10 -13 10 -30 0 -16 5 -30 10 -30 6 0 10 -13 10 -30 0 -16 5 -30 10
-30 6 0 10 -13 10 -30 0 -16 3 -30 8 -30 10 0 32 -50 32 -71 0 -10 5 -21 10
-24 6 -3 10 -19 10 -36 0 -16 5 -29 10 -29 6 0 10 -13 10 -30 0 -16 5 -30 10
-30 6 0 10 -13 10 -30 0 -16 5 -30 10 -30 6 0 10 -11 10 -24 0 -14 5 -28 10
-31 6 -3 10 -18 10 -33 0 -16 8 -34 20 -42 13 -9 20 -26 20 -47 0 -30 -3 -33
-30 -33 -16 0 -30 -4 -30 -10 0 -5 -13 -10 -30 -10 -16 0 -30 -4 -30 -10 0 -5
-11 -10 -25 -10 -24 0 -33 -3 -82 -28 -13 -7 -32 -12 -42 -12 -11 0 -23 -4
-26 -10 -3 -5 -19 -10 -36 -10 -16 0 -29 -4 -29 -10 0 -5 -13 -10 -30 -10 -16
0 -30 -4 -30 -10 0 -5 -13 -10 -30 -10 -16 0 -30 -4 -30 -10 0 -6 -27 -10 -62
-10 -59 0 -64 2 -75 27 -7 15 -13 37 -13 49 0 13 -4 26 -10 29 -5 3 -10 17
-10 31 0 13 -4 24 -10 24 -5 0 -10 14 -10 30 0 17 -4 30 -10 30 -5 0 -10 14
-10 30 0 17 -4 30 -10 30 -5 0 -10 16 -10 35 0 25 -8 44 -25 60 l-24 25 -286
0 c-303 0 -315 -2 -315 -47 0 -23 -22 -73 -32 -73 -5 0 -8 -13 -8 -30 0 -16
-4 -30 -10 -30 -5 0 -10 -9 -10 -20 0 -11 -4 -20 -10 -20 -5 0 -10 -10 -10
-23 0 -26 -21 -77 -32 -77 -5 0 -8 -9 -8 -20 0 -11 -4 -20 -10 -20 -5 0 -10
-9 -10 -20 0 -17 -7 -20 -45 -20 -25 0 -45 5 -45 10 0 6 -13 10 -30 10 -16 0
-30 5 -30 10 0 6 -9 10 -20 10 -11 0 -20 5 -20 10 0 6 -9 10 -20 10 -11 0 -20
5 -20 10 0 6 -13 10 -30 10 -19 0 -34 7 -42 20 -7 11 -21 20 -30 20 -10 0 -18
5 -18 10 0 6 -9 10 -20 10 -11 0 -20 5 -20 10 0 6 -7 10 -16 10 -8 0 -22 6
-30 14 -16 17 -19 56 -4 56 6 0 10 9 10 20 0 11 5 20 10 20 6 0 10 9 10 20 0
11 5 20 10 20 6 0 10 14 10 30 0 17 5 30 10 30 6 0 10 14 10 30 0 17 5 30 10
30 6 0 10 16 10 35 0 19 -4 35 -10 35 -5 0 -10 9 -10 20 0 11 -4 20 -10 20 -5
0 -10 9 -10 19 0 11 -4 21 -8 23 -18 7 -52 68 -52 92 0 14 -4 26 -10 26 -5 0
-10 11 -10 24 0 14 -4 28 -10 31 -5 3 -10 26 -10 51 l0 44 146 0 c151 0 174 6
174 44 0 9 5 16 10 16 6 0 10 14 10 30 0 17 5 30 10 30 6 0 10 9 10 20 0 11 5
20 10 20 6 0 10 14 10 30 0 17 5 30 10 30 6 0 10 9 10 20 0 11 5 20 10 20 6 0
10 14 10 30 0 17 5 30 10 30 6 0 10 9 10 20 0 11 5 20 10 20 6 0 10 14 10 30
0 17 5 30 10 30 6 0 10 10 10 23 0 26 21 77 33 77 4 0 7 14 7 30 0 17 5 30 10
30 6 0 10 14 10 30 0 17 5 30 10 30 6 0 10 14 10 30 0 17 5 30 10 30 6 0 10 9
10 20 0 11 5 20 10 20 6 0 10 14 10 30 0 17 5 30 10 30 6 0 10 14 10 30 0 17
5 30 10 30 6 0 10 9 10 20 0 11 5 20 10 20 6 0 10 14 10 30 0 17 5 30 10 30 6
0 10 9 10 20 0 11 5 20 10 20 6 0 10 14 10 30 0 17 5 30 10 30 6 0 10 9 10 20
0 11 5 20 10 20 6 0 10 9 10 20 0 11 5 20 10 20 6 0 10 14 10 30 0 17 5 30 10
30 6 0 10 7 10 15 0 20 45 65 65 65 8 0 15 5 15 10 0 6 9 10 19 10 11 0 23 5
26 10 3 6 22 10 41 10 19 0 34 5 34 10 0 6 18 10 40 10 22 0 40 5 40 10 0 6
18 10 40 10 22 0 40 5 40 10 0 6 27 10 62 10 50 0 66 -4 85 -22z m3558 -3 c14
-13 25 -31 25 -40 0 -8 5 -15 10 -15 6 0 10 -13 10 -30 0 -16 3 -30 8 -30 11
0 32 -51 32 -77 0 -13 5 -23 10 -23 6 0 10 -13 10 -30 0 -16 5 -30 10 -30 6 0
10 -9 10 -19 0 -11 5 -23 10 -26 6 -3 10 -17 10 -31 0 -13 5 -24 10 -24 6 0
10 -13 10 -30 0 -16 3 -30 8 -30 11 0 32 -51 32 -77 0 -13 5 -23 10 -23 6 0
10 -13 10 -30 0 -16 5 -30 10 -30 6 0 10 -13 10 -30 0 -16 5 -30 10 -30 6 0
10 -13 10 -30 0 -16 5 -30 10 -30 6 0 10 -11 10 -24 0 -14 5 -28 10 -31 6 -3
10 -24 10 -46 0 -21 5 -39 10 -39 6 0 10 -13 10 -30 0 -16 5 -30 10 -30 6 0
10 -13 10 -30 0 -16 5 -30 10 -30 6 0 10 -13 10 -30 0 -16 5 -30 10 -30 6 0
10 -18 10 -40 0 -22 5 -40 10 -40 6 0 10 -13 10 -30 0 -16 5 -30 10 -30 6 0
10 -13 10 -30 0 -16 5 -30 10 -30 6 0 10 -13 10 -30 0 -16 5 -30 10 -30 6 0
10 -13 10 -30 0 -16 5 -30 10 -30 6 0 10 -13 10 -30 0 -16 5 -30 10 -30 6 0
10 -13 10 -30 0 -16 5 -30 10 -30 6 0 10 -13 10 -30 0 -16 5 -30 10 -30 6 0
10 -13 10 -30 0 -16 3 -30 8 -30 10 0 32 -50 32 -71 0 -10 5 -21 10 -24 6 -3
10 -19 10 -35 0 -16 5 -32 10 -35 6 -3 10 -17 10 -31 0 -13 5 -24 10 -24 6 0
10 -18 10 -40 0 -22 5 -40 10 -40 6 0 10 -9 10 -20 0 -11 5 -20 10 -20 6 0 10
-8 10 -18 0 -10 9 -24 20 -32 11 -8 20 -18 20 -23 0 -17 -29 -37 -54 -37 -14
0 -26 -4 -26 -10 0 -5 -13 -10 -30 -10 -16 0 -30 -4 -30 -10 0 -5 -13 -10 -30
-10 -16 0 -30 -4 -30 -10 0 -5 -13 -10 -30 -10 -16 0 -30 -4 -30 -10 0 -5 -13
-10 -30 -10 -16 0 -30 -4 -30 -10 0 -5 -13 -10 -30 -10 -16 0 -30 -4 -30 -10
0 -5 -13 -10 -30 -10 -16 0 -30 -4 -30 -10 0 -5 -13 -10 -30 -10 -16 0 -30 -4
-30 -10 0 -5 -23 -10 -51 -10 -52 0 -79 15 -79 44 0 9 -4 16 -10 16 -5 0 -10
14 -10 30 0 17 -4 30 -10 30 -5 0 -10 14 -10 30 0 17 -4 30 -10 30 -5 0 -10
14 -10 30 0 17 -4 30 -10 30 -5 0 -10 14 -10 30 0 17 -4 30 -10 30 -5 0 -10
18 -10 40 0 33 -3 40 -20 40 -11 0 -20 5 -20 10 0 6 -105 10 -295 10 -288 0
-295 0 -295 -20 0 -11 -4 -20 -10 -20 -5 0 -10 -9 -10 -20 0 -11 -4 -20 -10
-20 -5 0 -10 -13 -10 -30 0 -16 -4 -30 -10 -30 -5 0 -10 -10 -10 -23 0 -26
-21 -77 -32 -77 -5 0 -8 -9 -8 -20 0 -11 -4 -20 -10 -20 -5 0 -10 -11 -10 -25
0 -25 -15 -58 -37 -82 -14 -15 -93 -18 -93 -3 0 6 -9 10 -20 10 -11 0 -20 5
-20 10 0 6 -13 10 -30 10 -16 0 -30 5 -30 10 0 6 -9 10 -20 10 -11 0 -20 5
-20 10 0 6 -9 10 -20 10 -11 0 -20 5 -20 10 0 6 -9 10 -20 10 -11 0 -20 5 -20
10 0 6 -9 10 -20 10 -11 0 -20 5 -20 10 0 6 -8 10 -18 10 -10 0 -24 9 -32 20
-8 11 -22 20 -32 20 -10 0 -18 7 -18 15 0 8 5 15 10 15 6 0 10 9 10 20 0 11 5
20 10 20 6 0 10 14 10 30 0 17 5 30 10 30 6 0 10 9 10 20 0 11 5 20 10 20 6 0
10 14 10 30 0 17 5 30 10 30 6 0 10 9 10 20 0 11 5 20 10 20 6 0 10 7 10 15 0
8 -4 15 -10 15 -5 0 -10 8 -10 18 0 10 -9 24 -20 32 -11 8 -20 22 -20 32 0 10
-4 18 -10 18 -5 0 -10 9 -10 20 0 11 -4 20 -10 20 -5 0 -10 9 -10 20 0 11 -4
20 -10 20 -5 0 -10 14 -10 30 0 17 -4 30 -10 30 -5 0 -10 15 -10 34 0 19 -4
38 -10 41 -5 3 -10 17 -10 31 l0 24 160 0 160 0 0 23 c0 26 21 77 33 77 4 0 7
14 7 30 0 17 5 30 10 30 6 0 10 9 10 20 0 11 5 20 10 20 6 0 10 14 10 30 0 17
5 30 10 30 6 0 10 9 10 20 0 11 5 20 10 20 6 0 10 14 10 30 0 17 5 30 10 30 6
0 10 9 10 20 0 11 5 20 10 20 6 0 10 14 10 30 0 17 5 30 10 30 6 0 10 9 10 20
0 11 5 20 10 20 6 0 10 14 10 30 0 17 5 30 10 30 6 0 10 14 10 30 0 17 5 30
10 30 6 0 10 14 10 30 0 17 5 30 10 30 6 0 10 11 10 24 0 14 5 28 10 31 6 3
10 15 10 26 0 10 5 19 10 19 6 0 10 14 10 30 0 17 5 30 10 30 6 0 10 14 10 30
0 17 5 30 10 30 6 0 10 9 10 20 0 11 5 20 10 20 6 0 10 14 10 30 0 17 5 30 10
30 6 0 10 9 10 20 0 11 5 20 10 20 6 0 10 9 10 20 0 11 5 20 10 20 6 0 10 14
10 30 0 17 5 30 10 30 6 0 10 9 10 20 0 11 5 20 10 20 6 0 10 9 10 20 0 11 5
20 10 20 6 0 10 7 10 16 0 20 24 44 44 44 9 0 16 5 16 10 0 6 14 10 30 10 17
0 30 5 30 10 0 6 14 10 30 10 17 0 30 5 30 10 0 6 18 10 40 10 22 0 40 5 40
10 0 6 15 10 34 10 19 0 38 5 41 10 3 6 33 10 66 10 50 0 64 -4 84 -25z m4005
15 c0 -5 9 -10 20 -10 13 0 20 -7 20 -20 0 -11 5 -20 10 -20 6 0 10 -13 10
-30 0 -16 5 -30 10 -30 6 0 10 -9 10 -20 0 -11 5 -20 10 -20 6 0 10 -13 10
-30 0 -16 3 -30 8 -30 11 0 32 -51 32 -77 0 -13 5 -23 10 -23 6 0 10 -13 10
-30 0 -16 5 -30 10 -30 6 0 10 -9 10 -20 0 -11 5 -20 10 -20 6 0 10 -13 10
-30 0 -16 5 -30 10 -30 6 0 10 -13 10 -30 0 -16 5 -30 10 -30 6 0 10 -13 10
-30 0 -16 5 -30 10 -30 6 0 10 -13 10 -30 0 -16 5 -30 10 -30 6 0 10 -13 10
-30 0 -16 5 -30 10 -30 6 0 10 -13 10 -30 0 -16 5 -30 10 -30 6 0 10 -13 10
-30 0 -16 5 -30 10 -30 6 0 10 -13 10 -30 0 -16 5 -30 10 -30 6 0 10 -11 10
-24 0 -14 5 -28 10 -31 6 -3 10 -24 10 -46 0 -21 5 -39 10 -39 6 0 10 -13 10
-30 0 -16 5 -30 10 -30 6 0 10 -13 10 -30 0 -16 5 -30 10 -30 6 0 10 -13 10
-30 0 -16 5 -30 10 -30 6 0 10 -13 10 -30 0 -16 5 -30 10 -30 6 0 10 -13 10
-30 0 -16 5 -30 10 -30 6 0 10 -13 10 -30 0 -16 5 -30 10 -30 6 0 10 -13 10
-30 0 -16 5 -30 10 -30 6 0 10 -13 10 -30 0 -16 5 -30 10 -30 6 0 10 -13 10
-30 0 -16 5 -30 10 -30 6 0 10 -13 10 -30 0 -16 5 -30 10 -30 6 0 10 -13 10
-30 0 -16 5 -30 10 -30 6 0 10 -13 10 -30 0 -16 5 -30 10 -30 6 0 10 -13 10
-30 0 -16 5 -30 10 -30 6 0 10 -13 10 -30 0 -16 5 -30 10 -30 6 0 10 -13 10
-30 0 -16 5 -30 10 -30 6 0 10 -9 10 -20 0 -11 5 -20 10 -20 6 0 10 -9 10 -20
0 -11 5 -20 10 -20 6 0 10 -5 10 -11 0 -21 -57 -59 -89 -59 -11 0 -23 -4 -26
-10 -3 -5 -24 -10 -46 -10 -21 0 -39 -4 -39 -10 0 -5 -13 -10 -30 -10 -16 0
-30 -4 -30 -10 0 -5 -13 -10 -30 -10 -16 0 -30 -4 -30 -10 0 -5 -13 -10 -30
-10 -16 0 -30 -4 -30 -10 0 -5 -7 -10 -15 -10 -8 0 -24 -4 -35 -10 -11 -5 -29
-15 -40 -20 -11 -6 -47 -10 -80 -10 -53 0 -60 2 -60 20 0 11 -4 20 -10 20 -5
0 -10 14 -10 30 0 17 -4 30 -10 30 -5 0 -10 14 -10 30 0 17 -3 30 -7 30 -12 0
-33 51 -33 76 0 13 -4 26 -10 29 -5 3 -10 22 -10 41 0 19 -4 34 -10 34 -5 0
-10 7 -10 16 0 42 -14 44 -329 44 l-301 0 0 -30 c0 -16 -4 -30 -10 -30 -5 0
-10 -13 -10 -30 0 -16 -4 -30 -10 -30 -5 0 -10 -9 -10 -20 0 -11 -4 -20 -10
-20 -5 0 -10 -13 -10 -30 0 -16 -4 -30 -10 -30 -5 0 -10 -9 -10 -20 0 -11 -4
-20 -10 -20 -5 0 -10 -9 -10 -20 0 -11 -4 -20 -10 -20 -5 0 -10 -13 -10 -30 0
-16 -4 -30 -10 -30 -5 0 -10 -9 -10 -20 0 -17 -7 -20 -45 -20 -25 0 -45 5 -45
10 0 6 -13 10 -30 10 -16 0 -30 5 -30 10 0 6 -9 10 -20 10 -11 0 -20 5 -20 10
0 6 -10 10 -23 10 -26 0 -77 21 -77 33 0 4 -8 7 -18 7 -10 0 -24 9 -32 20 -8
11 -22 20 -32 20 -10 0 -18 5 -18 10 0 6 -7 10 -16 10 -8 0 -22 6 -30 14 -16
17 -19 56 -4 56 6 0 10 9 10 20 0 11 5 20 10 20 6 0 10 14 10 30 0 17 5 30 10
30 6 0 10 14 10 30 0 17 5 30 10 30 6 0 10 9 10 20 0 11 5 20 10 20 6 0 10 16
10 35 0 19 -4 35 -10 35 -5 0 -10 8 -10 18 0 10 -9 24 -20 32 -11 8 -20 22
-20 32 0 10 -4 18 -10 18 -5 0 -10 9 -10 20 0 11 -4 20 -10 20 -5 0 -10 7 -10
15 0 15 -4 25 -28 72 -7 13 -12 45 -12 73 l0 50 146 0 c158 0 174 5 174 54 0
14 5 26 10 26 6 0 10 9 10 20 0 11 5 20 10 20 6 0 10 14 10 30 0 17 5 30 10
30 6 0 10 9 10 20 0 11 5 20 10 20 6 0 10 14 10 30 0 17 5 30 10 30 6 0 10 9
10 20 0 11 5 20 10 20 6 0 10 14 10 30 0 17 5 30 10 30 6 0 10 9 10 20 0 11 5
20 10 20 6 0 10 14 10 30 0 17 5 30 10 30 6 0 10 14 10 30 0 17 5 30 10 30 6
0 10 10 10 23 0 26 21 77 33 77 4 0 7 14 7 30 0 17 5 30 10 30 6 0 10 14 10
30 0 17 5 30 10 30 6 0 10 14 10 30 0 17 5 30 10 30 6 0 10 9 10 20 0 11 5 20
10 20 6 0 10 14 10 30 0 17 5 30 10 30 6 0 10 9 10 20 0 11 5 20 10 20 6 0 10
14 10 30 0 17 5 30 10 30 6 0 10 9 10 20 0 11 5 20 10 20 6 0 10 10 10 23 0
26 21 77 33 77 4 0 7 9 7 20 0 11 5 20 10 20 6 0 10 7 10 15 0 27 63 85 92 85
16 0 28 5 28 10 0 6 18 10 40 10 22 0 40 5 40 10 0 6 11 10 24 10 14 0 28 5
31 10 3 6 28 10 56 10 27 0 49 5 49 10 0 6 25 10 55 10 30 0 55 -4 55 -10z
m-13334 -24 c16 -17 20 -116 4 -116 -6 0 -10 -50 -10 -130 0 -80 -4 -130 -10
-130 -6 0 -10 -40 -10 -99 0 -56 -4 -103 -10 -106 -5 -3 -10 -31 -10 -61 0
-30 -4 -54 -10 -54 -6 0 -10 -33 -10 -80 0 -47 -4 -80 -10 -80 -5 0 -10 -7
-10 -15 0 -13 34 -15 247 -15 215 0 249 2 265 17 15 14 18 32 18 129 0 64 4
115 10 119 6 3 10 44 10 91 0 49 4 84 10 84 6 0 10 56 10 148 0 146 0 149 25
170 14 12 36 22 50 22 14 0 25 5 25 10 0 6 15 10 34 10 19 0 38 5 41 10 3 6
28 10 56 10 27 0 49 5 49 10 0 6 18 10 40 10 22 0 40 5 40 10 0 6 18 10 40 10
22 0 40 5 40 10 0 6 18 10 40 10 22 0 40 5 40 10 0 6 25 10 55 10 l55 0 0
-105 c0 -63 -4 -105 -10 -105 -6 0 -10 -50 -10 -130 0 -80 -4 -130 -10 -130
-6 0 -10 -33 -10 -79 0 -44 -4 -83 -10 -86 -5 -3 -10 -31 -10 -61 0 -30 -4
-54 -10 -54 -6 0 -10 -36 -10 -89 0 -50 -4 -93 -10 -96 -5 -3 -10 -44 -10 -91
0 -49 -4 -84 -10 -84 -6 0 -10 -43 -10 -110 0 -67 -4 -110 -10 -110 -6 0 -10
-43 -10 -109 0 -63 -4 -112 -10 -116 -6 -3 -10 -48 -10 -101 0 -56 -4 -94 -10
-94 -6 0 -10 -43 -10 -109 0 -63 -4 -112 -10 -116 -5 -3 -10 -21 -10 -39 0
-39 -15 -56 -52 -56 -15 0 -28 -4 -28 -10 0 -5 -13 -10 -30 -10 -16 0 -30 -4
-30 -10 0 -5 -9 -10 -19 -10 -11 0 -23 -4 -26 -10 -3 -5 -17 -10 -31 -10 -13
0 -24 -4 -24 -10 0 -5 -13 -10 -30 -10 -16 0 -30 -4 -30 -10 0 -5 -13 -10 -30
-10 -16 0 -30 -4 -30 -10 0 -5 -13 -10 -30 -10 -16 0 -30 -4 -30 -10 0 -5 -11
-10 -24 -10 -14 0 -28 -4 -31 -10 -9 -15 -64 -12 -81 4 -11 12 -14 52 -14 195
0 114 4 181 10 181 6 0 10 40 10 100 0 60 4 100 10 100 6 0 10 43 10 110 0 67
4 110 10 110 6 0 10 7 10 15 0 13 -36 15 -265 15 l-265 0 0 -70 c0 -40 -4 -70
-10 -70 -6 0 -10 -43 -10 -110 0 -67 -4 -110 -10 -110 -6 0 -10 -43 -10 -109
0 -63 -4 -112 -10 -116 -5 -3 -10 -21 -10 -39 0 -39 -15 -56 -52 -56 -15 0
-28 -4 -28 -10 0 -5 -13 -10 -30 -10 -16 0 -30 -4 -30 -10 0 -5 -13 -10 -30
-10 -16 0 -30 -4 -30 -10 0 -5 -13 -10 -30 -10 -16 0 -30 -3 -30 -7 0 -12 -51
-33 -77 -33 -13 0 -23 -4 -23 -10 0 -5 -13 -10 -30 -10 -16 0 -30 -4 -30 -10
0 -5 -13 -10 -30 -10 -16 0 -30 -4 -30 -10 0 -15 -60 -12 -76 4 -11 12 -14 54
-14 210 0 119 4 197 10 201 6 4 10 53 10 116 0 66 4 109 10 109 6 0 10 38 10
95 l0 95 -80 0 c-47 0 -80 4 -80 10 0 6 -7 10 -16 10 -25 0 -49 29 -35 43 6 6
11 18 11 27 0 8 9 22 20 30 11 8 20 22 20 32 0 10 9 23 20 30 11 7 20 21 20
30 0 10 9 23 20 30 11 7 20 21 20 30 0 10 9 23 20 30 11 7 20 20 20 28 0 9 9
22 20 30 11 8 20 21 20 30 0 9 9 22 20 30 11 8 20 22 20 32 0 10 5 18 10 18 6
0 10 43 10 109 0 63 4 112 10 116 6 4 10 55 10 120 0 65 4 116 10 120 6 3 10
52 10 111 0 63 4 104 10 104 6 0 10 21 10 46 0 52 16 74 54 74 14 0 26 5 26
10 0 6 18 10 39 10 22 0 43 5 46 10 3 6 19 10 35 10 16 0 32 5 35 10 3 6 28
10 56 10 27 0 49 5 49 10 0 6 18 10 40 10 22 0 40 5 40 10 0 6 18 10 40 10 22
0 40 5 40 10 0 15 80 12 96 -4z m7554 4 c0 -6 27 -10 60 -10 33 0 60 -4 60
-10 0 -5 18 -10 40 -10 22 0 40 -4 40 -10 0 -5 9 -10 20 -10 11 0 20 -4 20
-10 0 -5 9 -10 20 -10 11 0 20 -4 20 -10 0 -5 7 -10 15 -10 9 0 27 -11 40 -25
24 -23 25 -29 25 -164 0 -82 4 -142 10 -146 17 -10 13 -224 -4 -241 -26 -25
-46 -15 -116 56 -38 39 -75 70 -82 70 -8 0 -20 9 -28 20 -8 11 -22 20 -32 20
-10 0 -18 5 -18 10 0 6 -13 10 -29 10 -17 0 -33 5 -36 10 -3 6 -17 10 -31 10
-13 0 -24 5 -24 10 0 6 -22 10 -49 10 -28 0 -53 -4 -56 -10 -3 -5 -24 -10 -46
-10 -21 0 -39 -4 -39 -10 0 -5 -7 -10 -16 -10 -20 0 -44 -24 -44 -44 0 -8 -4
-18 -10 -21 -5 -3 -10 -35 -10 -71 0 -60 2 -67 33 -97 17 -18 44 -38 60 -46
15 -8 27 -18 27 -23 0 -4 9 -8 20 -8 11 0 25 -9 32 -20 7 -11 20 -20 29 -20 9
0 27 -13 40 -30 13 -16 31 -30 39 -30 9 0 22 -9 30 -20 8 -11 21 -20 30 -20 9
0 22 -9 30 -20 8 -11 21 -20 28 -20 8 0 27 -13 42 -30 15 -16 32 -30 37 -30
15 0 103 -86 103 -100 0 -7 14 -25 30 -40 17 -15 30 -35 30 -44 0 -9 5 -16 10
-16 6 0 10 -9 10 -20 0 -11 3 -20 8 -20 14 0 32 -54 32 -97 0 -24 5 -43 10
-43 6 0 10 -38 10 -95 0 -57 -4 -95 -10 -95 -5 0 -10 -18 -10 -40 0 -22 -4
-40 -10 -40 -5 0 -10 -13 -10 -30 0 -16 -4 -30 -10 -30 -5 0 -10 -9 -10 -20 0
-11 -4 -20 -10 -20 -5 0 -10 -8 -10 -18 0 -10 -9 -24 -20 -32 -11 -8 -20 -21
-20 -28 0 -18 -124 -142 -142 -142 -7 0 -24 -14 -37 -30 -13 -17 -32 -30 -42
-30 -11 0 -19 -4 -19 -10 0 -5 -9 -10 -20 -10 -11 0 -20 -4 -20 -10 0 -5 -9
-10 -20 -10 -11 0 -20 -4 -20 -10 0 -5 -9 -10 -19 -10 -11 0 -23 -4 -26 -10
-3 -6 -17 -10 -31 -10 -13 0 -24 -4 -24 -10 0 -5 -18 -10 -40 -10 -22 0 -40
-4 -40 -10 0 -6 -30 -10 -70 -10 -40 0 -70 -4 -70 -10 0 -6 -32 -10 -75 -10
-43 0 -75 4 -75 10 0 6 -40 10 -100 10 -60 0 -100 4 -100 10 0 6 -18 10 -40
10 -22 0 -40 5 -40 10 0 6 -13 10 -30 10 -16 0 -30 5 -30 10 0 6 -7 10 -16 10
-28 0 -44 27 -44 74 0 25 -4 46 -10 46 -6 0 -10 77 -10 210 0 133 -4 210 -10
210 -5 0 -10 7 -10 15 0 10 11 15 35 15 19 0 35 -4 35 -10 0 -5 8 -10 19 -10
10 0 29 -13 42 -30 13 -16 32 -30 42 -30 9 0 17 -4 17 -10 0 -5 9 -10 20 -10
11 0 20 -4 20 -10 0 -5 9 -10 20 -10 11 0 20 -4 20 -10 0 -5 14 -10 30 -10 17
0 30 -4 30 -10 0 -6 45 -10 115 -10 70 0 115 4 115 10 0 6 8 10 18 10 9 0 23
9 30 20 7 11 21 20 32 20 18 0 20 7 20 60 0 60 -1 61 -55 115 -30 30 -60 55
-66 55 -6 0 -28 18 -49 40 -21 22 -44 40 -50 40 -6 0 -29 18 -50 40 -21 22
-44 40 -51 40 -7 0 -34 23 -60 50 -26 28 -53 50 -61 50 -16 0 -78 66 -78 83 0
7 -9 19 -20 27 -11 8 -20 21 -20 30 0 9 -9 22 -20 30 -12 8 -20 26 -20 42 0
15 -4 28 -10 28 -5 0 -10 14 -10 30 0 17 -4 30 -10 30 -6 0 -10 68 -10 185 0
117 4 185 10 185 6 0 10 14 10 30 0 17 5 30 10 30 6 0 10 9 10 20 0 11 5 20
10 20 6 0 10 9 10 20 0 11 5 20 10 20 6 0 10 7 10 15 0 18 164 185 182 185 7
0 19 9 26 20 7 11 21 20 32 20 11 0 20 3 20 8 0 11 51 32 77 32 13 0 23 5 23
10 0 6 14 10 30 10 17 0 30 5 30 10 0 6 18 10 40 10 22 0 40 5 40 10 0 6 27
10 60 10 33 0 60 4 60 10 0 6 42 10 105 10 63 0 105 -4 105 -10z m3386 -4 c16
-17 19 -92 4 -101 -6 -4 -10 -58 -10 -131 0 -76 -4 -124 -10 -124 -6 0 -10
-50 -10 -130 0 -80 -4 -130 -10 -130 -5 0 -10 -7 -10 -15 0 -8 4 -15 10 -15
14 0 140 126 140 140 0 6 18 29 40 50 22 21 40 44 40 50 0 6 18 29 40 50 22
21 40 44 40 50 0 6 18 29 40 50 22 21 40 44 40 51 0 8 17 29 38 49 21 19 41
43 45 53 5 14 20 17 92 17 50 0 85 4 85 10 0 6 47 10 120 10 73 0 120 4 120
10 0 6 47 10 120 10 73 0 120 4 120 10 0 6 7 10 15 10 8 0 15 -4 15 -10 0 -5
9 -10 20 -10 18 0 19 -2 8 -22 -7 -13 -21 -30 -30 -39 -10 -9 -18 -23 -18 -31
0 -8 -27 -39 -60 -69 -32 -30 -59 -60 -60 -68 0 -8 -27 -40 -60 -72 -33 -31
-60 -62 -60 -69 0 -6 -22 -33 -50 -60 -27 -27 -50 -54 -50 -61 0 -7 -27 -38
-60 -70 -33 -31 -60 -62 -60 -68 0 -13 -127 -141 -140 -141 -11 0 -200 -185
-200 -196 0 -3 45 -50 100 -103 55 -54 100 -103 100 -109 0 -7 45 -57 100
-112 55 -56 100 -106 100 -111 0 -6 27 -37 60 -69 33 -32 60 -64 60 -70 0 -7
32 -42 70 -79 39 -37 70 -73 70 -80 0 -17 147 -161 165 -161 8 0 15 -4 15 -10
0 -17 -86 -100 -103 -100 -9 0 -17 -4 -17 -10 0 -5 -8 -10 -18 -10 -10 0 -24
-9 -32 -20 -8 -11 -22 -20 -32 -20 -10 0 -18 -4 -18 -10 0 -5 -9 -10 -20 -10
-11 0 -20 -4 -20 -10 0 -5 -9 -10 -20 -10 -11 0 -20 -4 -20 -10 0 -5 -9 -10
-20 -10 -11 0 -20 -4 -20 -10 0 -5 -9 -10 -20 -10 -11 0 -20 -4 -20 -10 0 -5
-13 -10 -30 -10 -16 0 -30 -4 -30 -10 0 -5 -13 -10 -29 -10 -23 0 -47 18 -115
84 -47 47 -86 90 -86 96 0 6 -18 29 -40 50 -22 21 -40 44 -40 52 0 7 -18 28
-40 47 -22 19 -40 41 -40 49 0 8 -13 27 -30 42 -16 15 -30 33 -30 40 0 6 -18
29 -40 50 -22 21 -40 44 -40 52 0 7 -18 28 -40 47 -22 19 -40 41 -40 49 0 8
-13 27 -30 42 -16 15 -30 33 -30 40 0 19 -91 100 -112 100 -11 0 -18 -7 -18
-19 0 -11 -4 -23 -10 -26 -6 -4 -10 -55 -10 -121 0 -69 -4 -114 -10 -114 -6 0
-10 -47 -10 -120 0 -73 -4 -120 -10 -120 -6 0 -10 -33 -10 -80 0 -73 -2 -80
-20 -80 -11 0 -20 -4 -20 -10 0 -5 -13 -10 -30 -10 -16 0 -30 -4 -30 -10 0 -5
-9 -10 -20 -10 -11 0 -20 -4 -20 -10 0 -5 -13 -10 -30 -10 -16 0 -30 -4 -30
-10 0 -5 -13 -10 -30 -10 -16 0 -30 -4 -30 -10 0 -5 -13 -10 -30 -10 -16 0
-30 -3 -30 -7 0 -12 -51 -33 -77 -33 -13 0 -23 -4 -23 -10 0 -5 -13 -10 -30
-10 -16 0 -30 -4 -30 -10 0 -20 -61 -10 -85 15 -25 24 -35 85 -15 85 6 0 10
50 10 130 0 80 4 130 10 130 6 0 10 53 10 139 0 83 4 142 10 146 6 4 10 62 10
141 0 83 4 134 10 134 6 0 10 56 10 149 0 89 4 152 10 156 6 4 10 62 10 141 0
83 4 134 10 134 6 0 10 57 10 150 0 93 4 150 10 150 6 0 10 53 10 138 0 149 4
162 52 162 15 0 28 5 28 10 0 6 18 10 40 10 22 0 40 5 40 10 0 6 15 10 34 10
19 0 38 5 41 10 3 6 28 10 56 10 27 0 49 5 49 10 0 6 18 10 40 10 22 0 40 5
40 10 0 6 18 10 40 10 22 0 40 5 40 10 0 16 99 12 116 -4z m-7334 -56 c7 -16
16 -30 20 -30 5 0 8 -9 8 -20 0 -11 5 -20 10 -20 6 0 10 -9 10 -20 0 -11 5
-20 10 -20 6 0 10 -9 10 -20 0 -11 5 -20 10 -20 6 0 10 -9 10 -20 0 -11 5 -20
10 -20 6 0 10 -9 10 -20 0 -11 5 -20 10 -20 6 0 10 -9 10 -20 0 -11 5 -20 10
-20 6 0 10 -9 10 -20 0 -11 5 -20 10 -20 6 0 10 -9 10 -20 0 -11 5 -20 10 -20
6 0 10 -9 10 -20 0 -11 5 -20 10 -20 6 0 10 -9 10 -20 0 -11 5 -20 10 -20 6 0
10 -9 10 -20 0 -11 5 -20 10 -20 6 0 10 -9 10 -20 0 -11 5 -20 10 -20 6 0 10
-8 10 -18 0 -9 9 -23 20 -30 11 -7 20 -21 20 -32 0 -11 5 -20 11 -20 16 0 39
26 39 44 0 9 5 16 10 16 6 0 10 9 10 20 0 11 5 20 10 20 6 0 10 9 10 20 0 11
5 20 10 20 6 0 10 9 10 20 0 11 9 25 20 32 11 7 20 21 20 30 0 10 5 18 10 18
6 0 10 9 10 20 0 11 5 20 10 20 6 0 10 9 10 20 0 11 5 20 10 20 6 0 10 6 10
13 0 7 9 23 20 35 11 12 20 28 20 37 0 8 5 15 10 15 6 0 10 9 10 20 0 11 5 20
10 20 6 0 10 7 10 16 0 23 25 44 54 44 14 0 26 5 26 10 0 6 18 10 40 10 22 0
40 5 40 10 0 6 18 10 40 10 22 0 40 5 40 10 0 6 18 10 40 10 22 0 40 5 40 10
0 6 18 10 40 10 22 0 40 5 40 10 0 6 18 10 40 10 22 0 40 5 40 10 0 6 25 10
55 10 l55 0 0 -45 c0 -34 -5 -48 -20 -57 -11 -7 -20 -21 -20 -30 0 -10 -4 -18
-10 -18 -5 0 -10 -9 -10 -20 0 -11 -4 -20 -10 -20 -5 0 -10 -9 -10 -20 0 -11
-4 -20 -10 -20 -5 0 -10 -9 -10 -20 0 -11 -4 -20 -10 -20 -5 0 -10 -9 -10 -20
0 -11 -4 -20 -10 -20 -5 0 -10 -9 -10 -20 0 -11 -9 -25 -20 -32 -11 -7 -20
-21 -20 -30 0 -10 -4 -18 -10 -18 -5 0 -10 -9 -10 -20 0 -11 -4 -20 -10 -20
-5 0 -10 -9 -10 -20 0 -11 -4 -20 -10 -20 -5 0 -10 -9 -10 -20 0 -11 -4 -20
-10 -20 -5 0 -10 -9 -10 -20 0 -11 -4 -20 -10 -20 -5 0 -10 -9 -10 -20 0 -11
-9 -25 -20 -32 -11 -7 -20 -21 -20 -30 0 -10 -4 -18 -10 -18 -5 0 -10 -9 -10
-20 0 -11 -4 -20 -10 -20 -5 0 -10 -9 -10 -20 0 -11 -4 -20 -10 -20 -5 0 -10
-9 -10 -20 0 -11 -4 -20 -10 -20 -5 0 -10 -8 -10 -18 0 -10 -9 -24 -20 -32
-11 -8 -20 -22 -20 -32 0 -10 -4 -18 -10 -18 -5 0 -10 -9 -10 -20 0 -11 -4
-20 -10 -20 -5 0 -10 -9 -10 -20 0 -11 -4 -20 -10 -20 -5 0 -10 -9 -10 -20 0
-11 -4 -20 -10 -20 -5 0 -10 -8 -10 -18 0 -10 -9 -24 -20 -32 -11 -8 -20 -22
-20 -32 0 -10 -4 -18 -10 -18 -5 0 -10 -9 -10 -20 0 -11 -4 -20 -10 -20 -5 0
-10 -9 -10 -20 0 -11 -4 -20 -10 -20 -5 0 -10 -9 -10 -20 0 -11 -9 -25 -20
-32 -16 -10 -20 -24 -20 -70 0 -32 -4 -58 -10 -58 -6 0 -10 -30 -10 -70 0 -40
-4 -70 -10 -70 -6 0 -10 -27 -10 -60 0 -33 -4 -60 -10 -60 -6 0 -10 -30 -10
-70 0 -40 -4 -70 -10 -70 -6 0 -10 -27 -10 -60 0 -33 -4 -60 -10 -60 -5 0 -10
-7 -10 -16 0 -20 -24 -44 -44 -44 -9 0 -16 -4 -16 -10 0 -5 -9 -10 -20 -10
-11 0 -20 -4 -20 -10 0 -5 -9 -10 -20 -10 -11 0 -20 -4 -20 -10 0 -5 -9 -10
-20 -10 -11 0 -20 -4 -20 -10 0 -5 -8 -10 -18 -10 -9 0 -23 -9 -30 -20 -7 -11
-18 -20 -25 -20 -18 0 -67 -24 -67 -32 0 -5 -9 -8 -20 -8 -11 0 -20 -4 -20
-10 0 -5 -9 -10 -20 -10 -11 0 -20 -4 -20 -10 0 -5 -9 -10 -20 -10 -11 0 -20
-4 -20 -10 0 -5 -13 -10 -30 -10 -16 0 -30 -4 -30 -10 0 -5 -16 -10 -35 -10
-19 0 -35 5 -35 10 0 6 -9 10 -20 10 -18 0 -20 7 -20 55 0 30 5 55 10 55 6 0
10 33 10 80 0 47 4 80 10 80 6 0 10 27 10 60 0 33 4 60 10 60 6 0 10 30 10 70
0 40 4 70 10 70 6 0 10 30 10 69 0 39 5 73 10 76 6 3 10 31 10 61 0 30 5 54
10 54 6 0 10 30 10 70 0 40 4 70 10 70 6 0 10 16 10 35 0 19 -4 35 -10 35 -5
0 -10 9 -10 20 0 11 -4 20 -10 20 -5 0 -10 9 -10 20 0 11 -4 20 -10 20 -5 0
-10 9 -10 20 0 11 -4 20 -10 20 -5 0 -10 9 -10 20 0 11 -4 20 -10 20 -5 0 -10
9 -10 19 0 11 -4 23 -10 26 -5 3 -10 17 -10 31 0 13 -4 24 -10 24 -5 0 -10 9
-10 20 0 11 -4 20 -10 20 -5 0 -10 9 -10 20 0 11 -4 20 -10 20 -5 0 -10 9 -10
20 0 11 -4 20 -10 20 -5 0 -10 9 -10 20 0 11 -4 20 -10 20 -5 0 -10 9 -10 20
0 11 -4 20 -10 20 -5 0 -10 9 -10 19 0 11 -4 23 -10 26 -5 3 -10 17 -10 31 0
13 -4 24 -10 24 -5 0 -10 9 -10 20 0 11 -4 20 -10 20 -5 0 -10 9 -10 20 0 11
-4 20 -10 20 -5 0 -10 9 -10 20 0 11 -4 20 -10 20 -5 0 -10 9 -10 20 0 11 -4
20 -10 20 -5 0 -10 9 -10 20 0 11 -4 20 -10 20 -5 0 -10 9 -10 19 0 11 -3 21
-7 23 -5 2 -18 23 -30 46 -26 50 -32 145 -10 165 24 22 57 37 82 37 14 0 25 5
25 10 0 6 9 10 20 10 11 0 20 5 20 10 0 6 14 10 30 10 17 0 30 5 30 10 0 6 9
10 20 10 11 0 20 5 20 10 0 6 14 10 30 10 17 0 30 5 30 10 0 6 9 10 20 10 11
0 20 5 20 10 0 6 24 10 54 10 51 0 55 -2 68 -30z"/>
<path d="M8030 2486 c0 -19 -4 -38 -10 -41 -5 -3 -10 -19 -10 -36 0 -16 -4
-29 -10 -29 -5 0 -10 -13 -10 -30 0 -16 -4 -30 -10 -30 -5 0 -10 -13 -10 -30
0 -16 -4 -30 -10 -30 -5 0 -10 -13 -10 -30 0 -16 -4 -30 -10 -30 -5 0 -10 -13
-10 -30 0 -16 -4 -30 -10 -30 -5 0 -10 -13 -10 -30 0 -16 -4 -30 -10 -30 -5 0
-10 -13 -10 -30 0 -16 -4 -30 -10 -30 -5 0 -10 -13 -10 -30 0 -16 -4 -30 -10
-30 -5 0 -10 -11 -10 -25 l0 -25 165 0 c140 0 165 2 165 15 0 8 -4 15 -10 15
-5 0 -10 23 -10 50 0 28 -4 50 -10 50 -5 0 -10 18 -10 40 0 22 -4 40 -10 40
-5 0 -10 15 -10 34 0 19 -4 38 -10 41 -5 3 -10 28 -10 55 0 27 -4 52 -10 55
-5 3 -10 31 -10 61 0 30 -4 54 -10 54 -5 0 -10 23 -10 50 0 38 -4 50 -15 50
-10 0 -15 -10 -15 -34z"/>
<path d="M11356 2503 c-3 -3 -6 -19 -6 -35 0 -15 -4 -28 -10 -28 -5 0 -10 -13
-10 -30 0 -16 -4 -30 -10 -30 -5 0 -10 -18 -10 -40 0 -22 -4 -40 -10 -40 -5 0
-10 -13 -10 -30 0 -16 -4 -30 -10 -30 -5 0 -10 -11 -10 -24 0 -14 -4 -28 -10
-31 -5 -3 -10 -17 -10 -30 0 -13 -4 -27 -10 -30 -5 -3 -10 -15 -10 -26 0 -10
-4 -19 -10 -19 -5 0 -10 -13 -10 -30 0 -16 -4 -30 -10 -30 -5 0 -10 -13 -10
-30 0 -16 -4 -30 -10 -30 -5 0 -10 -11 -10 -25 l0 -25 165 0 165 0 0 25 c0 14
-4 25 -10 25 -5 0 -10 18 -10 40 0 22 -4 40 -10 40 -5 0 -10 23 -10 50 0 28
-4 50 -10 50 -5 0 -10 18 -10 40 0 22 -4 40 -10 40 -5 0 -10 23 -10 50 0 28
-4 50 -10 50 -5 0 -10 20 -10 44 0 25 -4 48 -10 51 -5 3 -10 24 -10 45 0 37
-10 56 -24 43z"/>
<path d="M14917 2483 c-4 -3 -7 -19 -7 -35 0 -15 -4 -28 -10 -28 -5 0 -10 -13
-10 -30 0 -16 -4 -30 -10 -30 -5 0 -10 -18 -10 -39 0 -22 -4 -43 -10 -46 -5
-3 -10 -17 -10 -30 0 -13 -4 -27 -10 -30 -5 -3 -10 -14 -10 -24 0 -21 -22 -71
-32 -71 -5 0 -8 -13 -8 -30 0 -16 -4 -30 -10 -30 -5 0 -10 -13 -10 -30 0 -16
-4 -30 -10 -30 -5 0 -10 -13 -10 -30 0 -16 -4 -30 -10 -30 -5 0 -10 -7 -10
-15 0 -13 25 -15 165 -15 l165 0 0 35 c0 19 -4 35 -10 35 -5 0 -10 23 -10 50
0 28 -4 50 -10 50 -5 0 -10 18 -10 40 0 22 -4 40 -10 40 -5 0 -10 23 -10 50 0
28 -4 50 -10 50 -5 0 -10 15 -10 34 0 19 -4 38 -10 41 -5 3 -10 31 -10 61 0
39 -5 60 -18 74 -10 11 -22 17 -25 13z"/>
<path d="M18950 2490 c0 -16 -4 -30 -10 -30 -5 0 -10 -18 -10 -40 0 -22 -4
-40 -10 -40 -5 0 -10 -13 -10 -30 0 -16 -4 -30 -10 -30 -5 0 -10 -13 -10 -30
0 -16 -4 -30 -10 -30 -5 0 -10 -13 -10 -30 0 -16 -4 -30 -10 -30 -5 0 -10 -13
-10 -30 0 -16 -4 -30 -10 -30 -5 0 -10 -13 -10 -30 0 -16 -4 -30 -10 -30 -5 0
-10 -11 -10 -24 0 -14 -4 -28 -10 -31 -5 -3 -10 -19 -10 -35 0 -16 -4 -32 -10
-35 -5 -3 -10 -15 -10 -26 0 -18 8 -19 165 -19 140 0 165 2 165 15 0 8 -4 15
-10 15 -5 0 -10 15 -10 34 0 19 -4 38 -10 41 -5 3 -10 28 -10 56 0 27 -4 49
-10 49 -5 0 -10 18 -10 40 0 22 -4 40 -10 40 -5 0 -10 23 -10 50 0 28 -4 50
-10 50 -5 0 -10 23 -10 50 0 28 -4 50 -10 50 -6 0 -10 27 -10 60 0 47 -3 60
-15 60 -10 0 -15 -10 -15 -30z"/>
</g>
</svg>
