<?xml version="1.0" standalone="no"?>
<!DOCTYPE svg PUBLIC "-//W3C//DTD SVG 20010904//EN"
 "http://www.w3.org/TR/2001/REC-SVG-20010904/DTD/svg10.dtd">
<svg version="1.0" xmlns="http://www.w3.org/2000/svg"
 width="6528.000000pt" height="1450.000000pt" viewBox="0 0 6528.000000 1450.000000"
 preserveAspectRatio="xMidYMid meet">
<metadata>
Created by potrace 1.16, written by Peter Selinger 2001-2019
</metadata>
<g transform="translate(0.000000,1450.000000) scale(0.100000,-0.100000)"
fill="#000000" stroke="none">
<path d="M0 7250 l0 -7250 32640 0 32640 0 0 7250 0 7250 -32640 0 -32640 0 0
-7250z m8308 7103 c-3 -16 11 -18 165 -21 100 -1 167 -6 167 -12 0 -6 11 -10
25 -10 18 0 25 -5 25 -20 0 -19 7 -20 141 -20 129 0 140 -1 135 -17 -11 -35 6
-42 114 -44 101 -2 106 -3 137 -31 29 -28 36 -30 110 -30 87 0 103 -7 103 -49
l0 -29 90 0 c62 0 90 -4 90 -12 0 -6 7 -20 17 -30 13 -15 31 -18 100 -18 l83
0 0 -30 0 -30 77 0 c72 0 79 -2 108 -30 22 -21 41 -30 70 -31 47 -3 65 -14 65
-40 0 -18 25 -25 67 -20 6 1 14 -3 18 -9 3 -5 17 -10 31 -10 14 0 24 -5 23
-12 -6 -45 -1 -48 71 -48 40 0 70 -4 70 -10 0 -5 -5 -10 -11 -10 -5 0 -7 -5
-3 -11 4 -8 9 -7 15 2 6 11 13 9 32 -9 15 -14 39 -23 65 -25 29 -2 50 -11 70
-30 15 -15 37 -27 49 -27 11 0 23 -6 26 -14 3 -9 15 -12 31 -9 26 5 26 5 26
-59 l0 -63 -100 -100 c-55 -55 -100 -105 -100 -112 0 -7 -5 -13 -12 -13 -17 0
-108 -91 -108 -107 0 -7 -8 -13 -19 -13 -22 0 -37 -17 -43 -45 -2 -11 -16 -26
-31 -33 -18 -9 -27 -21 -27 -38 0 -25 -15 -33 -23 -11 -4 7 -8 3 -12 -10 -4
-13 -11 -23 -17 -23 -17 0 -97 -91 -92 -105 4 -9 -3 -15 -23 -17 -21 -2 -29
-9 -31 -28 -5 -34 -20 -50 -48 -50 -26 0 -41 -16 -22 -23 21 -7 -11 -37 -39
-37 -19 0 -23 -4 -18 -19 6 -19 -20 -49 -32 -37 -4 4 -1 11 7 16 8 6 11 10 5
10 -22 -1 -55 -39 -55 -64 0 -14 -4 -26 -10 -26 -5 0 -10 6 -10 13 0 6 -12 -7
-26 -31 -14 -23 -29 -40 -35 -37 -5 3 -6 -1 -3 -9 3 -9 1 -16 -5 -16 -6 0 -11
5 -11 11 0 5 -4 7 -10 4 -5 -3 -10 -16 -10 -29 0 -27 -18 -46 -43 -46 -11 0
-22 -11 -28 -30 -9 -24 -17 -30 -40 -30 -25 0 -29 -4 -29 -29 0 -23 -5 -30
-21 -33 -12 -2 -26 -11 -30 -20 -5 -10 -13 -26 -17 -35 -5 -10 -20 -20 -33
-24 -13 -3 -23 -11 -21 -18 4 -19 -17 -41 -39 -41 -12 0 -19 -7 -19 -19 0 -21
-22 -43 -40 -39 -7 2 -20 -12 -29 -29 -9 -18 -21 -31 -27 -29 -13 5 -44 -29
-44 -48 0 -20 -32 -45 -37 -28 -7 19 -23 4 -23 -22 0 -26 -24 -51 -39 -42 -5
4 -17 -9 -27 -29 -10 -22 -23 -34 -33 -33 -10 2 -17 -5 -19 -17 -2 -12 -21
-32 -42 -45 -22 -14 -40 -32 -40 -41 0 -23 -24 -41 -44 -33 -15 6 -21 -5 -17
-30 3 -15 -21 -36 -38 -34 -10 2 -17 -5 -19 -17 -2 -12 -15 -26 -32 -32 -19
-7 -30 -18 -30 -30 0 -24 -19 -43 -42 -43 -11 0 -18 -7 -18 -18 0 -26 -43 -64
-63 -56 -17 6 -22 -4 -18 -35 2 -7 -3 -11 -10 -9 -16 5 -60 -32 -53 -44 8 -13
-17 -40 -32 -34 -14 5 -37 -17 -27 -27 12 -13 -20 -37 -48 -37 -26 0 -29 -4
-29 -30 0 -23 -4 -30 -16 -28 -10 2 -24 -12 -38 -37 -14 -24 -31 -41 -44 -43
-14 -2 -22 -11 -22 -24 0 -11 -5 -18 -12 -16 -17 6 -55 -30 -62 -58 -4 -14
-12 -24 -19 -23 -37 5 -47 -2 -47 -31 0 -27 -3 -30 -30 -30 -26 0 -30 -3 -30
-29 0 -33 -20 -54 -44 -45 -12 5 -16 0 -16 -19 0 -28 -30 -60 -37 -39 -7 19
-23 4 -23 -22 0 -18 -9 -26 -40 -36 -34 -11 -40 -18 -40 -40 0 -23 -4 -27 -25
-27 -32 0 -36 -4 -38 -39 -2 -19 -11 -33 -26 -40 -13 -7 -28 -22 -35 -35 -6
-13 -21 -24 -31 -24 -30 0 -51 -15 -34 -25 18 -12 -8 -42 -30 -35 -24 7 -43
-10 -43 -39 0 -16 -5 -25 -12 -23 -20 7 -46 -13 -46 -36 0 -13 -9 -26 -22 -32
-12 -6 -29 -23 -38 -40 -14 -24 -23 -30 -49 -29 -31 2 -45 -20 -18 -29 23 -7
-14 -38 -42 -35 -23 3 -26 -1 -29 -30 -2 -23 -8 -32 -17 -29 -23 9 -57 -22
-49 -45 5 -17 3 -20 -10 -15 -27 11 -46 -3 -46 -34 0 -24 -4 -29 -26 -29 -32
0 -56 -24 -56 -56 0 -20 -5 -24 -28 -24 -21 0 -30 -7 -40 -30 -7 -16 -18 -30
-26 -30 -7 0 -21 -13 -31 -30 -9 -16 -22 -30 -28 -30 -6 0 -25 -15 -42 -32
-17 -18 -51 -53 -77 -77 -25 -25 -46 -51 -46 -58 0 -7 -6 -13 -13 -13 -7 0
-44 -31 -82 -70 -37 -38 -78 -70 -89 -72 -14 -2 -20 -9 -18 -22 3 -14 -1 -17
-13 -13 -9 4 -18 1 -21 -8 -4 -8 -14 -15 -24 -15 -11 0 -22 -5 -25 -10 -4 -6
-11 -7 -17 -4 -7 4 -8 2 -4 -4 9 -15 -22 -62 -40 -62 -8 0 -14 -8 -14 -17 0
-21 -66 -67 -75 -53 -3 6 -27 10 -53 10 -49 1 -74 13 -85 43 -3 9 -13 17 -21
17 -8 0 -18 9 -21 20 -4 11 -22 35 -41 54 -19 18 -34 42 -34 54 0 11 -4 24
-10 27 -5 3 -10 1 -10 -4 0 -22 -18 -10 -29 19 -5 16 -15 30 -20 30 -6 0 -11
7 -11 15 0 24 -61 76 -82 69 -13 -4 -18 0 -18 13 0 23 -19 43 -40 43 -9 0 -29
14 -45 30 -16 17 -35 30 -42 30 -8 0 -13 12 -13 30 0 24 -4 30 -21 30 -11 0
-32 14 -46 30 -13 17 -31 30 -39 30 -8 0 -17 6 -20 14 -3 8 -13 12 -25 9 -13
-4 -19 0 -19 11 0 9 -6 13 -15 10 -8 -4 -17 1 -21 10 -3 9 -10 13 -15 10 -14
-8 -39 15 -39 37 0 13 -7 19 -21 19 -11 0 -29 5 -40 10 -13 7 -19 7 -19 0 0
-24 -40 -7 -75 31 -26 30 -40 38 -48 30 -7 -7 -14 -7 -23 0 -8 6 -14 6 -18 0
-7 -11 -96 31 -112 54 -10 13 -59 16 -365 17 -195 1 -404 0 -466 0 -112 -2
-112 -2 -125 -29 -10 -21 -22 -29 -48 -31 -19 -2 -41 -9 -49 -15 -12 -10 -13
-9 -8 7 7 17 6 18 -16 3 -17 -11 -28 -12 -35 -5 -7 7 -22 -2 -47 -31 -35 -38
-75 -55 -75 -31 0 6 -13 4 -30 -5 -16 -9 -30 -20 -30 -25 0 -6 -7 -10 -15 -10
-9 0 -18 -6 -21 -14 -3 -8 -19 -13 -42 -12 -29 1 -37 -3 -40 -19 -7 -33 -19
-42 -64 -43 -44 -2 -71 -22 -62 -47 4 -10 -5 -13 -33 -12 -33 2 -38 -1 -42
-23 -2 -15 -30 -50 -68 -85 -52 -49 -66 -57 -74 -45 -8 12 -9 10 -4 -7 5 -17
1 -22 -16 -25 -12 -2 -26 -11 -30 -20 -5 -10 -13 -26 -18 -35 -4 -10 -20 -19
-35 -21 -21 -3 -26 -8 -21 -21 7 -22 -17 -44 -39 -35 -13 5 -16 -1 -16 -30 0
-26 -4 -36 -16 -36 -23 0 -44 -25 -44 -54 0 -22 -4 -26 -30 -26 -29 0 -30 -1
-30 -49 0 -46 -21 -84 -37 -68 -3 4 -14 2 -24 -4 -14 -7 -19 -21 -19 -54 0
-43 -12 -59 -24 -32 -3 6 -3 2 -1 -10 4 -14 -1 -26 -15 -36 -15 -10 -22 -27
-23 -58 -4 -55 -13 -72 -38 -64 -18 6 -19 1 -19 -69 0 -68 -2 -76 -19 -76 -11
0 -22 6 -25 13 -3 6 -3 -1 1 -17 3 -16 1 -31 -5 -35 -6 -3 -12 -48 -13 -101
-3 -101 -13 -136 -41 -144 -21 -5 -19 14 -20 -299 l0 -229 28 -29 c26 -27 28
-35 32 -136 3 -93 6 -110 24 -125 12 -10 25 -18 30 -18 4 0 8 -31 8 -70 0 -66
2 -71 30 -92 21 -15 30 -30 30 -51 0 -19 9 -36 30 -54 25 -20 30 -32 30 -68 0
-43 14 -68 23 -43 9 25 54 -30 55 -68 2 -46 7 -52 36 -47 22 5 25 1 28 -28 3
-31 6 -34 31 -31 26 3 27 1 27 -37 0 -39 11 -53 25 -31 11 17 36 -10 30 -31
-7 -21 30 -50 53 -42 10 4 13 2 10 -8 -7 -19 21 -66 43 -72 13 -4 16 0 11 12
-5 14 -3 14 11 3 8 -8 17 -23 19 -35 2 -12 9 -21 17 -19 19 4 41 -17 41 -39 0
-12 9 -19 27 -21 22 -2 29 -9 33 -33 5 -27 9 -29 40 -28 28 0 44 -8 82 -43 30
-28 53 -42 62 -38 12 5 16 -1 16 -25 0 -31 0 -31 58 -32 31 -1 63 -1 70 0 7 1
12 -10 12 -29 0 -29 1 -30 49 -30 28 0 53 -5 57 -11 5 -8 9 -8 14 1 10 16 31
3 29 -18 -3 -30 1 -37 10 -23 7 11 13 12 23 3 8 -6 42 -12 76 -13 46 -2 67 -7
83 -22 l21 -20 -7 24 c-7 22 -6 22 9 10 9 -8 15 -20 12 -27 -8 -20 15 -29 69
-28 28 1 53 -4 57 -10 5 -8 11 -7 19 1 9 9 16 9 25 2 8 -7 14 -7 19 1 5 8 10
8 20 0 10 -8 15 -8 20 0 5 8 11 7 22 -1 12 -10 16 -10 24 2 6 10 9 10 9 2 0
-7 7 -13 15 -13 8 0 15 5 15 12 0 9 3 9 12 0 8 -8 15 -9 25 -1 9 8 13 8 13 0
0 -6 7 -11 15 -11 8 0 15 5 15 12 0 9 3 9 12 0 7 -7 22 -12 34 -12 13 0 26 -5
29 -10 5 -8 11 -8 20 0 7 6 29 10 48 8 19 -1 42 4 51 11 11 9 16 10 16 2 0 -6
7 -11 15 -11 8 0 15 5 15 11 0 8 4 8 14 0 10 -9 16 -9 21 -1 5 8 10 8 20 0 10
-8 15 -8 20 0 5 8 10 8 20 0 10 -8 15 -8 20 0 5 8 11 7 22 -1 12 -10 16 -10
24 2 8 12 10 12 19 -1 8 -12 10 -12 10 -1 0 9 7 11 21 8 14 -4 32 5 57 27 38
33 81 44 94 23 5 -8 8 -8 8 -1 0 7 19 12 47 12 37 1 53 7 77 30 22 20 43 29
71 31 45 2 52 7 57 39 l3 23 22 -20 c13 -12 25 -17 28 -11 3 6 1 10 -4 10 -6
0 -11 5 -11 10 0 6 18 10 40 10 32 0 40 4 40 19 0 28 19 38 80 40 30 1 56 4
58 5 1 2 3 21 4 42 1 21 3 33 6 26 6 -18 26 -14 40 8 7 12 18 20 25 19 31 -4
38 1 32 23 -6 17 -4 20 9 15 28 -11 78 4 71 21 -8 22 14 42 45 42 29 0 43 19
34 45 -5 11 1 15 25 15 27 0 31 3 31 28 0 31 16 52 40 52 19 0 48 32 42 48 -2
7 1 12 7 12 6 0 11 -4 11 -10 0 -5 5 -10 10 -10 6 0 10 13 10 29 0 27 19 53
36 50 32 -5 44 3 44 30 0 24 4 29 26 29 30 -1 46 19 38 45 -4 14 1 17 25 17
30 0 37 9 32 47 -2 15 19 28 44 28 13 0 20 7 20 20 0 25 13 46 28 44 37 -4 47
2 47 31 0 27 3 30 30 30 27 0 30 3 30 30 0 27 3 30 30 30 26 0 30 3 30 29 0
33 20 54 44 45 15 -6 21 5 17 30 -3 13 32 35 57 36 18 0 22 6 22 30 0 27 3 30
30 30 27 0 30 3 30 30 0 27 3 30 30 30 26 0 30 4 30 28 0 32 16 52 42 52 10 0
23 11 28 24 5 15 20 27 39 31 26 5 31 11 31 36 0 26 4 29 30 29 27 0 30 3 30
30 0 27 3 30 30 30 26 0 30 3 30 29 0 31 24 59 35 41 12 -19 25 -10 25 19 0
33 14 48 50 53 19 2 26 10 28 31 2 20 8 27 18 23 25 -10 44 5 44 35 0 26 4 29
30 29 27 0 30 3 30 30 0 27 3 30 30 30 28 0 37 12 31 44 -2 12 20 36 33 35 36
-4 46 2 46 31 0 27 3 30 30 30 27 0 30 3 30 30 0 27 3 30 30 30 27 0 30 3 30
30 0 27 3 30 30 30 19 0 30 5 31 15 4 40 20 66 38 61 9 -3 22 -1 30 3 12 8 12
12 2 25 -10 12 -9 16 8 25 11 6 29 11 40 11 17 0 21 6 21 30 0 27 3 30 30 30
27 0 30 3 30 30 0 27 3 30 30 30 19 0 30 5 31 15 1 8 2 21 3 28 0 6 13 13 29
15 25 3 33 17 28 46 -3 17 23 36 50 36 26 0 29 4 29 30 0 27 3 30 30 30 27 0
30 3 30 30 0 27 3 30 30 30 27 0 30 3 30 30 0 26 4 30 28 30 30 0 62 35 39 43
-15 5 10 38 27 36 36 -4 46 2 46 31 0 27 3 30 30 30 27 0 30 3 30 30 0 27 3
30 30 30 27 0 30 3 30 30 0 27 3 30 30 30 26 0 30 4 30 28 0 36 16 52 52 52
25 0 28 4 28 30 0 23 4 30 16 28 10 -2 23 9 33 29 12 25 23 33 44 33 23 0 27
4 27 28 0 21 7 30 31 41 19 8 35 25 41 43 8 21 14 26 21 19 16 -16 27 -13 27
7 1 19 26 56 40 58 6 1 17 2 25 3 9 1 15 11 15 28 0 22 55 81 293 320 204 205
299 293 314 293 12 0 25 5 29 11 4 8 9 8 17 0 6 -6 35 -11 64 -11 52 0 53 0
53 -30 0 -25 4 -30 23 -30 14 0 32 -12 45 -30 13 -16 29 -30 37 -30 8 0 15 -7
15 -16 0 -9 9 -18 20 -21 11 -3 20 -14 20 -24 0 -15 7 -19 31 -19 23 0 30 -4
26 -14 -4 -10 -1 -13 8 -10 8 4 15 -3 17 -18 2 -15 9 -22 19 -20 12 2 17 -5
17 -23 0 -31 10 -44 21 -27 6 9 13 9 34 -1 15 -6 27 -16 27 -20 0 -14 55 -77
67 -77 6 0 13 -12 15 -27 2 -17 9 -28 18 -28 31 -1 60 -17 60 -35 0 -20 23
-32 46 -23 10 4 15 1 14 -8 -3 -22 0 -33 15 -53 12 -16 17 -17 31 -6 13 12 15
12 14 -1 -6 -39 0 -49 30 -49 17 0 30 -4 30 -10 0 -5 -4 -10 -10 -10 -22 0 -8
-21 29 -46 22 -14 42 -36 45 -50 6 -23 20 -29 59 -26 12 1 17 -6 17 -26 0 -16
8 -32 20 -40 12 -7 20 -8 20 -2 0 5 5 10 11 10 6 0 9 -6 6 -12 -2 -7 3 -25 11
-40 17 -29 36 -36 45 -18 3 6 4 5 3 -2 -4 -18 12 -48 26 -48 16 0 58 -41 58
-56 0 -16 30 -33 46 -27 7 2 12 -7 12 -22 0 -32 5 -37 37 -37 20 0 25 -6 25
-24 0 -25 26 -44 49 -36 8 3 12 -1 9 -9 -11 -30 40 -87 55 -61 2 4 2 1 0 -6
-5 -20 52 -73 71 -66 9 3 16 1 16 -5 0 -6 -4 -11 -10 -11 -5 0 -2 -9 7 -20 10
-11 28 -20 41 -20 12 0 22 -6 21 -12 -5 -38 2 -48 31 -48 19 0 30 -5 29 -12
-5 -38 2 -48 31 -48 17 0 30 -4 30 -10 0 -5 -5 -10 -12 -10 -6 0 1 -13 17 -30
16 -16 39 -30 52 -30 18 0 23 -6 23 -25 0 -26 26 -46 49 -37 8 3 12 -1 9 -9
-9 -24 11 -49 38 -49 19 0 24 -4 20 -17 -3 -10 4 -29 14 -42 17 -19 23 -21 35
-11 13 10 15 8 15 -13 0 -25 15 -43 53 -62 12 -5 24 -21 27 -35 5 -20 11 -24
34 -22 18 3 27 -1 25 -10 -2 -21 1 -32 16 -52 12 -16 17 -17 30 -6 13 11 15 9
15 -15 0 -18 6 -28 20 -32 11 -3 20 -10 20 -16 0 -16 51 -67 67 -67 7 0 13 -5
13 -12 0 -16 51 -68 67 -68 7 0 13 -6 13 -13 0 -8 8 -21 18 -30 15 -13 21 -14
31 -4 11 10 12 5 9 -25 -2 -21 -2 -35 1 -33 2 3 10 0 18 -6 9 -9 17 -8 27 0
12 10 15 7 18 -21 3 -29 6 -33 29 -30 26 3 58 -23 44 -36 -4 -4 -10 -1 -12 6
-3 6 -10 12 -16 12 -7 -1 -2 -9 11 -19 12 -11 22 -24 22 -30 0 -6 14 -11 30
-11 27 0 30 -3 30 -30 0 -26 3 -30 29 -30 31 0 59 -24 41 -35 -20 -12 -10 -25
21 -25 24 0 30 -4 25 -15 -3 -9 1 -18 9 -21 16 -7 22 -74 6 -74 -5 0 -11 -9
-14 -19 -3 -13 -1 -18 9 -14 10 4 11 0 1 -21 -7 -14 -16 -26 -21 -26 -19 0
-46 -34 -46 -57 0 -19 -5 -23 -29 -23 -31 0 -45 -19 -34 -47 5 -12 2 -15 -10
-10 -11 4 -25 -1 -37 -13 -12 -12 -17 -26 -13 -37 5 -12 2 -15 -10 -10 -19 7
-67 -28 -67 -49 0 -8 -7 -14 -15 -14 -9 0 -19 -10 -24 -22 -10 -27 -44 -60
-57 -56 -12 3 -92 -80 -99 -103 -4 -11 -15 -19 -26 -19 -10 0 -19 -4 -19 -9 0
-4 -31 -39 -68 -77 -38 -38 -72 -77 -75 -87 -4 -11 -16 -21 -27 -24 -10 -3
-26 -16 -35 -29 -8 -13 -22 -24 -29 -24 -8 0 -23 -15 -34 -32 -12 -18 -34 -41
-51 -51 -17 -10 -31 -22 -31 -27 0 -5 -26 -35 -58 -67 -32 -32 -63 -65 -68
-73 -5 -8 -18 -20 -28 -26 -16 -8 -28 -23 -43 -52 -1 -2 -11 2 -24 8 -19 11
-21 10 -16 -3 11 -28 -15 -67 -45 -67 -21 0 -28 -5 -28 -20 0 -11 -4 -20 -10
-20 -5 0 -10 -9 -10 -20 0 -11 -5 -20 -10 -20 -15 0 -110 -92 -110 -107 0 -7
-6 -13 -12 -13 -7 -1 -29 -14 -48 -30 -19 -17 -40 -30 -47 -30 -7 0 -13 -12
-13 -27 0 -20 -7 -31 -26 -40 -15 -7 -30 -10 -35 -7 -4 2 -11 -11 -15 -31 -4
-25 -11 -35 -25 -35 -11 0 -19 5 -19 11 0 5 -5 7 -11 3 -8 -4 -7 -9 2 -15 11
-6 8 -14 -11 -34 -13 -14 -31 -24 -39 -23 -11 2 -17 -7 -19 -29 -3 -34 -22
-47 -22 -15 0 10 -3 13 -8 6 -4 -6 -18 -17 -31 -24 -18 -9 -20 -14 -10 -20 10
-7 10 -11 -1 -25 -7 -9 -19 -14 -25 -11 -16 6 -35 -13 -29 -29 6 -14 -23 -41
-33 -31 -10 9 -43 -25 -43 -45 0 -21 -17 -34 -45 -34 -15 0 -20 -7 -20 -25 0
-15 -8 -28 -23 -36 -13 -6 -36 -23 -51 -38 -15 -14 -35 -26 -44 -26 -9 0 -17
-5 -17 -11 0 -6 -5 -9 -12 -7 -7 3 -19 -9 -28 -26 -10 -22 -23 -32 -43 -34
-22 -3 -27 -7 -22 -22 4 -14 -2 -23 -24 -35 -17 -8 -31 -21 -31 -27 0 -16 -32
-37 -57 -38 -19 0 -23 -6 -23 -29 l0 -28 -81 -2 c-68 -2 -83 1 -95 16 -7 10
-14 25 -14 34 0 8 -13 28 -30 44 -21 20 -30 38 -30 61 0 34 -14 53 -24 32 -7
-19 -36 20 -36 49 0 22 -13 28 -47 24 -8 -1 -13 10 -13 28 0 26 -4 30 -32 33
-24 2 -36 10 -46 31 -7 15 -19 27 -26 27 -8 0 -19 14 -26 30 -11 28 -25 35
-57 31 -8 -1 -13 11 -13 33 0 35 -14 57 -23 34 -4 -10 -7 -11 -18 0 -7 6 -28
12 -46 12 -30 0 -33 3 -33 30 0 28 -2 30 -40 30 -24 0 -40 5 -40 12 0 27 -34
48 -75 48 -38 0 -44 3 -51 28 -5 20 -8 23 -11 10 -6 -25 -23 -23 -23 2 0 17
-7 20 -47 21 -27 1 -56 0 -66 -1 -24 -2 -47 18 -47 41 0 17 -28 26 -64 20 -4
-1 -14 3 -21 9 -9 8 -15 8 -20 0 -8 -13 -55 -13 -55 0 0 15 -30 12 -30 -2 -1
-8 -6 -5 -15 5 -9 13 -20 17 -36 12 -18 -6 -21 -4 -16 9 18 46 20 46 -399 46
l-393 0 -13 -27 c-9 -20 -22 -29 -43 -31 -17 -2 -36 -9 -43 -15 -10 -8 -16 -7
-23 4 -6 9 -9 10 -9 2 0 -8 -14 -12 -37 -11 -81 1 -93 -1 -93 -20 0 -31 -22
-42 -82 -42 -49 0 -58 -3 -58 -18 0 -29 -21 -42 -70 -42 -41 0 -46 -3 -58 -30
-13 -28 -17 -30 -73 -30 -54 0 -74 -10 -49 -25 6 -4 8 -10 5 -15 -9 -15 -67
-40 -78 -33 -6 4 -7 -4 -3 -22 6 -23 4 -26 -9 -21 -11 4 -32 -10 -64 -39 -27
-26 -58 -45 -70 -45 -13 0 -25 -7 -28 -17 -2 -10 -22 -30 -44 -45 -21 -15 -39
-35 -39 -43 0 -8 -6 -15 -14 -15 -20 0 -56 -48 -50 -65 4 -9 -4 -15 -23 -17
-21 -2 -29 -9 -31 -27 -5 -30 -42 -87 -71 -107 -11 -8 -18 -21 -15 -29 4 -10
0 -15 -15 -15 -14 0 -21 -6 -21 -20 0 -11 -4 -20 -10 -20 -5 0 -10 -18 -10
-40 0 -24 -5 -40 -12 -40 -20 0 -48 -32 -48 -55 0 -11 -5 -26 -12 -33 -9 -9
-9 -12 0 -12 7 0 12 -5 12 -11 0 -6 -9 -8 -20 -4 -16 5 -20 2 -20 -19 0 -14
-4 -26 -10 -26 -5 0 -10 -19 -10 -43 0 -24 -6 -55 -12 -70 -13 -27 -28 -36
-28 -16 0 5 -4 7 -10 4 -6 -4 -10 -55 -10 -119 0 -107 -1 -114 -25 -136 -14
-13 -28 -20 -32 -16 -4 4 -1 12 7 17 13 9 13 10 0 6 -8 -2 -15 -12 -15 -23 0
-10 -3 -24 -8 -31 -4 -6 -3 -14 1 -17 12 -7 12 -138 1 -152 -5 -6 -4 -26 1
-45 12 -40 13 -166 2 -173 -8 -5 -9 -46 0 -62 3 -5 5 -47 6 -93 1 -79 2 -85
31 -115 27 -29 29 -36 30 -110 1 -73 3 -82 28 -108 19 -20 28 -41 30 -70 2
-22 8 -47 14 -54 8 -10 8 -14 0 -14 -20 0 -12 -25 14 -44 14 -10 25 -27 25
-37 0 -9 12 -31 26 -48 14 -17 23 -35 19 -41 -3 -5 -2 -10 4 -10 6 0 13 -11
17 -25 3 -14 10 -25 15 -25 5 0 9 -13 9 -29 0 -20 6 -30 20 -34 12 -3 20 -14
20 -26 0 -12 6 -21 14 -21 21 0 31 -21 15 -32 -10 -7 -8 -8 7 -3 23 6 30 -6
43 -70 4 -18 12 -29 20 -27 22 5 41 -19 41 -49 0 -28 10 -35 48 -30 7 1 12
-10 12 -29 0 -27 3 -30 30 -30 27 0 30 -3 30 -30 0 -29 10 -35 47 -31 6 1 14
-12 18 -29 5 -22 12 -30 29 -30 30 0 46 -18 46 -52 0 -28 15 -38 23 -15 4 10
7 10 18 0 7 -7 24 -13 37 -13 17 0 22 -4 19 -14 -4 -10 -1 -13 9 -9 9 3 14 -2
14 -16 0 -14 6 -21 18 -21 10 0 33 -14 50 -31 27 -27 39 -31 82 -31 48 0 50
-1 50 -29 0 -27 3 -29 40 -29 22 0 40 -4 40 -9 0 -5 9 -11 19 -14 15 -4 18 -1
13 12 -5 14 -4 14 11 2 9 -7 17 -22 17 -32 0 -19 10 -22 87 -21 17 0 40 -8 52
-19 12 -11 21 -15 21 -9 0 5 5 10 10 10 6 0 10 -13 10 -30 l0 -30 128 -1 c70
-1 135 0 145 0 21 3 48 -23 45 -41 -2 -10 39 -14 196 -16 l199 -2 29 27 c16
16 37 28 46 29 9 1 77 2 150 3 l132 1 0 31 c0 22 4 30 14 26 7 -3 22 0 32 8
11 7 33 13 49 13 77 0 85 2 85 20 0 28 20 44 38 30 10 -9 15 -9 20 -1 4 7 14
11 22 11 43 -3 60 3 60 20 0 28 20 44 38 30 9 -8 15 -9 20 -1 4 6 18 13 32 14
19 3 26 11 28 32 3 22 6 26 17 17 9 -8 15 -8 20 0 3 5 28 10 56 10 47 0 49 1
49 29 0 31 24 59 35 41 12 -19 25 -10 25 18 0 35 18 56 36 41 8 -7 14 -7 19 1
3 5 19 10 36 10 26 0 29 3 29 30 0 24 4 30 22 30 25 0 58 27 58 47 0 8 11 13
29 13 25 0 30 4 33 28 2 21 9 28 31 30 21 3 27 9 27 28 0 13 6 24 13 24 6 0
24 15 39 34 19 24 24 36 16 44 -8 8 -1 10 27 5 27 -4 36 -3 31 5 -11 19 24 62
50 62 20 0 24 5 24 29 0 26 4 30 33 33 30 3 32 5 29 41 -2 32 0 37 18 37 11 0
20 -5 20 -11 0 -5 5 -7 10 -4 6 3 10 12 10 20 0 21 98 115 120 115 16 0 20 7
20 30 0 27 3 30 30 30 28 0 30 2 30 40 0 39 12 53 24 28 3 -7 4 -4 1 8 -6 23
18 50 35 39 5 -3 10 1 10 10 0 9 29 47 65 84 40 41 65 76 65 90 0 21 1 21 25
5 22 -14 24 -14 19 -1 -3 8 -1 18 5 22 6 3 11 17 11 29 0 31 27 55 36 32 9
-22 24 -10 24 20 0 14 7 33 16 42 15 15 16 14 9 -7 l-7 -24 31 22 c29 21 36
37 31 70 -1 9 4 12 14 8 22 -9 57 28 49 50 -5 12 -2 15 10 10 22 -8 59 27 50
49 -4 10 -1 15 8 14 8 -1 24 -2 36 -1 19 1 22 5 17 29 -4 20 0 32 12 43 16 12
17 12 11 -4 -6 -15 -4 -16 13 -7 12 6 20 21 20 35 0 26 14 34 24 13 3 -7 3 -3
0 10 -5 19 -1 22 24 22 32 0 46 19 35 46 -4 12 -2 15 8 12 24 -9 49 11 49 38
0 16 5 24 13 21 21 -8 47 13 47 37 0 13 7 30 16 37 15 12 16 11 10 -11 -5 -17
-4 -21 2 -11 6 8 17 11 28 7 10 -4 15 -4 11 0 -11 11 34 66 50 60 8 -3 11 -1
8 4 -3 6 1 19 9 31 8 12 12 27 9 34 -3 9 5 15 24 17 22 2 29 9 31 31 3 25 22
40 22 17 0 -5 9 -2 20 7 11 10 20 27 20 39 0 12 7 28 16 35 15 12 16 11 10 -9
-4 -12 -3 -22 1 -22 17 0 33 24 33 51 0 15 7 33 16 40 15 12 16 11 9 -11 -8
-26 -11 -29 98 77 9 9 17 27 17 39 0 17 7 23 28 26 21 2 28 9 30 32 3 25 6 28
37 24 29 -3 35 0 40 20 7 27 78 98 107 108 13 4 18 15 18 42 0 28 3 33 12 24
16 -16 48 13 48 44 0 17 6 23 28 26 21 2 28 9 30 30 2 14 9 32 17 38 12 10 13
6 11 -22 -2 -18 -1 -24 1 -14 3 11 16 28 29 39 14 11 24 29 24 44 0 22 2 24
15 13 13 -11 18 -10 30 6 8 10 15 29 15 41 0 16 7 22 27 25 22 2 29 10 34 33
5 25 7 27 14 12 7 -17 10 -16 31 10 18 22 25 25 33 14 6 -9 11 -10 15 -2 4 6
3 11 -1 11 -5 0 -14 10 -22 21 -12 20 -11 21 14 17 17 -4 28 -1 32 8 3 8 11
14 19 14 10 0 12 9 7 33 -5 26 -3 30 8 20 17 -17 49 11 49 44 0 33 20 19 21
-15 1 -26 1 -26 10 5 5 18 14 35 19 38 6 3 10 18 10 32 0 20 3 23 13 15 10 -9
27 3 72 48 33 33 65 58 71 56 15 -6 34 13 28 28 -3 7 7 23 21 36 22 20 28 22
35 10 5 -8 12 -11 17 -7 4 5 1 12 -7 17 -13 8 -13 12 3 27 15 16 19 16 27 3 8
-12 10 -9 10 11 0 29 49 82 71 76 8 -2 11 -2 7 0 -13 7 -9 24 5 22 29 -4 38 2
32 20 -7 24 22 51 31 27 9 -23 24 -9 24 22 0 38 94 132 132 132 28 0 37 13 18
25 -17 11 10 36 31 30 13 -5 18 0 21 21 3 24 11 32 58 54 8 4 17 18 20 31 4
16 8 20 14 11 9 -14 26 -16 26 -2 0 5 33 41 72 80 55 52 80 70 100 70 26 0 28
3 28 39 0 37 2 40 27 38 23 -2 28 3 33 28 4 23 11 31 32 33 21 3 27 9 30 30 2
21 9 28 31 30 18 2 27 9 27 21 0 25 20 41 52 41 24 0 28 4 28 29 0 31 24 59
35 41 13 -22 25 -8 25 30 0 38 2 40 30 40 21 0 30 5 30 16 0 20 25 45 41 42 7
-2 15 6 17 17 5 26 22 46 36 44 36 -4 46 2 46 31 0 27 3 30 30 30 25 0 30 4
36 35 7 40 22 54 35 34 6 -10 9 -11 9 -1 0 6 7 12 15 12 8 0 15 -5 15 -11 0
-5 5 -7 11 -3 8 4 7 9 -2 14 -10 7 -10 11 1 25 9 11 16 13 23 6 7 -7 15 -7 22
-1 9 8 14 2 18 -19 3 -16 12 -35 20 -43 11 -11 14 -74 14 -338 0 -226 -3 -327
-11 -332 -8 -5 -7 -8 2 -8 8 0 12 -21 12 -70 0 -38 -4 -70 -9 -70 -5 0 -11 -9
-14 -19 -4 -15 -1 -18 12 -14 14 6 14 4 -2 -14 -9 -11 -15 -27 -12 -36 4 -9
-2 -21 -15 -30 -20 -14 -21 -23 -22 -183 -1 -93 -5 -174 -10 -181 -5 -7 -5
-14 2 -18 14 -9 13 -42 -2 -48 -10 -3 -10 -7 0 -19 9 -11 10 -18 2 -23 -5 -3
-10 -16 -10 -27 0 -12 -9 -32 -21 -44 -19 -21 -21 -34 -21 -152 0 -103 -2
-132 -14 -136 -7 -3 -11 -12 -8 -20 3 -8 -4 -33 -15 -57 -12 -23 -21 -60 -21
-80 0 -21 -5 -41 -10 -44 -8 -5 -8 -11 0 -20 8 -10 8 -15 0 -20 -8 -5 -8 -10
0 -20 8 -9 8 -15 0 -20 -5 -3 -10 -25 -10 -49 0 -45 -13 -66 -42 -66 -14 0
-18 -8 -18 -37 0 -21 -5 -56 -10 -78 -6 -25 -6 -41 0 -43 15 -5 11 -34 -6 -57
-13 -17 -16 -18 -25 -5 -8 12 -10 10 -5 -9 3 -14 0 -31 -5 -38 -6 -7 -11 -35
-12 -63 0 -27 -4 -50 -8 -50 -4 0 -9 -12 -11 -27 -2 -17 -8 -27 -16 -25 -8 1
-11 -2 -7 -7 3 -6 0 -21 -8 -33 -7 -13 -12 -36 -11 -53 1 -16 -2 -35 -7 -41
-5 -6 -10 -30 -11 -53 -1 -35 -4 -40 -20 -35 -16 5 -18 -1 -18 -38 0 -24 -5
-49 -11 -55 -7 -7 -13 -20 -14 -30 -5 -36 -17 -62 -32 -65 -16 -3 -47 -78 -32
-78 13 0 11 -34 -3 -48 -7 -7 -20 -12 -30 -12 -18 0 -20 -7 -20 -65 0 -16 -6
-38 -13 -49 -8 -10 -11 -25 -8 -32 3 -8 0 -14 -6 -14 -6 0 -11 5 -11 11 0 5
-5 7 -11 3 -8 -4 -7 -9 2 -15 11 -6 11 -11 1 -21 -6 -6 -12 -21 -12 -31 0 -10
-9 -30 -20 -44 -11 -14 -20 -33 -20 -41 0 -9 -10 -26 -22 -39 -16 -17 -21 -34
-20 -59 3 -43 -12 -64 -45 -64 -23 0 -25 -3 -19 -32 7 -35 -12 -88 -31 -88
-14 0 -35 -34 -26 -43 3 -3 -2 -13 -11 -23 -10 -9 -14 -24 -11 -35 5 -13 2
-19 -10 -19 -8 0 -20 -11 -25 -25 -5 -14 -25 -40 -45 -59 -22 -22 -30 -36 -23
-39 10 -3 8 -9 -5 -24 -9 -11 -15 -27 -12 -36 7 -17 -11 -32 -40 -32 -15 0
-19 -6 -17 -24 3 -34 -26 -92 -50 -99 -11 -3 -21 -16 -25 -33 -4 -20 -12 -29
-24 -29 -14 0 -19 -7 -19 -30 0 -16 -4 -30 -10 -30 -5 0 -10 -6 -10 -13 0 -7
-13 -23 -30 -35 -23 -18 -30 -30 -30 -57 0 -32 -3 -35 -28 -35 -23 0 -29 -6
-40 -40 -6 -22 -12 -49 -12 -60 0 -11 -6 -20 -14 -20 -20 0 -56 -48 -49 -66 4
-10 -3 -14 -26 -14 -24 0 -31 -4 -31 -20 0 -11 -9 -25 -20 -32 -11 -7 -20 -21
-20 -30 0 -19 -41 -50 -60 -46 -22 5 -23 -23 -1 -29 24 -6 28 -23 6 -23 -9 0
-19 -10 -24 -22 -5 -13 -25 -39 -45 -57 -20 -19 -36 -41 -36 -48 0 -7 -6 -13
-12 -13 -16 -1 -108 -93 -108 -109 0 -6 -13 -11 -30 -11 -25 0 -30 -4 -30 -25
0 -16 -11 -32 -30 -47 -16 -12 -30 -27 -30 -33 0 -11 -26 -27 -62 -39 -11 -3
-18 -15 -18 -31 0 -16 -6 -25 -16 -25 -17 0 -44 -23 -44 -38 0 -5 -11 -17 -25
-26 -14 -10 -30 -28 -35 -42 -5 -13 -21 -29 -34 -34 -14 -5 -32 -21 -42 -35
-9 -14 -23 -25 -30 -25 -8 0 -14 -9 -14 -19 0 -12 -12 -25 -30 -33 -17 -7 -36
-25 -43 -40 -9 -21 -19 -28 -39 -28 -24 0 -28 -4 -28 -30 0 -28 -3 -30 -36
-30 -28 0 -35 -3 -30 -15 3 -9 -10 -32 -34 -57 -22 -24 -40 -49 -40 -55 0 -7
-12 -13 -28 -13 -26 0 -62 -29 -62 -50 0 -6 -4 -10 -8 -10 -5 0 -22 -13 -38
-30 -33 -34 -44 -37 -44 -12 -1 16 -1 16 -11 0 -5 -10 -19 -18 -29 -18 -13 0
-20 -7 -20 -20 0 -11 -7 -20 -16 -20 -11 0 -14 -6 -9 -20 5 -17 2 -20 -24 -20
-28 0 -31 -3 -31 -30 0 -29 -14 -42 -22 -19 -5 14 -58 -39 -58 -57 0 -10 -14
-14 -42 -15 -24 -1 -47 -2 -53 -4 -5 -1 -14 -3 -20 -4 -5 -1 -4 -5 4 -10 22
-14 -4 -41 -39 -41 -28 0 -44 -19 -34 -43 6 -18 -22 -42 -31 -27 -10 17 -25
11 -25 -10 0 -11 -5 -20 -10 -20 -6 0 -20 -9 -32 -20 -12 -11 -32 -20 -44 -20
-13 0 -32 -12 -44 -27 -11 -14 -31 -27 -43 -28 -13 -1 -23 -9 -26 -21 -6 -34
-22 -44 -72 -44 -49 0 -55 -5 -50 -46 1 -6 -15 -11 -34 -12 -41 -2 -73 -21
-89 -54 -8 -16 -22 -24 -44 -26 -22 -2 -32 -8 -32 -21 0 -30 -22 -41 -82 -41
-58 0 -58 0 -58 -30 0 -29 -1 -29 -62 -32 -62 -3 -63 -4 -61 -30 l2 -28 -70 0
-69 0 0 -29 c0 -27 -19 -53 -36 -50 -5 1 -25 1 -45 0 -30 -1 -39 -6 -49 -30
-11 -27 -16 -29 -67 -30 -63 0 -65 -2 -65 -34 0 -22 -5 -24 -57 -26 -86 -2
-108 -9 -115 -37 -6 -23 -11 -24 -75 -24 -64 0 -70 -2 -73 -22 -4 -32 -72 -66
-98 -50 -11 7 -21 8 -25 2 -3 -5 -19 -8 -35 -8 -37 1 -42 -4 -42 -36 0 -19 -6
-24 -22 -23 -11 0 -51 0 -88 -1 l-68 -2 0 -30 c0 -28 -19 -44 -21 -17 0 9 -2
9 -6 0 -3 -9 -31 -13 -89 -13 -79 0 -84 -1 -84 -21 0 -15 -5 -19 -15 -15 -9 3
-15 0 -15 -9 0 -12 -23 -15 -117 -17 l-118 -3 3 -27 3 -28 -113 0 c-114 0
-114 0 -143 -30 -19 -19 -39 -30 -57 -30 -15 0 -28 -3 -28 -7 0 -5 -71 -9
-158 -11 -87 -2 -158 -7 -160 -13 -5 -14 -2109 -12 -2114 2 -3 8 -52 11 -150
11 -152 -1 -158 1 -162 43 -1 6 -19 11 -41 13 -22 2 -45 8 -51 12 -5 5 -61 10
-122 11 -66 2 -112 7 -112 13 0 5 -7 18 -17 28 -14 15 -32 18 -118 18 -104 0
-125 7 -125 42 0 18 -28 21 -168 20 -19 0 -32 4 -31 11 5 44 1 47 -68 47 -86
0 -133 16 -133 46 0 13 -4 26 -10 29 -5 3 -10 2 -10 -3 0 -14 -120 -13 -152 1
-21 9 -28 19 -28 39 l0 28 -90 0 -90 0 0 30 c0 30 -1 30 -57 31 -32 1 -64 1
-70 0 -8 -1 -13 10 -13 29 l0 30 -59 0 c-41 0 -60 4 -64 14 -3 8 -15 12 -30 9
-21 -4 -26 -1 -29 18 -2 20 -9 24 -38 24 -21 0 -42 7 -54 19 -13 13 -21 16
-24 8 -7 -23 -22 -12 -22 18 0 28 -3 30 -37 32 -21 1 -48 1 -60 0 -13 0 -23 5
-23 12 0 23 -36 46 -76 49 -48 3 -64 12 -64 37 0 19 -42 36 -61 24 -5 -3 -28
11 -50 31 -22 19 -45 33 -50 29 -6 -3 -30 13 -54 36 -24 24 -54 44 -67 45 -13
1 -26 3 -30 4 -5 0 -8 12 -8 26 0 22 -4 25 -37 26 -21 1 -43 1 -49 0 -7 -1
-24 13 -39 31 -20 23 -35 32 -51 30 -21 -3 -24 1 -24 27 0 22 -5 31 -17 33
-10 1 -27 2 -38 3 -37 4 -65 17 -65 31 0 8 -18 22 -40 31 -33 15 -40 23 -40
45 0 27 -2 28 -48 28 -51 0 -72 12 -72 42 0 13 -8 18 -30 18 -16 0 -30 5 -30
12 0 20 -32 48 -56 48 -17 0 -23 6 -26 28 -2 21 -9 28 -30 30 -20 2 -28 9 -28
23 0 13 -7 19 -21 19 -16 0 -19 4 -14 23 5 17 4 19 -5 7 -9 -13 -12 -13 -24 3
-10 13 -21 17 -35 12 -12 -4 -21 -2 -21 4 0 6 5 11 10 11 6 0 5 8 -2 20 -8 12
-24 20 -40 20 -21 0 -28 6 -33 30 -6 26 -11 30 -40 30 -31 0 -34 3 -37 33 -3
28 -6 32 -30 29 -23 -3 -28 0 -28 19 0 30 -28 59 -57 59 -19 0 -23 5 -23 30 0
27 -3 30 -30 30 -27 0 -30 3 -30 30 0 27 -3 30 -30 30 -27 0 -30 3 -30 30 0
27 -3 30 -30 30 -20 0 -30 5 -30 15 0 8 -18 28 -40 43 -29 20 -39 34 -40 55 0
23 -4 27 -30 27 -27 0 -30 3 -30 30 0 27 -3 30 -30 30 -27 0 -30 3 -30 30 0
25 -4 30 -25 30 -20 0 -27 6 -31 30 -5 24 -12 30 -33 30 -19 0 -30 8 -39 28
-8 17 -9 28 -2 30 21 7 -2 22 -35 22 -31 0 -34 3 -37 33 -3 29 -6 32 -31 29
-25 -3 -28 -1 -26 20 4 27 -28 68 -47 61 -11 -4 -14 7 -14 46 0 52 -6 61 -28
39 -9 -9 -12 -9 -12 3 0 9 -9 24 -20 34 -11 10 -20 26 -20 37 0 13 -8 18 -30
18 -19 0 -30 5 -29 13 4 31 -2 47 -19 47 -27 0 -42 20 -42 55 0 17 -6 37 -12
43 -10 10 -10 15 1 21 9 6 10 11 2 15 -6 4 -11 2 -11 -3 0 -6 -9 -11 -20 -11
-17 0 -20 7 -20 40 0 38 -2 40 -30 40 -25 0 -30 4 -30 23 0 14 -16 39 -40 62
-28 27 -40 48 -40 67 0 19 -5 28 -16 28 -22 0 -43 29 -44 61 0 15 -12 37 -30
54 -19 19 -30 39 -30 57 0 20 -5 28 -18 28 -31 0 -42 22 -42 82 0 58 -6 66
-44 59 -19 -4 -33 22 -35 66 -2 54 -2 56 -36 56 -23 0 -25 3 -25 41 -1 31 -8
50 -30 76 -22 25 -30 45 -30 72 0 30 -6 42 -30 60 -27 19 -30 27 -30 75 0 52
-1 53 -29 53 -27 0 -53 19 -50 36 1 5 1 30 0 57 -1 39 -4 47 -20 47 -20 0 -41
44 -41 86 0 13 -5 26 -11 29 -6 4 -8 14 -5 22 5 12 1 14 -19 9 l-25 -6 0 74
c0 70 -2 76 -30 99 -27 23 -30 31 -30 86 l0 61 -30 0 c-27 0 -30 3 -30 33 0
19 -3 37 -7 41 -5 4 -9 22 -9 39 -1 18 -2 44 -3 60 -1 19 -6 27 -19 27 -33 0
-42 21 -42 105 0 51 -5 86 -12 93 -10 10 -10 15 2 22 8 5 11 12 7 17 -5 4 -12
1 -17 -7 -7 -11 -11 -11 -24 -1 -8 7 -15 20 -14 29 1 10 0 54 0 100 -2 65 -5
82 -17 82 -8 0 -16 8 -16 18 -1 16 -2 16 -6 0 -2 -10 -9 -18 -14 -18 -5 0 -9
59 -9 136 0 133 0 135 -21 129 -17 -6 -20 -4 -15 12 4 12 -3 28 -19 45 -23 25
-25 35 -27 145 -3 104 -5 118 -20 115 -34 -5 -34 -4 -37 266 -1 110 -3 132
-16 132 -8 0 -15 5 -15 10 0 6 -7 10 -15 10 -13 0 -15 106 -15 916 0 790 2
915 15 911 9 -4 12 -1 8 9 -3 9 2 14 16 14 20 0 21 5 23 158 1 86 2 166 2 177
1 31 16 46 37 40 17 -6 19 -1 20 67 0 40 0 101 -1 136 -1 48 2 62 13 62 16 0
31 26 29 50 -1 10 0 11 4 3 3 -7 12 -13 20 -13 11 0 14 25 14 131 0 110 2 130
14 126 10 -4 13 -1 9 9 -3 9 2 14 16 14 19 0 21 6 23 68 1 37 2 82 1 100 0 27
3 32 23 32 12 0 25 4 28 8 3 5 6 45 7 89 2 78 2 81 26 81 32 0 34 3 38 64 5
77 16 138 26 138 5 0 10 -8 10 -17 1 -17 2 -17 6 0 2 9 11 17 19 17 13 0 21
61 16 123 -1 13 6 17 28 17 l30 0 0 89 c0 88 0 89 25 89 14 0 28 2 31 4 2 3 5
35 6 72 2 61 3 66 24 66 28 0 33 7 36 56 3 46 17 64 52 64 25 0 26 1 26 71 0
59 3 70 15 65 29 -11 45 5 45 43 0 60 10 81 36 81 23 0 24 4 24 59 0 43 5 62
17 72 15 12 16 12 11 -2 -5 -13 -2 -16 13 -12 13 4 19 15 20 37 4 83 16 108
48 104 24 -3 26 0 29 39 2 32 10 48 33 67 17 14 29 34 29 48 0 29 17 48 42 48
13 0 18 8 19 28 2 54 17 89 39 95 11 3 20 16 22 33 2 18 12 33 26 40 26 13 52
56 52 86 0 14 5 18 14 15 11 -4 13 -1 9 10 -5 12 -1 14 15 9 18 -6 21 -2 24
26 2 28 7 34 31 36 22 3 27 8 27 30 0 20 7 30 30 40 27 12 30 18 30 62 0 32 5
52 17 61 15 12 16 12 11 -2 -5 -13 -2 -16 13 -12 13 4 19 14 19 33 0 30 20 45
65 49 10 1 15 12 15 31 0 27 3 30 30 30 27 0 30 3 32 33 0 17 1 39 0 49 -1 9
6 22 15 29 14 12 15 11 9 -7 -4 -15 -2 -23 8 -27 16 -6 32 40 27 81 -1 13 3
22 12 22 7 0 30 18 51 40 20 22 46 40 56 40 14 0 20 7 20 23 0 14 12 32 30 45
19 15 30 31 30 47 0 14 5 25 10 25 6 0 10 -5 10 -10 0 -6 14 2 31 17 17 15 26
29 20 31 -23 8 -10 22 19 22 27 0 30 3 30 30 0 19 5 30 12 29 7 -1 25 -1 41 0
23 1 27 5 27 31 0 27 3 30 30 30 31 0 36 11 32 64 -2 13 3 16 13 12 20 -7 56
29 49 49 -4 8 -1 15 5 15 6 0 11 -5 11 -10 0 -6 8 -5 20 2 12 8 20 24 20 40 0
24 3 26 37 25 35 -2 38 1 43 28 5 25 10 30 33 28 24 -2 27 2 27 30 0 25 6 35
27 44 21 10 28 10 34 1 5 -7 11 -9 16 -5 4 5 1 12 -7 17 -13 8 -10 14 12 35
15 14 36 25 47 25 11 0 23 5 27 11 4 8 9 8 17 0 18 -18 27 -12 27 19 0 27 3
30 29 30 25 0 30 4 33 28 2 21 9 28 31 30 23 3 27 8 27 34 0 22 4 29 14 25 17
-7 66 29 66 48 0 11 19 22 55 30 6 2 22 3 38 4 23 1 27 5 27 31 0 27 3 30 34
30 29 0 34 4 39 28 5 25 11 29 44 30 21 1 39 6 41 12 2 5 12 10 23 10 12 0 19
7 19 20 0 16 7 20 30 20 18 0 30 5 30 13 0 7 6 25 13 41 9 21 17 26 36 23 17
-3 34 5 61 29 22 20 48 34 63 34 26 0 40 20 31 45 -5 12 5 15 54 15 59 0 61 1
64 28 3 24 8 27 42 30 45 4 87 28 80 46 -3 7 2 19 11 26 10 8 15 9 15 1 0 -20
20 -12 50 22 23 25 32 29 39 18 6 -9 11 -10 15 -2 4 6 2 11 -3 11 -6 0 -11 3
-11 8 0 4 21 8 46 9 53 2 61 7 45 26 -16 20 9 39 46 37 66 -5 83 -1 83 20 0
11 5 20 10 20 6 0 10 -5 10 -11 0 -5 5 -7 12 -3 9 6 9 9 0 12 -25 8 -10 18 30
19 31 2 49 10 73 33 19 18 38 28 47 25 8 -3 21 1 28 10 15 18 47 20 52 3 7
-20 58 22 58 47 0 20 5 23 33 23 77 -1 87 2 87 21 0 19 21 43 36 40 5 -1 44
-1 87 0 l77 1 0 30 0 30 63 0 c56 0 66 3 90 28 25 26 33 28 114 31 48 1 89 4
91 6 3 2 5 16 5 30 0 20 3 24 17 20 10 -3 20 0 23 9 4 10 19 15 44 14 95 -2
153 3 153 12 0 6 8 18 19 29 15 15 35 19 116 20 102 2 120 6 109 22 -3 5 0 16
6 24 10 12 39 15 131 15 110 0 119 1 119 19 0 19 21 43 36 40 5 -1 89 -1 187
0 170 1 177 2 177 21 0 20 7 20 1055 20 1000 0 1056 -1 1053 -17z m-2988 -152
c0 -5 -7 -12 -16 -15 -24 -9 -28 -7 -14 9 14 17 30 20 30 6z m15268 -3273 c2
-21 7 -38 13 -38 5 0 9 -11 9 -24 0 -14 5 -28 10 -31 6 -3 10 -24 10 -45 0
-21 5 -42 10 -45 6 -3 10 -22 10 -41 0 -19 5 -34 10 -34 6 0 10 -11 10 -24 0
-14 5 -28 10 -31 6 -3 10 -24 10 -46 0 -21 5 -39 10 -39 6 0 10 -18 10 -40 0
-22 5 -40 10 -40 6 0 10 -11 10 -24 0 -14 5 -28 10 -31 6 -3 10 -21 10 -40 0
-19 5 -37 10 -40 6 -3 10 -24 10 -46 0 -21 4 -39 9 -39 5 0 12 -16 15 -35 3
-19 9 -51 12 -70 3 -19 10 -35 15 -35 5 0 9 -11 9 -24 0 -14 5 -28 10 -31 6
-3 10 -21 10 -40 0 -19 5 -37 10 -40 6 -3 10 -24 10 -46 0 -21 5 -39 10 -39 6
0 10 -11 10 -24 0 -14 5 -28 10 -31 6 -3 10 -24 10 -45 0 -21 5 -42 10 -45 6
-3 10 -22 10 -41 0 -19 4 -34 9 -34 5 0 12 -17 15 -37 16 -92 19 -103 27 -103
5 0 9 -18 9 -40 0 -22 5 -40 10 -40 6 0 10 -11 10 -24 0 -14 5 -28 10 -31 6
-3 10 -24 10 -46 0 -21 5 -39 10 -39 6 0 10 -18 10 -40 0 -22 5 -40 10 -40 6
0 10 -11 10 -24 0 -14 5 -28 10 -31 6 -3 10 -24 10 -46 0 -21 5 -39 10 -39 6
0 10 -18 10 -40 0 -22 5 -40 10 -40 6 0 10 -11 10 -24 0 -14 5 -28 10 -31 6
-3 10 -22 10 -41 0 -19 5 -44 12 -57 25 -49 28 -58 28 -91 0 -19 5 -38 10 -41
6 -3 10 -22 10 -41 0 -19 5 -34 10 -34 6 0 10 -11 10 -24 0 -14 5 -28 10 -31
6 -3 10 -21 10 -40 0 -19 5 -37 10 -40 6 -3 10 -24 10 -46 0 -21 5 -39 10 -39
6 0 10 -11 10 -24 0 -14 5 -28 10 -31 6 -3 10 -24 10 -46 0 -21 5 -39 10 -39
6 0 10 -11 10 -24 0 -14 5 -28 10 -31 6 -3 10 -24 10 -45 0 -21 5 -42 10 -45
6 -3 10 -19 10 -35 0 -16 5 -32 10 -35 6 -3 10 -17 10 -30 0 -13 5 -27 10 -30
6 -3 10 -21 10 -40 0 -19 5 -37 10 -40 6 -3 10 -21 10 -40 0 -19 5 -37 10 -40
6 -3 10 -17 10 -30 0 -13 5 -27 10 -30 6 -3 10 -21 10 -40 0 -19 5 -37 10 -40
6 -3 10 -24 10 -46 0 -21 5 -39 10 -39 6 0 10 -11 10 -24 0 -14 5 -28 10 -31
6 -3 10 -21 10 -40 0 -19 5 -37 10 -40 6 -3 10 -24 10 -46 0 -21 5 -39 10 -39
6 0 10 -11 10 -24 0 -14 5 -28 10 -31 6 -3 10 -24 10 -46 0 -21 5 -39 10 -39
6 0 10 -18 10 -40 0 -22 5 -40 10 -40 6 0 10 -11 10 -24 0 -14 5 -28 10 -31 6
-3 10 -24 10 -46 0 -21 5 -39 10 -39 6 0 10 -18 10 -40 0 -22 5 -40 10 -40 6
0 10 -11 10 -24 0 -14 5 -28 10 -31 6 -3 10 -24 10 -46 0 -21 5 -39 10 -39 6
0 10 -18 10 -40 0 -22 5 -40 10 -40 6 0 10 -11 10 -24 0 -14 5 -28 10 -31 6
-3 10 -24 10 -46 0 -21 5 -39 10 -39 6 0 10 -18 10 -40 0 -22 5 -40 10 -40 6
0 10 -11 10 -24 0 -14 5 -28 10 -31 6 -3 10 -24 10 -46 0 -21 5 -39 10 -39 6
0 10 -18 10 -40 0 -22 5 -40 10 -40 6 0 10 -13 10 -30 0 -16 5 -30 10 -30 6 0
10 -18 10 -40 0 -22 5 -40 10 -40 6 0 10 -18 10 -40 0 -22 5 -40 10 -40 6 0
10 -13 10 -30 0 -16 5 -30 10 -30 6 0 10 -18 10 -40 0 -22 5 -40 10 -40 6 0
10 -18 10 -40 0 -22 5 -40 10 -40 6 0 10 -13 10 -30 0 -16 5 -30 10 -30 6 0
10 -18 10 -40 0 -22 5 -40 10 -40 6 0 10 -9 10 -20 0 -19 7 -20 168 -20 117 0
172 -4 180 -12 9 -9 12 -178 12 -702 -1 -579 -3 -694 -15 -710 -13 -18 -67
-18 -1687 -18 -920 0 -1681 3 -1690 7 -17 7 -18 50 -18 721 l0 714 250 0 250
0 0 39 c0 22 -4 43 -10 46 -5 3 -10 26 -10 50 0 24 -4 47 -10 50 -5 3 -10 26
-10 50 0 24 -4 47 -10 50 -5 3 -10 24 -10 46 0 21 -4 39 -10 39 -5 0 -10 22
-10 49 0 28 -4 53 -10 56 -5 3 -10 26 -10 51 0 24 -4 44 -10 44 -5 0 -10 14
-10 32 0 17 -7 40 -17 50 -15 17 -46 18 -575 18 -551 0 -558 0 -558 -20 0 -11
-4 -20 -10 -20 -5 0 -10 -22 -10 -50 0 -27 -4 -50 -10 -50 -5 0 -10 -22 -10
-50 0 -27 -4 -50 -10 -50 -5 0 -10 -22 -10 -50 0 -27 -4 -50 -10 -50 -5 0 -10
-22 -10 -50 0 -27 -4 -50 -10 -50 -5 0 -10 -22 -10 -50 0 -27 -4 -50 -10 -50
-5 0 -10 -22 -10 -50 0 -27 -4 -50 -10 -50 -5 0 -10 -7 -10 -15 0 -13 36 -15
260 -15 l260 0 0 -722 0 -723 -1476 1 c-874 1 -1480 6 -1485 11 -5 5 -8 300
-7 719 l3 709 164 3 c101 1 170 7 178 13 7 7 13 29 13 50 0 21 5 41 10 44 6 3
10 17 10 31 0 13 5 24 10 24 6 0 10 15 10 33 0 18 5 38 10 43 6 6 11 27 12 48
1 20 5 39 10 42 4 3 8 16 8 29 0 13 5 27 10 30 6 3 10 19 10 35 0 16 5 32 10
35 6 3 10 24 10 45 0 21 5 42 10 45 6 3 10 17 10 31 0 13 5 24 10 24 6 0 10
15 10 34 0 19 5 38 10 41 6 3 10 24 10 46 0 21 5 39 10 39 6 0 10 13 10 29 0
17 5 33 10 36 6 3 10 21 10 40 0 19 5 37 10 40 6 3 10 17 10 31 0 13 5 24 10
24 6 0 10 15 10 34 0 19 5 38 10 41 6 3 10 24 10 45 0 21 5 42 10 45 6 3 10
17 10 31 0 13 5 24 10 24 6 0 10 15 10 34 0 19 5 38 10 41 6 3 10 19 10 35 0
16 5 32 10 35 6 3 10 22 10 41 0 19 5 34 10 34 6 0 10 18 10 39 0 22 5 43 10
46 6 3 10 17 10 30 0 13 5 27 10 30 6 3 10 19 10 35 0 16 5 32 10 35 6 3 10
24 10 45 0 21 5 42 10 45 6 3 10 17 10 31 0 13 5 24 10 24 6 0 10 15 10 33 0
18 5 38 10 43 6 6 11 27 12 48 1 20 5 39 10 42 4 3 8 16 8 29 0 13 5 27 10 30
6 3 10 19 10 35 0 16 5 32 10 35 6 3 10 24 10 45 0 21 5 42 10 45 6 3 10 17
10 31 0 13 5 24 10 24 6 0 10 18 10 40 0 22 5 40 10 40 6 0 10 18 10 39 0 22
5 43 10 46 6 3 10 17 10 30 0 13 5 27 10 30 6 3 10 19 10 34 0 15 5 32 10 37
6 6 11 27 12 48 1 20 5 39 10 42 4 3 8 16 8 29 0 13 5 27 10 30 6 3 10 21 10
40 0 19 5 37 10 40 6 3 10 17 10 31 0 13 5 24 10 24 6 0 10 18 10 39 0 22 5
43 10 46 6 3 10 17 10 31 0 13 5 24 10 24 6 0 10 18 10 40 0 22 5 40 10 40 6
0 10 18 10 39 0 22 5 43 10 46 6 3 10 19 10 36 0 28 3 37 28 86 7 13 12 38 12
57 0 19 5 38 10 41 6 3 10 17 10 31 0 13 5 24 10 24 6 0 10 15 10 33 0 18 5
38 10 43 6 6 11 27 12 48 1 20 5 39 10 42 4 3 8 16 8 29 0 13 5 27 10 30 6 3
10 19 10 34 0 15 5 32 10 37 6 6 11 27 12 48 1 20 5 39 10 42 4 3 8 16 8 30 0
13 5 24 10 24 6 0 10 15 10 34 0 19 5 38 10 41 6 3 10 24 10 45 0 21 5 42 10
45 6 3 10 17 10 31 0 13 5 24 10 24 6 0 10 15 10 34 0 19 5 38 10 41 6 3 10
24 10 45 0 21 5 42 10 45 6 3 10 17 10 30 0 13 5 27 10 30 6 3 10 21 10 40 0
19 5 37 10 40 6 3 10 21 10 40 0 19 5 37 10 40 6 3 10 17 10 30 0 13 5 27 10
30 6 3 10 21 10 40 0 19 5 37 10 40 6 3 10 17 10 31 0 13 5 24 10 24 6 0 10
18 10 39 0 22 5 43 10 46 6 3 10 22 10 41 0 19 3 34 8 34 10 0 32 74 32 110 0
16 5 30 10 30 6 0 10 14 10 30 0 17 5 30 10 30 6 0 10 14 10 30 0 17 4 38 9
48 15 31 31 88 31 115 0 14 5 29 10 32 6 3 10 19 10 34 0 15 6 39 13 54 l12
27 1580 -3 1580 -2 3 -37z m4322 -1188 c0 -849 3 -1230 10 -1230 16 0 60 47
60 64 0 8 9 21 20 29 25 18 86 75 122 116 15 17 33 31 39 31 6 0 32 23 58 50
26 28 55 50 64 50 9 0 22 9 29 20 7 11 20 20 28 20 8 0 21 9 28 20 7 11 21 20
32 20 11 0 20 5 20 10 0 6 9 10 20 10 11 0 20 5 20 10 0 6 9 10 20 10 11 0 20
5 20 10 0 6 8 10 18 10 9 0 23 9 30 20 7 11 23 20 36 20 14 0 28 5 31 10 3 6
15 10 26 10 10 0 19 5 19 10 0 6 14 10 30 10 17 0 30 3 30 8 0 10 50 32 71 32
10 0 21 5 24 10 3 6 19 10 35 10 16 0 32 5 35 10 3 6 24 10 45 10 21 0 42 5
45 10 3 6 39 10 80 10 41 0 77 4 80 10 3 5 41 7 88 5 45 -3 136 -7 202 -11 66
-3 124 -10 130 -15 5 -5 33 -9 62 -9 29 0 53 -4 53 -10 0 -5 18 -10 39 -10 22
0 43 -4 46 -10 3 -5 17 -10 31 -10 13 0 24 -4 24 -10 0 -5 14 -10 30 -10 17 0
30 -4 30 -10 0 -5 10 -10 23 -10 26 0 77 -21 77 -32 0 -5 13 -8 30 -8 19 0 34
-7 42 -20 7 -11 21 -20 30 -20 10 0 18 -3 18 -7 0 -9 48 -33 66 -33 6 0 22
-13 35 -30 13 -16 31 -30 40 -30 9 0 27 -13 40 -30 13 -16 31 -30 39 -30 18 0
120 -100 120 -117 0 -7 18 -32 40 -54 22 -23 40 -45 40 -50 0 -5 14 -23 30
-41 17 -17 30 -37 30 -44 0 -7 4 -14 8 -16 13 -5 52 -65 52 -80 0 -7 9 -19 20
-26 11 -7 20 -19 20 -27 0 -15 35 -82 51 -99 5 -6 9 -23 9 -38 0 -15 5 -28 10
-28 6 0 10 -9 10 -20 0 -11 5 -20 10 -20 6 0 10 -9 10 -19 0 -11 5 -23 10 -26
6 -3 10 -17 10 -31 0 -13 5 -24 10 -24 6 0 10 -13 10 -30 0 -16 5 -30 10 -30
6 0 10 -13 10 -30 0 -16 5 -30 10 -30 6 0 10 -11 10 -24 0 -14 5 -28 10 -31 6
-3 10 -17 10 -30 0 -13 5 -27 10 -30 6 -3 10 -24 10 -45 0 -21 5 -42 10 -45 6
-3 10 -26 10 -50 0 -24 5 -47 10 -50 6 -3 10 -26 10 -50 0 -24 5 -47 10 -50 6
-3 10 -28 10 -55 0 -27 5 -52 10 -55 6 -3 10 -35 10 -70 0 -35 5 -67 10 -70 6
-4 10 -57 10 -126 0 -73 4 -119 10 -119 7 0 10 -142 10 -405 0 -263 -3 -405
-10 -405 -6 0 -10 -43 -10 -110 0 -67 -4 -110 -10 -110 -6 0 -10 -33 -10 -80
0 -47 -4 -80 -10 -80 -6 0 -10 -27 -10 -60 0 -33 -4 -60 -10 -60 -5 0 -10 -22
-10 -50 0 -27 -4 -50 -10 -50 -5 0 -10 -18 -10 -40 0 -22 -4 -40 -10 -40 -5 0
-10 -18 -10 -40 0 -22 -4 -40 -10 -40 -5 0 -10 -18 -10 -39 0 -22 -4 -43 -10
-46 -5 -3 -10 -17 -10 -31 0 -13 -4 -24 -10 -24 -5 0 -10 -13 -10 -30 0 -16
-4 -30 -10 -30 -5 0 -10 -13 -10 -29 0 -17 -4 -33 -10 -36 -5 -3 -10 -14 -10
-24 0 -21 -22 -71 -32 -71 -5 0 -8 -9 -8 -20 0 -11 -4 -20 -10 -20 -5 0 -10
-10 -10 -23 0 -29 -48 -127 -66 -134 -8 -3 -14 -14 -14 -24 0 -10 -4 -19 -10
-19 -5 0 -10 -6 -10 -13 0 -26 -52 -116 -83 -144 -18 -15 -39 -40 -46 -56 -8
-15 -18 -27 -23 -27 -4 0 -8 -8 -8 -17 0 -20 -138 -163 -157 -163 -7 0 -27
-13 -45 -30 -17 -16 -35 -30 -40 -30 -5 0 -21 -13 -35 -30 -13 -16 -31 -30
-39 -30 -18 0 -57 -21 -67 -37 -11 -17 -67 -43 -94 -43 -12 0 -23 -4 -23 -10
0 -5 -9 -10 -19 -10 -11 0 -23 -4 -26 -10 -3 -5 -17 -10 -31 -10 -13 0 -24 -3
-24 -7 0 -13 -51 -33 -81 -33 -15 0 -30 -4 -33 -8 -3 -5 -22 -9 -42 -10 -21
-1 -42 -6 -48 -12 -5 -5 -27 -10 -47 -10 -21 0 -41 -4 -44 -10 -3 -5 -39 -10
-80 -10 -41 0 -76 -4 -79 -9 -7 -11 -297 -11 -312 0 -5 5 -36 9 -67 10 -31 1
-57 6 -57 11 0 4 -22 8 -49 8 -28 0 -53 5 -56 10 -3 6 -17 10 -30 10 -13 0
-27 5 -30 10 -3 6 -17 10 -30 10 -13 0 -25 5 -27 10 -2 6 -14 12 -28 14 -39 5
-70 17 -70 27 0 5 -10 9 -22 9 -30 0 -168 68 -175 86 -3 8 -14 14 -24 14 -10
0 -19 5 -19 10 0 6 -9 10 -20 10 -11 0 -25 9 -32 20 -7 11 -21 20 -30 20 -10
0 -23 9 -30 20 -7 11 -19 20 -27 20 -8 0 -36 23 -62 50 -26 27 -51 50 -56 50
-13 0 -153 138 -153 150 0 6 -7 10 -15 10 -8 0 -15 7 -15 15 0 16 -46 65 -60
65 -6 0 -10 -107 -10 -275 0 -213 -3 -275 -12 -276 -103 -4 -2359 1 -2367 5
-8 5 -11 216 -11 722 l0 714 190 0 190 0 0 1935 0 1935 -190 0 -190 0 0 703
c0 533 3 706 12 715 9 9 288 12 1195 12 l1183 0 0 -1230z m22300 -1420 l0
-2650 190 0 190 0 0 -714 c0 -671 -1 -714 -17 -721 -10 -4 -543 -8 -1185 -8
-1097 -2 -1167 -1 -1177 15 -7 12 -11 105 -11 268 0 138 -4 250 -9 250 -5 0
-76 -67 -157 -150 -82 -82 -156 -150 -164 -150 -8 0 -21 -9 -28 -20 -7 -11
-18 -20 -25 -20 -7 0 -26 -13 -42 -30 -16 -16 -34 -30 -40 -30 -17 0 -65 -24
-65 -32 0 -5 -9 -8 -20 -8 -11 0 -20 -4 -20 -10 0 -5 -8 -10 -18 -10 -9 0 -22
-8 -29 -19 -7 -11 -23 -18 -39 -18 -16 0 -30 -6 -32 -12 -2 -6 -10 -11 -19
-11 -8 0 -28 -9 -44 -21 -16 -11 -33 -18 -37 -15 -5 3 -18 -1 -28 -9 -10 -8
-29 -15 -41 -15 -12 0 -24 -4 -27 -8 -3 -5 -20 -9 -37 -10 -17 0 -37 -6 -42
-11 -6 -6 -26 -11 -43 -11 -18 0 -36 -5 -39 -10 -3 -5 -30 -10 -59 -10 -29 0
-56 -3 -60 -7 -11 -11 -309 -13 -322 -2 -6 5 -42 9 -80 10 -38 1 -71 5 -74 10
-3 5 -32 9 -63 10 -32 1 -60 6 -63 11 -3 4 -16 8 -30 8 -13 0 -24 5 -24 10 0
6 -15 10 -34 10 -19 0 -38 4 -41 10 -3 5 -17 10 -30 10 -14 0 -40 9 -60 20
-20 11 -43 20 -53 20 -9 0 -28 9 -42 20 -14 11 -30 20 -36 20 -20 0 -75 32
-81 46 -3 8 -14 14 -24 14 -10 0 -24 9 -31 20 -7 11 -20 20 -29 20 -9 0 -27
13 -40 30 -13 16 -31 30 -40 30 -18 0 -199 182 -199 200 0 6 -13 25 -30 43
-16 18 -30 37 -30 42 0 6 -14 21 -30 34 -17 13 -30 32 -30 42 0 11 -4 19 -10
19 -5 0 -10 8 -10 18 0 9 -9 23 -20 30 -11 7 -20 20 -20 30 0 9 -9 28 -20 42
-11 14 -20 32 -20 40 0 9 -4 20 -9 25 -17 18 -51 85 -51 100 0 8 -4 15 -10 15
-5 0 -10 14 -10 30 0 17 -4 30 -10 30 -5 0 -10 14 -10 30 0 17 -4 30 -10 30
-5 0 -10 14 -10 30 0 17 -4 30 -10 30 -5 0 -10 9 -10 19 0 11 -4 23 -10 26 -5
3 -10 19 -10 35 0 16 -4 32 -10 35 -5 3 -10 17 -10 30 0 13 -4 27 -10 30 -5 3
-10 24 -10 45 0 21 -4 42 -10 45 -5 3 -10 22 -10 41 0 19 -4 34 -10 34 -6 0
-10 27 -10 60 0 33 -4 60 -10 60 -5 0 -10 20 -10 44 0 25 -4 48 -10 51 -5 3
-10 39 -10 80 0 41 -4 77 -10 80 -6 3 -10 52 -10 110 0 57 -4 107 -10 110 -13
8 -13 812 0 820 6 3 10 53 10 110 0 58 4 107 10 110 6 3 10 35 10 70 0 35 5
67 10 70 6 3 10 28 10 55 0 27 5 52 10 55 6 3 10 26 10 50 0 24 5 47 10 50 6
3 10 26 10 50 0 24 5 47 10 50 6 3 10 24 10 45 0 21 5 42 10 45 6 3 10 17 10
31 0 13 5 24 10 24 6 0 10 15 10 33 0 34 20 87 33 87 4 0 7 14 7 30 0 17 5 30
10 30 6 0 10 14 10 30 0 17 5 30 10 30 6 0 10 14 10 30 0 17 5 30 10 30 6 0
10 6 10 14 0 17 42 100 53 104 4 2 7 12 7 21 0 10 9 26 20 36 11 10 20 28 20
41 0 13 8 29 18 36 20 16 42 52 42 72 0 8 14 26 30 39 17 14 30 33 30 41 0 9
9 21 20 28 11 7 20 20 20 28 0 18 201 220 219 220 7 0 26 13 44 30 18 16 38
30 45 30 6 0 12 5 12 10 0 6 7 10 15 10 8 0 15 5 15 10 0 6 7 10 15 10 8 0 15
5 15 10 0 6 8 10 18 10 9 0 23 9 30 20 7 11 21 20 31 20 11 0 23 5 26 10 3 6
16 10 28 10 12 0 33 9 47 20 14 11 37 20 53 20 15 0 27 5 27 10 0 6 14 10 30
10 17 0 30 5 30 10 0 6 11 10 24 10 14 0 28 5 31 10 3 6 24 10 46 10 21 0 39
5 39 10 0 6 27 10 60 10 33 0 60 4 60 10 0 6 41 10 104 10 58 0 107 4 110 9 8
12 194 12 201 0 4 -5 33 -9 65 -9 32 0 62 -4 65 -10 3 -5 33 -10 65 -10 32 0
62 -4 65 -10 3 -5 14 -10 24 -10 21 0 71 -22 71 -32 0 -5 11 -8 24 -8 14 0 28
-4 31 -10 3 -5 15 -10 26 -10 10 0 19 -4 19 -10 0 -5 10 -10 23 -10 26 0 77
-21 77 -32 0 -5 6 -8 13 -8 18 0 67 -24 67 -32 0 -5 7 -8 15 -8 16 0 77 -39
83 -52 2 -5 12 -8 23 -8 10 0 24 -9 31 -20 7 -11 21 -20 30 -20 10 0 23 -9 30
-20 7 -11 19 -20 27 -20 8 0 81 -67 163 -150 82 -82 153 -150 158 -150 6 0 10
189 10 505 l0 505 -256 2 -257 3 0 701 c0 386 4 707 7 713 5 8 356 11 1262 11
l1254 0 0 -2650z m2758 1927 c2 -613 0 -720 -12 -733 -12 -12 -131 -14 -803
-14 -600 0 -792 3 -801 12 -18 18 -17 1410 0 1438 13 20 23 20 813 18 l800 -3
3 -718z m-43808 -597 c0 -5 -4 -10 -10 -10 -5 0 -10 5 -10 10 0 6 5 10 10 10
6 0 10 -4 10 -10z m26016 -472 c3 -4 45 -8 94 -8 49 0 92 -4 95 -10 3 -5 28
-10 55 -10 27 0 52 -4 55 -10 3 -5 21 -10 40 -10 19 0 37 -4 40 -10 3 -5 16
-10 28 -10 12 0 33 -9 47 -20 14 -11 35 -20 48 -20 12 0 31 -4 42 -10 11 -5
29 -14 40 -20 11 -5 27 -10 35 -10 8 0 20 -9 27 -20 7 -11 21 -20 30 -20 10 0
18 -4 18 -10 0 -5 9 -10 20 -10 11 0 20 -4 20 -10 0 -5 9 -10 20 -10 11 0 25
-9 32 -20 7 -11 20 -20 30 -20 9 0 28 -13 41 -30 14 -16 30 -30 35 -30 13 0
162 -146 162 -159 0 -6 18 -27 40 -47 22 -20 40 -44 40 -53 0 -9 14 -27 30
-40 17 -13 30 -32 30 -42 0 -34 39 -21 93 31 28 28 55 50 59 50 4 0 38 32 75
70 37 39 75 70 83 70 8 0 26 14 39 30 13 17 31 30 40 30 9 0 27 14 40 30 13
17 32 30 42 30 11 0 19 5 19 10 0 6 8 10 18 10 9 0 23 9 30 20 7 11 21 20 32
20 11 0 20 5 20 10 0 6 8 10 18 10 9 0 23 9 30 20 8 13 23 20 42 20 17 0 30 5
30 10 0 6 9 10 20 10 11 0 20 5 20 10 0 6 9 10 20 10 11 0 20 5 20 10 0 6 7
10 15 10 15 0 25 4 72 28 13 7 32 12 42 12 11 0 23 5 26 10 3 6 24 10 46 10
21 0 39 5 39 10 0 6 14 10 30 10 17 0 30 5 30 10 0 6 15 10 34 10 19 0 38 5
41 10 3 6 33 10 66 10 33 0 59 4 59 10 0 6 41 10 104 10 58 0 107 4 110 8 9
15 425 -4 441 -19 5 -5 28 -9 51 -9 24 0 46 -4 49 -10 3 -5 19 -10 36 -10 16
0 39 -5 52 -12 47 -24 57 -28 72 -28 8 0 15 -4 15 -10 0 -5 9 -10 19 -10 11 0
36 -9 58 -19 21 -11 63 -31 94 -45 31 -14 65 -37 75 -51 10 -14 24 -25 30 -25
6 0 30 -18 53 -40 22 -22 47 -40 53 -40 17 0 118 -101 118 -117 0 -7 18 -32
40 -54 22 -23 40 -46 40 -53 0 -6 14 -22 30 -35 17 -13 30 -32 30 -42 0 -11 5
-19 10 -19 6 0 10 -9 10 -20 0 -11 5 -20 10 -20 6 0 10 -9 10 -20 0 -11 5 -20
10 -20 6 0 10 -9 10 -20 0 -11 5 -20 10 -20 6 0 10 -9 10 -20 0 -11 3 -20 8
-20 4 0 13 -15 20 -32 7 -18 18 -41 23 -50 5 -10 9 -27 9 -38 0 -11 3 -20 8
-20 12 0 32 -53 32 -87 0 -18 5 -33 10 -33 6 0 10 -10 10 -22 0 -23 16 -81 31
-110 5 -10 9 -36 9 -57 0 -22 5 -43 10 -46 6 -3 10 -26 10 -50 0 -24 5 -47 10
-50 6 -3 10 -35 10 -70 0 -35 5 -67 10 -70 6 -4 10 -55 10 -120 0 -65 4 -116
10 -120 7 -4 10 -303 10 -866 l0 -859 190 0 190 0 0 -722 0 -723 -1373 0
c-1207 0 -1373 2 -1384 15 -9 11 -12 178 -13 707 0 380 3 698 6 707 5 14 32
16 190 16 l184 0 0 769 c0 503 -3 772 -10 776 -5 3 -10 26 -10 50 0 24 -4 47
-10 50 -5 3 -10 15 -10 26 0 10 -4 27 -9 37 -5 9 -15 30 -22 47 -8 16 -32 48
-54 70 -39 39 -56 49 -122 77 -18 7 -33 16 -33 20 0 5 -18 8 -40 8 -22 0 -40
5 -40 10 0 6 -45 10 -115 10 -70 0 -115 -4 -115 -10 0 -5 -18 -10 -40 -10 -22
0 -40 -4 -40 -10 0 -5 -13 -10 -30 -10 -16 0 -30 -4 -30 -10 0 -5 -8 -10 -18
-10 -9 0 -23 -9 -30 -20 -7 -11 -19 -20 -28 -20 -18 0 -64 -44 -64 -62 0 -8
-9 -20 -20 -28 -11 -8 -20 -22 -20 -32 0 -10 -4 -18 -10 -18 -5 0 -10 -18 -10
-39 0 -22 -4 -43 -10 -46 -5 -3 -10 -22 -10 -41 0 -19 -4 -34 -10 -34 -7 0
-10 -265 -10 -775 l0 -775 190 0 190 0 0 -722 0 -723 -1376 1 c-820 1 -1379 5
-1385 11 -5 5 -8 298 -7 719 l3 709 188 3 187 2 0 770 c0 502 -3 771 -10 775
-5 3 -10 28 -10 55 0 27 -4 52 -10 55 -5 3 -10 17 -10 31 0 13 -4 24 -10 24
-5 0 -10 8 -10 18 0 9 -9 23 -20 30 -11 7 -20 19 -20 28 0 19 -44 64 -63 64
-8 0 -17 6 -20 14 -6 15 -62 46 -84 46 -7 0 -13 5 -13 10 0 6 -22 10 -49 10
-28 0 -53 5 -56 10 -3 6 -50 10 -106 10 -59 0 -99 -4 -99 -10 0 -5 -18 -10
-40 -10 -22 0 -40 -4 -40 -10 0 -5 -13 -10 -30 -10 -16 0 -30 -4 -30 -10 0 -5
-8 -10 -18 -10 -10 0 -24 -9 -32 -20 -8 -11 -20 -20 -28 -20 -17 0 -62 -45
-62 -62 0 -8 -9 -20 -20 -28 -11 -8 -20 -22 -20 -32 0 -10 -4 -18 -10 -18 -5
0 -10 -18 -10 -39 0 -22 -4 -43 -10 -46 -5 -3 -10 -22 -10 -41 0 -19 -4 -34
-10 -34 -7 0 -10 -265 -10 -775 l0 -775 190 0 190 0 0 -722 0 -723 -1373 0
c-1207 0 -1373 2 -1384 15 -9 11 -12 182 -13 723 l0 707 190 0 190 0 0 975 0
975 -190 0 -190 0 0 703 c0 533 3 706 12 715 9 9 288 12 1195 12 l1183 0 0
-275 c0 -238 2 -275 15 -275 8 0 15 5 15 12 0 17 81 98 97 98 8 0 16 8 20 18
9 25 85 102 101 102 8 0 35 23 62 50 27 28 54 50 62 50 7 0 19 9 26 20 7 11
21 20 31 20 10 0 21 6 24 14 6 15 62 46 84 46 7 0 13 5 13 10 0 6 8 10 18 10
9 0 23 9 30 20 7 12 23 20 40 20 16 0 32 8 40 20 7 11 23 20 36 20 14 0 28 5
31 10 3 6 19 10 36 10 16 0 29 5 29 10 0 6 9 10 20 10 11 0 20 5 20 10 0 6 14
10 30 10 17 0 30 5 30 10 0 6 11 10 25 10 14 0 34 5 45 10 11 6 29 15 40 20
11 6 42 10 69 10 28 0 53 5 56 10 3 6 44 10 90 10 46 0 87 5 90 10 7 12 254
10 261 -2z m7600 1 c3 -5 65 -9 139 -9 78 0 136 -4 140 -10 3 -5 35 -10 70
-10 35 0 67 -4 70 -10 3 -5 30 -10 60 -10 30 0 57 -4 60 -10 3 -5 22 -10 41
-10 19 0 34 -4 34 -10 0 -5 18 -10 40 -10 22 0 40 -4 40 -10 0 -5 14 -10 30
-10 17 0 30 -4 30 -10 0 -5 14 -10 30 -10 17 0 30 -4 30 -10 0 -5 13 -10 29
-10 17 0 33 -4 36 -10 3 -5 14 -10 25 -10 10 0 43 -13 74 -30 31 -16 81 -43
112 -60 31 -16 62 -30 70 -30 8 0 19 -9 26 -20 7 -11 21 -20 30 -20 10 0 18
-4 18 -10 0 -5 9 -10 20 -10 11 0 25 -9 32 -20 7 -11 21 -20 30 -20 10 0 23
-9 30 -20 7 -11 20 -20 29 -20 8 0 36 -22 62 -50 26 -27 53 -50 60 -50 19 0
37 -21 37 -42 0 -11 7 -18 20 -18 11 0 20 -7 20 -15 0 -9 36 -51 80 -94 44
-44 80 -85 80 -93 0 -7 11 -22 25 -32 23 -18 55 -68 55 -88 0 -5 9 -18 20 -30
11 -12 20 -28 20 -35 0 -7 5 -13 10 -13 6 0 10 -9 10 -20 0 -11 5 -20 10 -20
6 0 10 -9 10 -20 0 -11 5 -20 10 -20 6 0 10 -8 10 -18 0 -10 4 -22 9 -27 19
-20 51 -86 51 -105 0 -20 4 -29 28 -77 7 -13 12 -32 12 -43 0 -11 5 -29 10
-40 6 -11 15 -29 20 -40 6 -11 10 -40 10 -65 0 -25 5 -45 10 -45 6 0 10 -15
10 -34 0 -19 5 -38 10 -41 6 -3 10 -33 10 -66 0 -33 4 -59 10 -59 6 0 10 -30
10 -69 0 -39 5 -73 10 -76 6 -4 10 -68 10 -161 0 -96 4 -154 10 -154 6 0 10
-114 10 -321 0 -264 -2 -323 -14 -335 -13 -12 -213 -14 -1400 -14 l-1386 0 0
-85 c0 -50 4 -85 10 -85 6 0 10 -18 10 -40 0 -22 5 -40 10 -40 6 0 10 -11 10
-24 0 -14 5 -28 10 -31 6 -3 10 -15 10 -26 0 -10 5 -19 10 -19 6 0 10 -9 10
-20 0 -11 5 -20 10 -20 6 0 10 -7 10 -15 0 -27 127 -145 155 -145 14 0 30 -9
37 -20 8 -12 24 -20 40 -20 16 0 28 -4 28 -10 0 -5 18 -10 40 -10 22 0 40 -4
40 -10 0 -6 27 -10 60 -10 33 0 60 -4 60 -10 0 -6 106 -10 299 -10 189 0 302
4 306 10 4 6 62 10 140 10 78 0 136 4 140 10 3 6 44 10 90 10 46 0 87 5 90 10
3 6 30 10 60 10 30 0 57 5 60 10 3 6 30 10 60 10 30 0 57 5 60 10 3 6 30 10
60 10 30 0 57 5 60 10 3 6 26 10 50 10 24 0 47 5 50 10 3 6 28 10 56 10 27 0
49 5 49 10 0 6 15 10 34 10 19 0 38 5 41 10 3 6 24 10 45 10 21 0 42 5 45 10
3 6 21 10 40 10 19 0 37 5 40 10 3 6 17 10 30 10 13 0 27 5 30 10 3 6 22 10
41 10 19 0 34 5 34 10 0 6 10 10 23 10 13 0 28 5 35 12 9 9 12 -147 12 -702
l0 -715 -27 -12 c-15 -7 -35 -13 -44 -13 -10 0 -21 -4 -24 -10 -3 -5 -13 -10
-22 -10 -8 0 -28 -9 -45 -21 -16 -12 -32 -18 -35 -15 -4 3 -17 -1 -30 -9 -13
-9 -27 -14 -32 -11 -4 3 -17 -1 -27 -9 -10 -8 -31 -15 -46 -15 -16 0 -28 -4
-28 -10 0 -5 -13 -10 -30 -10 -16 0 -30 -4 -30 -10 0 -5 -11 -10 -24 -10 -14
0 -28 -4 -31 -10 -3 -5 -17 -10 -30 -10 -13 0 -27 -4 -30 -10 -3 -5 -19 -10
-35 -10 -16 0 -32 -5 -35 -10 -4 -6 -10 -8 -14 -5 -5 2 -17 -2 -27 -10 -10 -8
-33 -15 -51 -15 -17 0 -35 -4 -38 -10 -3 -5 -21 -10 -40 -10 -19 0 -37 -4 -40
-10 -3 -5 -21 -10 -40 -10 -19 0 -37 -4 -40 -10 -3 -5 -26 -10 -50 -10 -24 0
-47 -4 -50 -10 -3 -6 -28 -10 -56 -10 -27 0 -49 -4 -49 -10 0 -5 -24 -10 -54
-10 -30 0 -57 -4 -60 -8 -3 -5 -40 -9 -82 -10 -43 -1 -83 -7 -88 -12 -6 -6
-49 -10 -97 -10 -48 0 -90 -4 -93 -8 -3 -5 -99 -9 -213 -11 -119 -1 -209 -6
-211 -12 -5 -12 -39 -12 -47 1 -4 6 -11 7 -17 4 -17 -11 -192 -13 -205 -2 -7
6 -14 5 -18 -2 -8 -13 -78 -13 -91 0 -5 5 -64 10 -132 11 -67 0 -125 5 -128
10 -3 5 -27 9 -53 9 -26 0 -51 4 -57 10 -5 5 -35 10 -67 11 -32 1 -60 6 -63
11 -3 4 -25 8 -49 8 -24 0 -47 5 -50 10 -3 6 -19 10 -35 10 -16 0 -32 5 -35
10 -3 6 -24 10 -45 10 -21 0 -42 5 -45 10 -3 6 -17 10 -30 10 -13 0 -27 5 -30
10 -3 6 -17 10 -31 10 -13 0 -24 5 -24 10 0 6 -13 10 -29 10 -17 0 -33 5 -36
10 -3 6 -14 10 -24 10 -21 0 -71 22 -71 33 0 4 -13 7 -30 7 -16 0 -30 5 -30
10 0 6 -6 10 -13 10 -18 0 -67 24 -67 33 0 4 -6 7 -13 7 -18 0 -67 24 -67 33
0 4 -9 7 -20 7 -11 0 -25 9 -32 20 -7 11 -18 20 -25 20 -7 0 -13 5 -13 10 0 6
-11 10 -24 10 -15 0 -34 12 -49 30 -14 17 -32 30 -39 30 -8 0 -20 9 -28 20 -8
11 -20 20 -26 20 -7 0 -38 25 -69 55 -31 30 -61 55 -66 55 -13 0 -179 168
-179 181 0 5 -7 9 -15 9 -8 0 -15 7 -15 16 0 8 -13 27 -30 41 -16 13 -30 31
-30 39 0 8 -13 29 -30 47 -16 18 -30 37 -30 42 0 6 -9 16 -20 23 -11 7 -20 19
-20 27 0 21 -21 57 -42 73 -10 7 -18 19 -18 26 0 18 -24 66 -32 66 -5 0 -8 9
-8 20 0 11 -3 20 -7 20 -12 0 -33 51 -33 77 0 13 -4 23 -10 23 -5 0 -10 9 -10
20 0 11 -4 20 -10 20 -5 0 -10 9 -10 20 0 11 -4 20 -10 20 -5 0 -10 11 -10 24
0 14 -4 28 -10 31 -5 3 -10 19 -10 36 0 16 -4 29 -10 29 -5 0 -10 11 -10 24 0
14 -4 28 -10 31 -5 3 -10 17 -10 30 0 13 -4 27 -10 30 -5 3 -10 26 -10 50 0
24 -4 47 -10 50 -5 3 -10 24 -10 45 0 21 -4 42 -10 45 -5 3 -10 26 -10 50 0
24 -4 47 -10 50 -5 3 -10 37 -10 75 0 38 -4 72 -10 75 -6 3 -10 52 -10 110 0
57 -4 106 -8 109 -12 7 -13 454 -2 461 6 4 10 53 10 110 0 58 4 107 10 110 6
3 10 37 10 75 0 38 5 72 10 75 6 3 10 28 10 55 0 27 5 52 10 55 6 3 10 22 10
41 0 19 5 34 10 34 6 0 10 21 10 48 0 26 7 55 15 65 7 11 11 25 9 32 -3 7 -1
16 5 20 6 3 11 17 11 31 0 13 5 24 10 24 6 0 10 13 10 29 0 17 5 33 10 36 6 3
10 16 10 28 0 12 9 33 20 47 11 14 20 33 20 43 0 9 3 17 8 17 11 0 32 51 32
77 0 13 5 23 10 23 6 0 10 9 10 20 0 11 9 25 20 32 11 7 20 21 20 30 0 10 5
18 10 18 6 0 10 6 10 13 0 22 31 78 46 84 8 3 14 13 14 24 0 10 8 24 18 31 9
7 23 25 31 41 8 15 18 27 23 27 4 0 8 8 8 17 0 9 41 57 90 105 50 49 90 95 90
103 0 8 9 15 20 15 13 0 20 7 20 18 0 21 19 42 38 42 8 0 39 27 69 60 31 33
64 60 74 60 11 0 19 5 19 10 0 6 7 10 15 10 8 0 15 5 15 10 0 6 6 10 13 10 7
0 18 9 25 20 7 11 21 20 32 20 11 0 25 9 32 20 7 11 18 20 24 20 6 0 19 9 29
20 10 11 26 20 36 20 9 0 19 3 21 8 5 11 171 92 190 92 9 0 20 5 23 10 3 6 19
10 36 10 16 0 29 5 29 10 0 6 9 10 20 10 11 0 20 5 20 10 0 6 11 10 24 10 14
0 28 5 31 10 3 6 17 10 30 10 13 0 27 5 30 10 3 6 24 10 45 10 21 0 42 5 45
10 3 6 19 10 35 10 16 0 32 5 35 10 3 6 24 10 46 10 21 0 39 5 39 10 0 6 20
10 44 10 25 0 48 5 51 10 3 6 30 10 60 10 30 0 57 5 60 10 3 6 44 10 90 10 46
0 87 5 90 10 4 6 62 10 140 10 74 0 136 4 140 10 7 12 273 11 281 -1z m13719
0 c4 -5 81 -9 175 -9 102 0 171 -4 175 -10 3 -6 50 -10 105 -10 55 0 102 -4
105 -10 3 -5 35 -10 70 -10 35 0 67 -4 70 -10 3 -5 23 -10 44 -10 20 0 41 -4
47 -10 5 -5 31 -10 57 -11 26 -1 50 -6 53 -11 3 -4 21 -8 40 -8 19 0 34 -4 34
-10 0 -5 18 -10 39 -10 22 0 43 -4 46 -10 3 -5 17 -10 30 -10 13 0 27 -4 30
-10 3 -5 15 -10 26 -10 10 0 27 -4 37 -9 74 -37 106 -51 118 -51 8 0 14 -4 14
-10 0 -5 11 -10 23 -10 30 0 87 -28 94 -46 3 -8 14 -14 24 -14 10 0 19 -4 19
-10 0 -5 6 -10 13 -10 7 0 23 -9 35 -20 12 -11 28 -20 37 -20 8 0 15 -4 15
-10 0 -5 6 -10 14 -10 8 0 37 -22 65 -50 28 -27 55 -50 61 -50 12 0 60 -48 60
-61 0 -6 27 -37 60 -68 33 -32 60 -63 60 -70 0 -7 14 -24 30 -38 17 -13 30
-33 30 -43 0 -10 6 -20 14 -23 15 -6 46 -62 46 -84 0 -7 3 -13 8 -13 8 0 32
-49 32 -67 0 -7 5 -13 10 -13 6 0 10 -13 10 -29 0 -17 5 -33 10 -36 6 -3 10
-17 10 -31 0 -13 5 -24 10 -24 6 0 10 -13 10 -30 0 -16 5 -30 10 -30 6 0 10
-13 10 -30 0 -16 5 -30 10 -30 6 0 10 -15 10 -34 0 -19 5 -38 10 -41 6 -3 10
-21 10 -40 0 -19 5 -37 10 -40 6 -3 10 -30 10 -60 0 -30 5 -57 10 -60 6 -3 10
-37 10 -76 0 -39 4 -69 10 -69 6 0 10 -41 10 -104 0 -59 4 -108 10 -111 7 -4
10 -293 10 -836 l0 -829 190 0 190 0 0 -722 0 -723 -1184 1 c-651 1 -1189 5
-1195 8 -8 5 -11 91 -11 272 0 228 -2 264 -15 264 -8 0 -15 -4 -15 -9 0 -5
-27 -37 -60 -70 -33 -34 -60 -66 -60 -73 0 -17 -41 -58 -58 -58 -8 0 -30 -18
-49 -40 -20 -22 -41 -40 -48 -40 -6 0 -20 -9 -30 -20 -10 -11 -26 -20 -37 -20
-10 0 -18 -4 -18 -8 0 -5 -12 -14 -27 -21 -15 -7 -33 -21 -41 -32 -7 -10 -22
-19 -33 -19 -10 0 -19 -3 -19 -7 0 -9 -49 -33 -67 -33 -7 0 -13 -3 -13 -7 0
-8 -48 -33 -63 -33 -5 0 -22 -9 -38 -21 -16 -11 -33 -17 -39 -14 -5 3 -22 -1
-37 -9 -36 -19 -64 -29 -85 -31 -10 -1 -23 -7 -30 -12 -7 -5 -28 -10 -47 -12
-19 -1 -41 -6 -48 -12 -7 -6 -19 -9 -27 -6 -8 3 -22 -1 -33 -8 -10 -8 -39 -15
-65 -15 -27 0 -48 -4 -48 -10 0 -6 -35 -10 -85 -10 -47 0 -85 -4 -85 -9 0 -11
-229 -11 -236 0 -3 5 -14 3 -24 -4 -16 -9 -24 -9 -40 1 -12 7 -58 12 -123 12
-57 0 -107 4 -113 9 -9 9 -32 12 -167 27 -31 4 -60 10 -63 15 -3 5 -21 9 -40
9 -19 0 -34 5 -34 10 0 6 -13 10 -29 10 -17 0 -33 5 -36 10 -3 6 -17 10 -31
10 -13 0 -24 5 -24 10 0 6 -6 10 -13 10 -18 0 -67 24 -67 33 0 4 -9 7 -20 7
-11 0 -20 5 -20 10 0 6 -12 10 -26 10 -15 0 -41 13 -61 30 -18 17 -42 30 -52
30 -10 0 -29 13 -42 30 -13 16 -29 30 -34 30 -6 0 -29 18 -53 40 -23 22 -47
40 -54 40 -17 0 -78 61 -78 78 0 7 -18 31 -40 53 -22 22 -40 45 -40 52 0 7 -9
18 -20 25 -11 7 -20 21 -20 32 0 11 -4 20 -10 20 -5 0 -10 9 -10 20 0 11 -4
20 -10 20 -5 0 -10 9 -10 20 0 11 -4 20 -10 20 -5 0 -10 9 -10 20 0 11 -4 20
-10 20 -5 0 -10 14 -10 30 0 17 -3 30 -7 30 -13 0 -33 53 -33 87 0 18 -4 33
-10 33 -5 0 -10 18 -10 40 0 22 -4 40 -10 40 -6 0 -10 30 -10 69 0 39 -5 73
-10 76 -13 8 -12 375 0 390 5 6 10 29 11 50 1 22 6 45 10 50 3 6 9 27 13 48
15 93 19 108 27 113 5 3 9 13 9 23 0 21 22 71 33 71 4 0 7 9 7 20 0 11 5 20
10 20 6 0 10 9 10 20 0 11 5 20 10 20 6 0 10 9 10 20 0 11 5 20 10 20 6 0 10
9 10 20 0 11 9 25 20 32 11 7 20 21 20 30 0 10 9 23 20 30 11 7 20 19 20 26 0
16 245 262 261 262 6 0 27 17 45 39 20 22 47 41 64 44 16 4 40 18 52 32 12 14
28 25 35 25 19 0 55 22 71 43 7 9 25 17 40 17 16 0 32 8 40 20 7 11 21 20 32
20 11 0 20 3 20 8 0 10 50 32 71 32 10 0 21 5 24 11 4 6 13 8 20 5 7 -2 21 2
32 9 10 8 28 15 40 15 12 0 25 5 28 10 3 6 15 10 26 10 10 0 19 5 19 10 0 6
10 10 22 10 23 0 81 17 111 32 10 5 21 6 26 4 4 -3 17 1 27 9 10 8 29 15 41
15 12 0 24 4 27 8 3 5 24 9 46 10 23 1 47 5 53 9 7 4 32 9 57 11 24 1 49 7 54
12 6 6 22 10 37 10 15 0 31 5 34 10 3 6 35 10 70 10 35 0 66 4 69 9 3 4 36 9
73 10 37 1 70 6 71 11 2 6 37 10 77 10 41 0 76 4 79 9 3 5 49 9 103 10 53 1
102 6 108 11 5 4 75 9 154 9 79 1 149 5 155 9 11 7 69 9 309 11 l117 1 0 29
c0 17 -4 33 -10 36 -5 3 -10 24 -10 45 0 21 -4 42 -10 45 -5 3 -10 17 -10 31
0 13 -4 24 -10 24 -5 0 -10 7 -10 16 0 20 -118 131 -171 162 -22 12 -50 22
-64 22 -13 0 -27 5 -30 10 -3 6 -26 10 -50 10 -24 0 -47 5 -50 10 -3 6 -35 10
-70 10 -35 0 -67 5 -70 10 -4 6 -110 10 -286 10 -179 0 -279 -4 -279 -10 0 -6
-53 -10 -140 -10 -87 0 -140 -4 -140 -10 0 -6 -35 -10 -84 -10 -47 0 -88 -4
-91 -10 -3 -5 -46 -10 -96 -10 -53 0 -89 -4 -89 -10 0 -6 -30 -10 -70 -10 -40
0 -70 -4 -70 -10 0 -6 -30 -10 -70 -10 -40 0 -70 -4 -70 -10 0 -5 -20 -10 -44
-10 -25 0 -48 -4 -51 -10 -3 -5 -33 -10 -66 -10 -33 0 -59 -4 -59 -10 0 -5
-22 -10 -49 -10 -28 0 -53 -4 -56 -10 -3 -5 -31 -10 -61 -10 -30 0 -54 -4 -54
-10 0 -5 -20 -10 -44 -10 -25 0 -48 -4 -51 -10 -3 -5 -28 -10 -56 -10 -27 0
-49 -4 -49 -10 0 -5 -25 -10 -55 -10 l-55 0 0 730 0 731 25 24 c13 14 33 25
44 25 11 0 23 5 26 10 3 6 24 10 45 10 21 0 42 5 45 10 3 6 21 10 40 10 19 0
37 5 40 10 3 6 26 10 51 10 24 0 44 5 44 10 0 6 15 10 34 10 19 0 38 5 41 10
3 6 28 10 55 10 27 0 52 5 55 10 3 6 26 10 51 10 24 0 44 5 44 10 0 6 24 10
54 10 30 0 58 5 61 10 3 6 30 10 60 10 30 0 57 5 60 10 3 6 37 10 75 10 38 0
72 5 75 10 3 6 35 10 70 10 35 0 67 5 70 10 3 6 37 10 75 10 38 0 71 4 74 9 3
4 43 9 88 10 45 1 87 6 92 10 6 5 65 10 131 10 65 1 124 6 130 10 5 4 87 9
180 10 94 1 174 6 178 10 12 12 435 12 442 0z m-3345 -1819 l0 -1690 190 0
190 0 0 -722 0 -723 -1373 0 c-1207 0 -1373 2 -1384 15 -9 11 -12 182 -13 723
l0 707 190 0 190 0 0 975 0 975 -190 0 -190 0 0 703 c0 533 3 706 12 715 9 9
288 12 1195 12 l1183 0 0 -1690z m8780 975 l0 -715 -190 0 -190 0 0 -35 c0
-19 5 -35 10 -35 6 0 10 -27 10 -60 0 -33 4 -60 10 -60 6 0 10 -27 10 -60 0
-33 4 -60 10 -60 6 0 10 -20 10 -44 0 -25 5 -48 10 -51 6 -3 10 -33 10 -66 0
-33 4 -59 10 -59 6 0 10 -27 10 -60 0 -33 4 -60 10 -60 6 0 10 -20 10 -44 0
-25 5 -48 10 -51 6 -3 10 -30 10 -60 0 -30 5 -57 10 -60 6 -3 10 -33 10 -66 0
-33 4 -59 10 -59 6 0 10 -27 10 -60 0 -33 4 -60 10 -60 6 0 10 -27 10 -60 0
-33 4 -60 10 -60 6 0 10 -20 10 -44 0 -25 5 -48 10 -51 6 -3 10 -33 10 -66 0
-33 4 -59 10 -59 6 0 10 -27 10 -60 0 -33 4 -60 10 -60 6 0 10 -27 10 -60 0
-33 4 -60 10 -60 6 0 10 -18 10 -40 0 -39 1 -40 35 -40 34 0 35 1 35 40 0 22
5 40 10 40 6 0 10 23 10 50 0 28 5 50 10 50 6 0 10 18 10 39 0 22 5 43 10 46
6 3 10 26 10 51 0 24 5 44 10 44 6 0 10 22 10 48 0 26 4 52 10 58 5 5 10 27
11 49 1 22 6 45 11 51 4 6 9 30 10 53 1 23 5 44 10 47 4 3 8 25 8 49 0 24 5
47 10 50 6 3 10 19 10 35 0 16 5 32 10 35 6 3 10 26 10 50 0 24 5 47 10 50 6
3 10 26 10 50 0 24 5 47 10 50 6 3 10 28 10 55 0 27 5 52 10 55 6 3 10 22 10
41 0 19 5 34 10 34 6 0 10 22 10 48 0 26 4 52 10 58 5 5 10 26 12 47 1 21 6
41 10 43 4 3 8 27 8 53 0 26 4 51 10 57 5 5 11 29 12 52 1 24 5 45 10 48 4 3
8 25 8 49 0 24 5 47 10 50 6 3 10 19 10 35 0 16 5 32 10 35 6 3 10 26 10 50 0
24 5 47 10 50 6 3 10 26 10 50 0 24 5 47 10 50 6 3 10 28 10 55 0 27 5 52 10
55 6 3 10 22 10 41 0 19 5 34 10 34 6 0 10 22 10 48 0 26 4 52 10 58 5 5 11
29 12 52 1 24 5 45 10 48 4 3 8 25 8 49 0 24 5 47 10 50 6 3 10 26 10 50 0 24
5 47 10 50 6 3 10 26 10 51 0 24 5 44 10 44 6 0 10 15 10 34 0 19 5 38 10 41
6 3 10 28 10 54 0 26 5 52 11 58 6 6 11 27 11 47 0 20 4 39 9 42 5 3 9 27 9
55 0 27 5 49 10 49 6 0 10 18 10 40 0 22 5 40 10 40 6 0 10 14 10 30 l0 30
841 0 c948 0 868 7 869 -77 0 -24 4 -43 9 -43 5 0 12 -21 15 -47 16 -118 19
-133 27 -133 5 0 9 -15 9 -34 0 -19 5 -38 10 -41 6 -3 10 -26 10 -50 0 -24 5
-47 10 -50 6 -3 10 -21 10 -40 0 -19 5 -37 10 -40 6 -3 10 -28 10 -55 0 -27 5
-52 10 -55 6 -3 10 -19 10 -35 0 -16 5 -32 10 -35 6 -3 10 -26 10 -50 0 -24 5
-47 10 -50 6 -3 10 -28 10 -56 0 -27 5 -49 10 -49 6 0 10 -15 10 -34 0 -19 5
-38 10 -41 6 -3 10 -28 10 -56 0 -27 5 -49 10 -49 6 0 10 -15 10 -34 0 -19 5
-38 10 -41 6 -3 10 -26 10 -50 0 -24 5 -47 10 -50 6 -3 10 -28 10 -56 0 -27 5
-49 10 -49 6 0 10 -18 10 -39 0 -22 5 -43 10 -46 6 -3 10 -26 10 -51 0 -24 5
-44 10 -44 6 0 10 -15 10 -34 0 -19 5 -38 10 -41 6 -3 10 -26 10 -50 0 -24 5
-47 10 -50 6 -3 10 -28 10 -56 0 -27 5 -49 10 -49 6 0 10 -18 10 -39 0 -22 5
-43 10 -46 6 -3 10 -26 10 -51 0 -24 5 -44 10 -44 6 0 10 -15 10 -34 0 -19 5
-38 10 -41 6 -3 10 -28 10 -56 0 -27 5 -49 10 -49 6 0 10 -22 10 -50 0 -27 5
-50 10 -50 6 0 10 -18 10 -39 0 -22 5 -43 10 -46 6 -3 10 -26 10 -51 0 -24 5
-44 10 -44 6 0 10 -15 10 -34 0 -19 5 -38 10 -41 6 -3 10 -28 10 -56 0 -27 5
-49 10 -49 6 0 10 -22 10 -50 0 -27 5 -50 10 -50 6 0 10 -18 10 -40 0 -22 5
-40 10 -40 6 0 10 -22 10 -50 0 -27 5 -50 10 -50 6 0 10 -18 10 -40 0 -22 5
-40 10 -40 6 0 10 -22 10 -50 0 -27 5 -50 10 -50 6 0 10 -13 10 -30 0 -28 3
-30 35 -30 l35 0 0 50 c0 28 5 50 10 50 6 0 10 30 10 69 0 39 5 73 10 76 6 3
10 30 10 59 0 28 4 56 10 62 5 5 10 33 11 62 1 29 6 55 11 58 4 3 8 34 8 69 0
35 5 67 10 70 6 3 10 28 10 55 0 27 5 52 10 55 6 3 10 33 10 65 0 32 5 62 10
65 6 3 10 28 10 55 0 27 5 52 10 55 6 3 10 33 10 66 0 33 4 59 10 59 6 0 10
30 10 69 0 39 5 73 10 76 6 3 10 28 10 54 0 26 4 51 10 57 5 5 10 35 11 67 1
32 6 60 11 63 4 3 8 34 8 69 0 35 5 67 10 70 6 3 10 28 10 56 0 27 5 49 10 49
6 0 10 9 10 20 0 19 -7 20 -200 20 l-200 0 0 701 c0 594 2 703 14 715 13 12
197 14 1285 14 l1271 0 0 -715 0 -715 -190 0 -190 0 0 -39 c0 -22 -4 -43 -10
-46 -5 -3 -10 -21 -10 -40 0 -19 -4 -37 -10 -40 -5 -3 -10 -21 -10 -40 0 -19
-4 -37 -10 -40 -5 -3 -10 -22 -10 -41 0 -19 -4 -34 -10 -34 -5 0 -10 -18 -10
-40 0 -22 -4 -40 -10 -40 -5 0 -10 -18 -10 -39 0 -22 -4 -43 -10 -46 -5 -3
-10 -22 -10 -41 0 -19 -4 -34 -10 -34 -5 0 -10 -18 -10 -40 0 -22 -4 -40 -10
-40 -5 0 -10 -18 -10 -40 0 -22 -4 -40 -10 -40 -5 0 -10 -18 -10 -40 0 -22 -4
-40 -10 -40 -5 0 -10 -18 -10 -40 0 -22 -4 -40 -10 -40 -5 0 -10 -18 -10 -40
0 -22 -4 -40 -10 -40 -5 0 -10 -18 -10 -40 0 -22 -4 -40 -10 -40 -5 0 -10 -18
-10 -40 0 -22 -4 -40 -10 -40 -5 0 -10 -18 -10 -40 0 -22 -4 -40 -10 -40 -5 0
-10 -18 -10 -40 0 -22 -4 -40 -10 -40 -5 0 -10 -18 -10 -40 0 -22 -4 -40 -10
-40 -5 0 -10 -18 -10 -40 0 -22 -4 -40 -10 -40 -5 0 -10 -18 -10 -40 0 -22 -4
-40 -10 -40 -5 0 -10 -18 -10 -40 0 -22 -4 -40 -10 -40 -5 0 -10 -22 -10 -49
0 -28 -4 -53 -10 -56 -5 -3 -10 -17 -10 -31 0 -13 -4 -24 -10 -24 -5 0 -10
-22 -10 -49 0 -28 -4 -53 -10 -56 -5 -3 -10 -21 -10 -40 0 -19 -4 -37 -10 -40
-5 -3 -10 -21 -10 -40 0 -19 -4 -37 -10 -40 -5 -3 -10 -21 -10 -40 0 -19 -4
-37 -10 -40 -5 -3 -10 -21 -10 -40 0 -19 -4 -37 -10 -40 -5 -3 -10 -22 -10
-41 0 -19 -4 -34 -10 -34 -5 0 -10 -18 -10 -39 0 -22 -4 -43 -10 -46 -5 -3
-10 -22 -10 -41 0 -19 -4 -34 -10 -34 -5 0 -10 -18 -10 -40 0 -22 -4 -40 -10
-40 -5 0 -10 -18 -10 -40 0 -22 -4 -40 -10 -40 -5 0 -10 -18 -10 -40 0 -22 -4
-40 -10 -40 -5 0 -10 -18 -10 -40 0 -22 -4 -40 -10 -40 -5 0 -10 -18 -10 -40
0 -22 -4 -40 -10 -40 -5 0 -10 -18 -10 -40 0 -22 -4 -40 -10 -40 -5 0 -10 -18
-10 -40 0 -22 -4 -40 -10 -40 -5 0 -10 -22 -10 -49 0 -28 -4 -53 -10 -56 -5
-3 -10 -21 -10 -40 0 -19 -4 -37 -10 -40 -5 -3 -10 -21 -10 -40 0 -19 -4 -37
-10 -40 -5 -3 -10 -21 -10 -40 0 -19 -4 -37 -10 -40 -5 -3 -10 -21 -10 -38 l0
-32 -1294 1 c-712 1 -1299 5 -1305 8 -6 4 -11 29 -11 56 0 27 -4 52 -10 55 -5
3 -10 19 -10 35 0 16 -4 32 -10 35 -5 3 -10 26 -10 50 0 24 -4 47 -10 50 -5 3
-10 26 -10 50 0 24 -4 47 -10 50 -5 3 -10 26 -10 50 0 24 -4 47 -10 50 -5 3
-10 24 -10 45 0 21 -4 42 -10 45 -5 3 -10 26 -10 50 0 24 -4 47 -10 50 -5 3
-10 19 -10 35 0 16 -4 32 -10 35 -5 3 -10 26 -10 50 0 24 -4 47 -10 50 -5 3
-10 28 -10 55 0 27 -4 52 -10 55 -5 3 -10 24 -10 45 0 21 -4 42 -10 45 -5 3
-10 21 -10 40 0 19 -4 36 -9 39 -5 4 -9 27 -9 52 0 26 -5 51 -11 57 -6 6 -11
23 -11 38 0 15 -4 31 -10 34 -5 3 -10 26 -10 50 0 24 -4 47 -10 50 -5 3 -10
19 -10 36 0 19 -5 29 -15 29 -8 0 -15 -5 -15 -11 0 -6 -9 -8 -20 -4 -18 6 -20
2 -20 -39 0 -25 -4 -46 -10 -46 -5 0 -10 -22 -10 -50 0 -27 -4 -50 -10 -50 -5
0 -10 -22 -10 -50 0 -27 -4 -50 -10 -50 -5 0 -10 -22 -10 -50 0 -27 -4 -50
-10 -50 -5 0 -10 -22 -10 -50 0 -27 -4 -50 -10 -50 -5 0 -10 -22 -10 -50 0
-27 -4 -50 -10 -50 -5 0 -10 -22 -10 -50 0 -27 -4 -50 -10 -50 -5 0 -10 -22
-10 -50 0 -27 -4 -50 -10 -50 -5 0 -10 -22 -10 -50 0 -27 -4 -50 -10 -50 -5 0
-10 -22 -10 -50 0 -27 -4 -50 -10 -50 -5 0 -10 -22 -10 -50 0 -27 -4 -50 -10
-50 -5 0 -10 -20 -10 -44 0 -25 -4 -48 -10 -51 -5 -3 -10 -28 -10 -56 0 -27
-4 -49 -10 -49 -5 0 -10 -22 -10 -50 0 -27 -4 -50 -10 -50 -5 0 -10 -17 -10
-37 l0 -38 -1277 1 -1278 2 -17 28 c-9 16 -17 43 -17 61 -1 17 -5 35 -11 38
-5 3 -10 24 -10 46 0 21 -4 39 -10 39 -5 0 -10 18 -10 40 0 22 -4 40 -10 40
-5 0 -10 11 -10 24 0 14 -4 28 -10 31 -5 3 -10 24 -10 45 0 21 -4 42 -10 45
-5 3 -10 19 -10 35 0 16 -4 32 -10 35 -5 3 -10 24 -10 45 0 21 -4 42 -10 45
-5 3 -10 22 -10 41 0 19 -4 34 -10 34 -5 0 -10 18 -10 40 0 22 -4 40 -10 40
-5 0 -10 18 -10 40 0 22 -4 40 -10 40 -5 0 -10 11 -10 24 0 14 -4 27 -8 30 -5
3 -9 22 -10 42 -1 21 -6 42 -12 48 -5 5 -10 22 -10 37 0 15 -4 31 -10 34 -5 3
-10 24 -10 45 0 21 -4 42 -10 45 -5 3 -10 19 -10 35 0 16 -4 32 -10 35 -5 3
-10 19 -10 36 0 16 -4 29 -8 29 -4 0 -9 17 -9 37 -1 21 -6 39 -12 41 -6 2 -11
19 -11 37 0 19 -4 37 -10 40 -5 3 -10 24 -10 45 0 21 -4 42 -10 45 -5 3 -10
19 -10 35 0 16 -4 32 -10 35 -5 3 -10 24 -10 46 0 21 -4 39 -10 39 -5 0 -10
18 -10 40 0 22 -4 40 -10 40 -5 0 -10 11 -10 24 0 14 -4 28 -10 31 -5 3 -10
21 -10 40 0 19 -4 37 -10 40 -5 3 -10 21 -10 40 0 19 -4 37 -10 40 -5 3 -10
24 -10 45 0 21 -4 42 -10 45 -5 3 -10 22 -10 41 0 19 -4 34 -10 34 -5 0 -10
18 -10 40 0 22 -4 40 -10 40 -5 0 -10 18 -10 40 0 22 -4 40 -10 40 -5 0 -10
11 -10 24 0 14 -4 27 -8 30 -5 3 -9 20 -10 37 0 17 -6 37 -11 42 -6 6 -11 28
-11 48 0 21 -4 41 -10 44 -5 3 -10 19 -10 35 0 16 -4 32 -10 35 -5 3 -10 24
-10 46 0 21 -4 39 -10 39 -5 0 -10 11 -10 24 0 14 -4 28 -10 31 -5 3 -10 26
-10 50 0 24 -4 47 -10 50 -5 3 -10 17 -10 30 0 13 -4 27 -10 30 -5 3 -10 24
-10 45 0 21 -4 42 -10 45 -5 3 -10 19 -10 35 0 16 -4 32 -10 35 -5 3 -10 24
-10 46 0 21 -4 39 -10 39 -5 0 -10 18 -10 40 0 22 -4 40 -10 40 -5 0 -10 11
-10 24 0 14 -4 28 -10 31 -5 3 -10 21 -10 40 0 19 -4 37 -10 40 -5 3 -10 15
-10 25 0 18 -10 20 -177 22 l-178 3 -3 713 -2 712 1355 0 1355 0 0 -715z
m-46780 -845 c0 -5 -4 -10 -10 -10 -5 0 -10 5 -10 10 0 6 5 10 10 10 6 0 10
-4 10 -10z m-165 -2019 c-3 -6 -11 -11 -17 -11 -6 0 -6 6 2 15 14 17 26 13 15
-4z m-1625 -1671 c0 -5 -4 -10 -10 -10 -5 0 -10 5 -10 10 0 6 5 10 10 10 6 0
10 -4 10 -10z m2870 -510 c0 -5 -4 -10 -10 -10 -5 0 -10 5 -10 10 0 6 5 10 10
10 6 0 10 -4 10 -10z m-5680 -210 c0 -5 -4 -10 -10 -10 -5 0 -10 5 -10 10 0 6
5 10 10 10 6 0 10 -4 10 -10z"/>
<path d="M10678 13550 c-7 -24 -3 -38 8 -28 3 4 4 17 2 30 l-3 23 -7 -25z"/>
<path d="M10475 13290 c-3 -5 -1 -10 4 -10 6 0 11 5 11 10 0 6 -2 10 -4 10 -3
0 -8 -4 -11 -10z"/>
<path d="M2600 12760 c0 -5 5 -10 10 -10 6 0 10 5 10 10 0 6 -4 10 -10 10 -5
0 -10 -4 -10 -10z"/>
<path d="M2520 12679 c0 -5 5 -7 10 -4 6 3 10 8 10 11 0 2 -4 4 -10 4 -5 0
-10 -5 -10 -11z"/>
<path d="M9715 12490 c-3 -5 -1 -10 4 -10 6 0 11 5 11 10 0 6 -2 10 -4 10 -3
0 -8 -4 -11 -10z"/>
<path d="M9740 10539 c0 -5 5 -7 10 -4 6 3 10 8 10 11 0 2 -4 4 -10 4 -5 0
-10 -5 -10 -11z"/>
<path d="M9670 10475 c-7 -9 -10 -18 -7 -22 8 -7 37 15 37 28 0 14 -16 11 -30
-6z"/>
<path d="M9610 10415 c-7 -9 -10 -18 -7 -22 8 -7 37 15 37 28 0 14 -16 11 -30
-6z"/>
<path d="M10075 10400 c3 -5 8 -10 11 -10 2 0 4 5 4 10 0 6 -5 10 -11 10 -5 0
-7 -4 -4 -10z"/>
<path d="M9540 10339 c0 -5 5 -7 10 -4 6 3 10 8 10 11 0 2 -4 4 -10 4 -5 0
-10 -5 -10 -11z"/>
<path d="M9480 10279 c0 -5 5 -7 10 -4 6 3 10 8 10 11 0 2 -4 4 -10 4 -5 0
-10 -5 -10 -11z"/>
<path d="M400 9399 c0 -5 5 -7 10 -4 6 3 10 8 10 11 0 2 -4 4 -10 4 -5 0 -10
-5 -10 -11z"/>
<path d="M13230 6675 c-7 -9 -10 -18 -7 -22 8 -7 37 15 37 28 0 14 -16 11 -30
-6z"/>
<path d="M7306 6124 c-11 -7 -17 -17 -13 -20 3 -4 14 1 23 10 21 22 15 28 -10
10z"/>
<path d="M12189 5633 c-13 -16 -12 -17 4 -4 9 7 17 15 17 17 0 8 -8 3 -21 -13z"/>
<path d="M441 5014 c0 -11 3 -14 6 -6 3 7 2 16 -1 19 -3 4 -6 -2 -5 -13z"/>
<path d="M13715 4210 c-3 -5 -1 -10 4 -10 6 0 11 5 11 10 0 6 -2 10 -4 10 -3
0 -8 -4 -11 -10z"/>
<path d="M10720 4160 c0 -5 5 -10 10 -10 6 0 10 5 10 10 0 6 -4 10 -10 10 -5
0 -10 -4 -10 -10z"/>
<path d="M10640 4079 c0 -5 5 -7 10 -4 6 3 10 8 10 11 0 2 -4 4 -10 4 -5 0
-10 -5 -10 -11z"/>
<path d="M920 3930 c0 -5 5 -10 11 -10 5 0 7 5 4 10 -3 6 -8 10 -11 10 -2 0
-4 -4 -4 -10z"/>
<path d="M6835 3800 c3 -5 8 -10 11 -10 2 0 4 5 4 10 0 6 -5 10 -11 10 -5 0
-7 -4 -4 -10z"/>
<path d="M13075 3130 c-3 -5 -1 -10 4 -10 6 0 11 5 11 10 0 6 -2 10 -4 10 -3
0 -8 -4 -11 -10z"/>
<path d="M8270 2800 c0 -5 5 -10 10 -10 6 0 10 5 10 10 0 6 -4 10 -10 10 -5 0
-10 -4 -10 -10z"/>
<path d="M12795 2770 c-3 -5 -1 -10 4 -10 6 0 11 5 11 10 0 6 -2 10 -4 10 -3
0 -8 -4 -11 -10z"/>
<path d="M3580 1150 c0 -5 5 -10 11 -10 5 0 7 5 4 10 -3 6 -8 10 -11 10 -2 0
-4 -4 -4 -10z"/>
<path d="M10761 1054 c0 -11 3 -14 6 -6 3 7 2 16 -1 19 -3 4 -6 -2 -5 -13z"/>
<path d="M5320 410 c0 -5 5 -10 10 -10 6 0 10 5 10 10 0 6 -4 10 -10 10 -5 0
-10 -4 -10 -10z"/>
<path d="M18750 8950 c0 -16 -4 -30 -10 -30 -5 0 -10 -22 -10 -50 0 -27 -4
-50 -10 -50 -5 0 -10 -22 -10 -49 0 -28 -4 -53 -10 -56 -5 -3 -10 -26 -10 -50
0 -24 -4 -47 -10 -50 -5 -3 -10 -22 -10 -41 0 -19 -4 -34 -10 -34 -5 0 -10
-22 -10 -50 0 -27 -4 -50 -10 -50 -5 0 -10 -22 -10 -50 0 -27 -4 -50 -10 -50
-5 0 -10 -22 -10 -50 0 -27 -4 -50 -10 -50 -5 0 -10 -20 -10 -44 0 -25 -4 -48
-10 -51 -5 -3 -10 -28 -10 -55 0 -27 -4 -52 -10 -55 -5 -3 -10 -22 -10 -41 0
-19 -4 -34 -10 -34 -5 0 -10 -22 -10 -50 0 -27 -4 -50 -10 -50 -5 0 -10 -22
-10 -50 0 -27 -4 -50 -10 -50 -5 0 -10 -22 -10 -50 0 -27 -4 -50 -10 -50 -5 0
-10 -22 -10 -49 0 -28 -4 -53 -10 -56 -5 -3 -10 -26 -10 -51 0 -24 -4 -44 -10
-44 -5 0 -10 -22 -10 -49 0 -28 -4 -53 -10 -56 -5 -3 -10 -19 -10 -36 l0 -29
373 2 372 3 3 23 c2 12 -1 22 -7 22 -6 0 -11 15 -11 34 0 19 -4 38 -10 41 -5
3 -10 26 -10 50 0 24 -4 46 -8 49 -5 3 -10 29 -11 58 -1 29 -6 55 -11 56 -6 2
-10 21 -10 42 0 21 -4 41 -8 44 -5 3 -10 26 -11 52 0 26 -5 52 -9 58 -4 6 -9
27 -11 46 -1 19 -7 39 -12 45 -5 5 -9 31 -9 57 0 26 -4 48 -10 48 -5 0 -10 15
-10 34 0 19 -4 38 -10 41 -5 3 -10 26 -10 50 0 24 -4 47 -10 50 -5 3 -10 28
-10 55 0 27 -4 52 -10 55 -5 3 -10 26 -10 50 0 24 -4 47 -10 50 -5 3 -10 26
-10 50 0 24 -4 47 -10 50 -5 3 -10 26 -10 50 0 24 -4 47 -10 50 -5 3 -10 26
-10 51 0 24 -4 44 -10 44 -5 0 -10 15 -10 34 0 19 -4 38 -10 41 -5 3 -10 26
-10 50 0 24 -4 47 -10 50 -5 3 -10 28 -10 56 l0 49 -35 0 c-32 0 -35 -2 -35
-30z"/>
<path d="M25290 7610 c0 -5 -18 -10 -40 -10 -22 0 -40 -4 -40 -10 0 -5 -13
-10 -30 -10 -16 0 -30 -4 -30 -10 0 -5 -7 -10 -15 -10 -8 0 -29 -13 -47 -30
-17 -16 -37 -30 -44 -30 -8 0 -14 -7 -14 -16 0 -9 -13 -29 -30 -44 -18 -17
-30 -38 -30 -54 0 -14 -4 -26 -10 -26 -5 0 -10 -13 -10 -30 0 -16 -4 -30 -10
-30 -6 0 -10 -27 -10 -60 0 -33 -4 -60 -10 -60 -7 0 -10 -183 -10 -529 0 -343
4 -532 10 -536 6 -3 10 -33 10 -66 0 -33 4 -59 10 -59 6 0 10 -11 10 -24 0
-14 5 -28 10 -31 6 -3 10 -18 10 -33 0 -16 8 -32 20 -40 11 -7 20 -19 20 -28
0 -19 45 -64 64 -64 9 0 21 -9 28 -20 7 -11 21 -20 30 -20 10 0 18 -4 18 -10
0 -5 9 -10 20 -10 11 0 20 -4 20 -10 0 -5 18 -10 40 -10 22 0 40 -4 40 -10 0
-6 52 -10 135 -10 83 0 135 4 135 10 0 6 18 10 40 10 22 0 40 3 40 8 0 7 48
32 63 32 5 0 38 29 73 64 46 46 64 72 64 90 0 14 3 26 8 26 14 0 32 54 32 95
0 23 5 46 10 51 14 14 14 1164 0 1178 -6 6 -10 32 -10 58 0 26 -4 48 -10 48
-5 0 -10 9 -10 20 0 11 -4 20 -10 20 -5 0 -10 9 -10 20 0 11 -4 20 -10 20 -5
0 -10 7 -10 15 0 19 -84 105 -102 105 -7 0 -24 9 -38 20 -14 11 -33 20 -42 20
-10 0 -18 5 -18 10 0 6 -18 10 -40 10 -22 0 -40 5 -40 10 0 6 -45 10 -115 10
-70 0 -115 -4 -115 -10z"/>
<path d="M44605 7610 c-3 -5 -26 -10 -51 -10 -24 0 -44 -4 -44 -10 0 -5 -9
-10 -20 -10 -11 0 -20 -4 -20 -10 0 -5 -9 -10 -20 -10 -11 0 -20 -4 -20 -10 0
-5 -7 -10 -15 -10 -20 0 -105 -85 -105 -105 0 -8 -4 -15 -10 -15 -5 0 -10 -9
-10 -20 0 -11 -4 -20 -10 -20 -5 0 -10 -9 -10 -20 0 -11 -4 -20 -10 -20 -5 0
-10 -22 -10 -50 0 -27 -4 -50 -10 -50 -7 0 -10 -205 -10 -595 0 -390 3 -595
10 -595 6 0 10 -22 10 -50 0 -27 3 -50 8 -50 10 0 32 -50 32 -72 0 -22 123
-148 145 -148 8 0 15 -4 15 -10 0 -5 13 -10 29 -10 17 0 33 -4 36 -10 3 -5 21
-10 40 -10 19 0 37 -4 40 -10 4 -6 55 -10 120 -10 65 0 116 4 120 10 3 6 19
10 35 10 15 0 54 14 85 30 31 17 61 30 66 30 15 0 79 70 79 86 0 8 9 19 20 26
12 8 20 24 20 40 0 15 5 30 10 33 6 3 10 17 10 30 0 13 5 27 10 30 6 3 10 26
10 50 0 24 5 47 10 50 12 8 14 1071 2 1079 -5 3 -10 30 -11 61 -1 31 -5 64
-10 73 -4 9 -13 27 -19 39 -7 13 -12 32 -12 44 0 11 -13 32 -30 46 -16 13 -30
31 -30 40 0 19 -24 43 -44 43 -9 0 -21 9 -28 20 -7 11 -21 20 -30 20 -10 0
-18 5 -18 10 0 6 -13 10 -29 10 -17 0 -33 5 -36 10 -3 6 -21 10 -40 10 -19 0
-37 5 -40 10 -3 6 -50 10 -105 10 -55 0 -102 -4 -105 -10z"/>
<path d="M39510 7610 c0 -5 -18 -10 -40 -10 -22 0 -40 -4 -40 -10 0 -5 -13
-10 -30 -10 -16 0 -30 -4 -30 -10 0 -5 -8 -10 -18 -10 -10 0 -24 -9 -32 -20
-8 -11 -20 -20 -28 -20 -17 0 -62 -45 -62 -62 0 -8 -9 -20 -20 -28 -11 -8 -20
-22 -20 -32 0 -10 -4 -18 -10 -18 -5 0 -10 -18 -10 -39 0 -22 -4 -43 -10 -46
-5 -3 -10 -22 -10 -41 0 -19 -4 -34 -10 -34 -6 0 -10 -35 -10 -85 l0 -85 34 0
c19 0 37 -6 39 -12 4 -10 6 -10 6 0 1 7 15 12 35 12 19 0 37 -6 39 -12 4 -10
6 -10 6 0 1 7 15 12 35 12 19 0 37 -6 39 -12 4 -10 6 -10 6 0 1 7 15 12 35 12
19 0 37 -6 39 -12 4 -10 6 -10 6 0 1 7 15 12 35 12 19 0 37 -6 39 -12 4 -10 6
-10 6 0 1 7 15 12 35 12 19 0 37 -6 39 -12 4 -10 6 -10 6 0 1 7 15 12 35 12
19 0 37 -6 39 -12 4 -10 6 -10 6 0 1 7 15 12 35 12 19 0 37 -6 39 -12 4 -10 6
-10 6 0 1 7 15 12 35 12 19 0 37 -6 39 -12 4 -10 6 -10 6 0 1 7 15 12 35 12
19 0 37 -6 39 -12 4 -10 6 -10 6 0 1 7 15 12 35 12 19 0 37 -6 39 -12 4 -10 6
-10 6 0 1 15 71 17 71 1 0 -5 5 -7 10 -4 6 3 10 44 10 90 0 46 -4 87 -10 90
-5 3 -10 26 -10 50 0 24 -4 47 -10 50 -5 3 -10 15 -10 26 0 10 -4 27 -9 37 -5
9 -15 30 -22 46 -17 35 -86 106 -120 123 -13 6 -39 17 -56 25 -18 7 -33 16
-33 20 0 5 -18 8 -40 8 -22 0 -40 5 -40 10 0 6 -45 10 -115 10 -70 0 -115 -4
-115 -10z"/>
<path d="M53390 6250 c0 -6 -40 -10 -100 -10 -60 0 -100 -4 -100 -10 0 -6 -27
-10 -60 -10 -33 0 -60 -4 -60 -10 0 -5 -13 -10 -30 -10 -16 0 -30 -4 -30 -10
0 -5 -13 -10 -30 -10 -16 0 -30 -4 -30 -10 0 -5 -8 -10 -18 -10 -10 0 -24 -9
-32 -20 -8 -11 -20 -20 -28 -20 -16 0 -53 -37 -71 -72 -8 -16 -18 -28 -23 -28
-4 0 -8 -38 -8 -85 0 -50 4 -85 10 -85 6 0 10 -7 10 -15 0 -20 85 -105 105
-105 8 0 15 -4 15 -10 0 -5 9 -10 20 -10 11 0 20 -4 20 -10 0 -5 18 -10 40
-10 22 0 40 -4 40 -10 0 -6 65 -10 175 -10 110 0 175 4 175 10 0 6 18 10 40
10 22 0 40 3 40 8 0 7 48 32 62 32 5 0 20 11 33 24 13 14 34 27 45 31 11 3 20
12 20 19 0 7 9 22 20 34 11 12 20 25 20 30 0 14 25 62 33 62 4 0 7 13 7 29 0
17 5 33 10 36 6 3 10 26 10 50 0 24 5 47 10 50 6 3 10 42 10 86 l0 79 -175 0
c-110 0 -175 -4 -175 -10z"/>
</g>
</svg>
